<svg width="84" height="84" viewBox="0 0 84 84" fill="none" xmlns="http://www.w3.org/2000/svg">
<g clip-path="url(#clip0_1560_753)">
<path d="M73.5003 28H17.5003C14.4938 28 11.6483 26.6945 9.67783 24.5C9.95083 24.192 10.2448 23.9015 10.5563 23.625C12.0053 22.344 12.1453 20.132 10.8643 18.683C9.58333 17.2305 7.37133 17.094 5.92233 18.375C4.43483 19.6875 3.19933 21.2205 2.24733 22.918C0.787826 25.5115 -0.00317383 28.462 -0.00317383 31.5V66.5C-0.00317383 76.1495 7.84733 84 17.4968 84H73.4968C79.2858 84 83.9968 79.289 83.9968 73.5V38.5C83.9968 32.711 79.2893 28 73.5003 28ZM64.7503 61.25C61.8523 61.25 59.5003 58.898 59.5003 56C59.5003 53.102 61.8523 50.75 64.7503 50.75C67.6483 50.75 70.0003 53.102 70.0003 56C70.0003 58.898 67.6483 61.25 64.7503 61.25ZM52.5003 10.5C58.2998 10.5 63.0003 15.2005 63.0003 21H73.5003C77.3853 21.0105 81.0288 22.3335 84.0003 24.6155V10.5C84.0003 4.7005 79.2998 0 73.5003 0H31.5003C25.7008 0 21.0003 4.7005 21.0003 10.5V21H42.0003C42.0003 15.2005 46.7008 10.5 52.5003 10.5ZM73.5003 5.25C76.3983 5.25 78.7503 7.602 78.7503 10.5C78.7503 13.398 76.3983 15.75 73.5003 15.75C70.6023 15.75 68.2503 13.398 68.2503 10.5C68.2503 7.602 70.6023 5.25 73.5003 5.25ZM31.5003 15.75C28.6023 15.75 26.2503 13.398 26.2503 10.5C26.2503 7.602 28.6023 5.25 31.5003 5.25C34.3983 5.25 36.7503 7.602 36.7503 10.5C36.7503 13.398 34.3983 15.75 31.5003 15.75Z" fill="#C3C3C3"/>
</g>
<defs>
<clipPath id="clip0_1560_753">
<rect width="84" height="84" fill="white"/>
</clipPath>
</defs>
</svg>
