<svg width="166" height="166" viewBox="0 0 166 166" fill="none" xmlns="http://www.w3.org/2000/svg">
<path fill-rule="evenodd" clip-rule="evenodd" d="M152.98 16.3194L156.634 18.1218V96.1538L146.943 86.4635L110.789 122.617L110.558 122.634L101.804 113.88L88.2557 127.428C87.1728 127.853 86.1296 128.3 85.1275 128.768C75.2083 133.401 62.4479 136.105 48.6815 136.105C40.9969 136.105 30.4562 136.065 12.5019 128.883L9.27051 127.591V13.7061L16.3202 16.5259C32.5377 23.0129 41.6437 23.0127 48.5555 23.0124H48.6815C61.1947 23.0124 72.4296 20.5399 80.7765 16.6412C90.6958 12.0084 103.456 9.3042 117.222 9.3042C128.07 9.3042 137.119 11.1112 143.481 12.9291C146.665 13.8388 149.187 14.7543 150.939 15.455C151.815 15.8055 152.5 16.1028 152.98 16.3194ZM82.952 50.4288C70.6496 50.4288 60.6762 60.4019 60.6762 72.7046C60.6762 85.007 70.6496 94.9804 82.952 94.9804C95.2544 94.9804 105.228 85.007 105.228 72.7046C105.228 60.4019 95.2544 50.4288 82.952 50.4288ZM45.2545 72.7046V86.4744H31.5463V72.7046H45.2545ZM134.358 72.7128V58.9428H120.65V72.7128H134.358Z" fill="#C3C3C3"/>
<path fill-rule="evenodd" clip-rule="evenodd" d="M110.717 137.28L146.995 101.002L156.688 110.695L110.717 156.666L92.1619 138.111L101.856 128.418L110.717 137.28Z" fill="#C3C3C3"/>
</svg>
