<svg width="87" height="78" viewBox="0 0 87 78" fill="none" xmlns="http://www.w3.org/2000/svg">
<path style="mix-blend-mode:screen" d="M43.5587 0.152932C43.5587 0.152932 50.3731 6.11268 66.347 7.8482C81.6375 9.51145 86.2541 5.76722 86.2541 5.76722C86.2541 5.76722 95.4861 51.94 43.5587 77.3136C-8.37293 51.9394 0.858983 5.76663 0.858983 5.76663C0.858983 5.76663 5.47633 9.51145 20.7662 7.84761C36.7428 6.11209 43.558 0.152344 43.558 0.152344L43.5587 0.152932Z" fill="url(#paint0_radial_1560_764)"/>
<path style="mix-blend-mode:screen" d="M20.7642 7.84859C5.47439 9.51184 0.857042 5.76761 0.857042 5.76761C0.857042 5.76761 -8.37487 51.9404 43.556 77.314V0.15332C43.556 0.15332 36.7402 6.11307 20.7642 7.84859Z" fill="url(#paint1_radial_1560_764)"/>
<g style="mix-blend-mode:screen">
<path d="M43.558 0.817899C45.2649 2.11983 52.2614 6.8035 66.2731 8.32575C68.8955 8.61128 71.3813 8.75581 73.6614 8.75581C80.7136 8.75581 84.3346 7.39454 85.8177 6.62489C86.2326 9.44496 87.3203 19.6084 83.8228 31.9127C81.4102 40.3988 77.32 48.2192 71.6651 55.1571C64.6526 63.7607 55.1976 71.0259 43.558 76.7559C31.9274 71.0306 22.4773 63.7719 15.4655 55.1771C9.8099 48.245 5.71691 40.4305 3.30085 31.9509C-0.207138 19.6395 0.880611 9.44966 1.29479 6.62489C2.77859 7.39454 6.39954 8.75581 13.4504 8.75581C15.7305 8.75581 18.2162 8.61128 20.8387 8.32575C34.8532 6.8035 41.8504 2.11983 43.5573 0.817899M43.558 0.152832C43.558 0.152832 36.7421 6.11258 20.7662 7.8481C17.9868 8.15067 15.561 8.27405 13.4511 8.27405C3.9514 8.27405 0.858996 5.76712 0.858996 5.76712C0.858996 5.76712 -8.37292 51.9399 43.558 77.3135C95.4854 51.9399 86.2535 5.76712 86.2535 5.76712C86.2535 5.76712 83.1632 8.27405 73.6614 8.27405C71.5515 8.27405 69.1242 8.15008 66.3463 7.8481C50.3724 6.11258 43.558 0.152832 43.558 0.152832Z" fill="url(#paint2_radial_1560_764)"/>
</g>
<path style="mix-blend-mode:screen" d="M43.5587 0.152932C43.5587 0.152932 50.3731 6.11268 66.347 7.8482C81.6375 9.51145 86.2541 5.76722 86.2541 5.76722C86.2541 5.76722 95.4861 51.94 43.5587 77.3136C-8.37293 51.9394 0.858983 5.76663 0.858983 5.76663C0.858983 5.76663 5.47633 9.51145 20.7662 7.84761C36.7428 6.11209 43.558 0.152344 43.558 0.152344L43.5587 0.152932Z" fill="url(#paint3_radial_1560_764)"/>
<path style="mix-blend-mode:screen" d="M20.7642 7.84859C5.47439 9.51184 0.857042 5.76761 0.857042 5.76761C0.857042 5.76761 -8.37487 51.9404 43.556 77.314V0.15332C43.556 0.15332 36.7402 6.11307 20.7642 7.84859Z" fill="url(#paint4_radial_1560_764)"/>
<g style="mix-blend-mode:screen">
<path d="M43.558 0.817899C45.2649 2.11983 52.2614 6.8035 66.2731 8.32575C68.8955 8.61128 71.3813 8.75581 73.6614 8.75581C80.7136 8.75581 84.3346 7.39454 85.8177 6.62489C86.2326 9.44496 87.3203 19.6084 83.8228 31.9127C81.4102 40.3988 77.32 48.2192 71.6651 55.1571C64.6526 63.7607 55.1976 71.0259 43.558 76.7559C31.9274 71.0306 22.4773 63.7719 15.4655 55.1771C9.8099 48.245 5.71691 40.4305 3.30085 31.9509C-0.207138 19.6395 0.880611 9.44966 1.29479 6.62489C2.77859 7.39454 6.39954 8.75581 13.4504 8.75581C15.7305 8.75581 18.2162 8.61128 20.8387 8.32575C34.8532 6.8035 41.8504 2.11983 43.5573 0.817899M43.558 0.152832C43.558 0.152832 36.7421 6.11258 20.7662 7.8481C17.9868 8.15067 15.561 8.27405 13.4511 8.27405C3.9514 8.27405 0.858996 5.76712 0.858996 5.76712C0.858996 5.76712 -8.37292 51.9399 43.558 77.3135C95.4854 51.9399 86.2535 5.76712 86.2535 5.76712C86.2535 5.76712 83.1632 8.27405 73.6614 8.27405C71.5515 8.27405 69.1242 8.15008 66.3463 7.8481C50.3724 6.11258 43.558 0.152832 43.558 0.152832Z" fill="url(#paint5_radial_1560_764)"/>
</g>
<g style="mix-blend-mode:hard-light">
<path d="M36.1434 59.6558L16.0884 42.7583L25.8377 34.5437L36.1434 43.2272L68.4837 15.9771L78.2329 24.1911L36.1434 59.6558Z" fill="#C3C3C3"/>
</g>
<defs>
<radialGradient id="paint0_radial_1560_764" cx="0" cy="0" r="1" gradientUnits="userSpaceOnUse" gradientTransform="translate(42.6173 34.5049) scale(71.4546 60.2068)">
<stop offset="0.35" stop-color="white" stop-opacity="0.2"/>
<stop offset="0.42" stop-color="white" stop-opacity="0.2"/>
<stop offset="0.5" stop-color="#EEEEEE" stop-opacity="0.2"/>
<stop offset="0.6" stop-color="#A0A0A0" stop-opacity="0.5"/>
<stop offset="0.69" stop-color="#BCBCBC" stop-opacity="0.5"/>
<stop offset="0.79" stop-color="#EEEEEE"/>
<stop offset="0.89" stop-color="#D5D5D5"/>
<stop offset="1" stop-color="white"/>
</radialGradient>
<radialGradient id="paint1_radial_1560_764" cx="0" cy="0" r="1" gradientUnits="userSpaceOnUse" gradientTransform="translate(-22.8496 26.0398) scale(127.63 107.539)">
<stop offset="0.35"/>
<stop offset="0.42" stop-color="#000400"/>
<stop offset="0.5" stop-color="#6C6C6C"/>
<stop offset="0.6" stop-color="#D4D4D4"/>
<stop offset="0.69" stop-color="white"/>
<stop offset="0.79" stop-color="#B3B7B4"/>
<stop offset="0.89" stop-color="#D3D3D3"/>
<stop offset="1" stop-color="white"/>
</radialGradient>
<radialGradient id="paint2_radial_1560_764" cx="0" cy="0" r="1" gradientUnits="userSpaceOnUse" gradientTransform="translate(43.5559 38.7332) scale(44.5767 37.5598)">
<stop offset="0.44" stop-color="white"/>
<stop offset="0.63" stop-color="#DDDDDD"/>
<stop offset="0.89" stop-color="#C0C0C0"/>
<stop offset="1"/>
</radialGradient>
<radialGradient id="paint3_radial_1560_764" cx="0" cy="0" r="1" gradientUnits="userSpaceOnUse" gradientTransform="translate(42.6173 34.5049) scale(71.4546 60.2068)">
<stop offset="0.35" stop-color="white" stop-opacity="0.2"/>
<stop offset="0.42" stop-color="white" stop-opacity="0.2"/>
<stop offset="0.5" stop-color="#EEEEEE" stop-opacity="0.2"/>
<stop offset="0.6" stop-color="#A0A0A0" stop-opacity="0.5"/>
<stop offset="0.69" stop-color="#BCBCBC" stop-opacity="0.5"/>
<stop offset="0.79" stop-color="#EEEEEE"/>
<stop offset="0.89" stop-color="#D5D5D5"/>
<stop offset="1" stop-color="white"/>
</radialGradient>
<radialGradient id="paint4_radial_1560_764" cx="0" cy="0" r="1" gradientUnits="userSpaceOnUse" gradientTransform="translate(-22.8496 26.0398) scale(127.63 107.539)">
<stop offset="0.35"/>
<stop offset="0.42" stop-color="#000400"/>
<stop offset="0.5" stop-color="#6C6C6C"/>
<stop offset="0.6" stop-color="#D4D4D4"/>
<stop offset="0.69" stop-color="white"/>
<stop offset="0.79" stop-color="#B3B7B4"/>
<stop offset="0.89" stop-color="#D3D3D3"/>
<stop offset="1" stop-color="white"/>
</radialGradient>
<radialGradient id="paint5_radial_1560_764" cx="0" cy="0" r="1" gradientUnits="userSpaceOnUse" gradientTransform="translate(43.5559 38.7332) scale(44.5767 37.5598)">
<stop offset="0.44" stop-color="white"/>
<stop offset="0.63" stop-color="#DDDDDD"/>
<stop offset="0.89" stop-color="#C0C0C0"/>
<stop offset="1"/>
</radialGradient>
</defs>
</svg>
