<svg width="106" height="106" viewBox="0 0 106 106" fill="none" xmlns="http://www.w3.org/2000/svg">
<g clip-path="url(#clip0_796_7115)">
<rect y="32.1797" width="80" height="80" rx="15" transform="rotate(-23.7188 0 32.1797)" fill="#1B1B1B"/>
<path d="M39.1866 45.5459C37.3852 41.4459 36.4845 39.3958 37.1986 37.5625C37.9127 35.7291 39.9627 34.8284 44.0628 33.027C48.1628 31.2256 50.2129 30.3249 52.0463 31.039C53.8796 31.7531 54.7803 33.8032 56.5817 37.9032C58.3831 42.0032 59.2838 44.0533 58.5697 45.8867C57.8556 47.72 55.8055 48.6207 51.7055 50.4221C47.6054 52.2235 45.5554 53.1242 43.7221 52.4102C41.8887 51.696 40.988 49.646 39.1866 45.5459Z" stroke="#C3C3C3" stroke-width="0.920006"/>
<path d="M42.8809 38.8392L49.1605 41.294L48.1057 38.8644M52.8872 44.6097L46.6099 42.1603L47.6623 44.5845M53.2174 39.3844C54.5106 42.3278 53.1728 45.7622 50.2294 47.0555C47.286 48.3487 43.8516 47.0109 42.5584 44.0675C41.2652 41.1241 42.6029 37.6897 45.5463 36.3965C48.4897 35.1033 51.9241 36.441 53.2174 39.3844Z" stroke="#C3C3C3" stroke-width="0.920006" stroke-linecap="round" stroke-linejoin="round"/>
<path d="M46.5814 74.0708C45.9345 74.355 45.3201 74.4648 44.7382 74.4C44.1624 74.3326 43.6439 74.1053 43.1825 73.7182C42.7185 73.325 42.3376 72.7896 42.04 72.1121C41.7423 71.4346 41.6069 70.795 41.6339 70.1934C41.6608 69.5917 41.8441 69.0561 42.1839 68.5864C42.5298 68.114 43.0262 67.7357 43.6732 67.4515C44.1371 67.2477 44.5799 67.1368 45.0017 67.119C45.4208 67.0951 45.8223 67.1553 46.2061 67.2998L46.1965 68.1232C45.7909 67.9956 45.4206 67.9398 45.0854 67.956C44.7537 67.9634 44.4017 68.0489 44.0294 68.2125C43.3153 68.5262 42.8655 68.986 42.6802 69.5917C42.4949 70.1974 42.5805 70.9061 42.9372 71.7179C43.2938 72.5297 43.7593 73.0752 44.3334 73.3545C44.9049 73.6277 45.5478 73.6074 46.2619 73.2937C46.6342 73.1301 46.9366 72.9317 47.1691 72.6985C47.405 72.4565 47.6131 72.1429 47.7935 71.7579L48.4024 72.2986C48.2492 72.679 48.0203 73.0199 47.7157 73.3212C47.4173 73.6198 47.0392 73.8696 46.5814 74.0708ZM51.5291 71.897C51.0774 72.0954 50.6452 72.1724 50.2325 72.128C49.8171 72.0775 49.4401 71.9155 49.1015 71.6419C48.7601 71.3623 48.4809 70.9752 48.2636 70.4809C48.0491 69.9926 47.9556 69.5312 47.9832 69.0968C48.0081 68.6562 48.1438 68.2689 48.3902 67.9349C48.634 67.5948 48.9817 67.3255 49.4334 67.127C49.8851 66.9286 50.3186 66.8546 50.734 66.9051C51.1528 66.9469 51.5298 67.1089 51.8651 67.3912C52.2037 67.6648 52.4803 68.0457 52.6948 68.534C52.912 69.0284 53.0082 69.4958 52.9833 69.9364C52.9618 70.3682 52.8262 70.7555 52.5763 71.0983C52.3298 71.4323 51.9808 71.6985 51.5291 71.897ZM51.2395 71.2378C51.6545 71.0554 51.9228 70.7628 52.0443 70.3599C52.1659 69.957 52.1019 69.4717 51.8525 68.904C51.6031 68.3364 51.2903 67.9641 50.914 67.7872C50.5377 67.6103 50.1421 67.613 49.727 67.7954C49.3059 67.9804 49.0332 68.2713 48.909 68.6681C48.7909 69.0623 48.8565 69.5432 49.1059 70.1108C49.3553 70.6784 49.6665 71.0551 50.0393 71.2408C50.4183 71.4238 50.8183 71.4228 51.2395 71.2378ZM54.827 70.3497L53.2824 66.834C53.2046 66.657 53.1194 66.4797 53.0267 66.3019C52.9341 66.1242 52.8353 65.9491 52.7305 65.7767L53.5361 65.4228L54.0621 66.3713L53.9522 66.4196C53.9398 66.01 54.0398 65.6493 54.2523 65.3375C54.4648 65.0256 54.7664 64.7839 55.157 64.6123C55.7002 64.3736 56.1749 64.3435 56.5809 64.5219C56.9843 64.6942 57.3228 65.0916 57.5963 65.7142L58.8553 68.5798L58.0222 68.9458L56.7833 66.126C56.5982 65.7049 56.3831 65.4389 56.1379 65.3282C55.8899 65.2114 55.592 65.2295 55.2441 65.3823C54.8291 65.5647 54.5545 65.8346 54.4203 66.1921C54.2922 66.5469 54.322 66.938 54.5097 67.3652L55.6601 69.9836L54.827 70.3497ZM61.5285 67.4053L57.5368 63.665L58.4341 63.2708L61.774 66.522L61.5176 66.6346L61.4095 61.9635L62.261 61.5894L62.3067 67.0634L61.5285 67.4053ZM67.1254 65.0446C66.393 65.3664 65.7206 65.4105 65.1083 65.1771C64.5021 64.941 64.0368 64.4537 63.7123 63.7152C63.4978 63.2269 63.4043 62.7655 63.4319 62.3311C63.4629 61.8878 63.6003 61.4961 63.844 61.156C64.0851 60.8098 64.4254 60.5401 64.8649 60.3471C65.286 60.162 65.6833 60.0967 66.0567 60.1511C66.4275 60.1994 66.7615 60.3548 67.0589 60.6173C67.3563 60.8799 67.6042 61.237 67.8027 61.6886L67.9234 61.9633L64.3986 63.512L64.1813 63.0176L67.1385 61.7183L67.0352 61.9057C66.826 61.4296 66.5569 61.1073 66.228 60.9387C65.9052 60.7674 65.5393 60.7716 65.1304 60.9513C64.6848 61.1471 64.4083 61.4542 64.301 61.8728C64.1909 62.2852 64.2525 62.7569 64.4858 63.2879L64.522 63.3703C64.7687 63.9319 65.0924 64.2957 65.4931 64.4619C65.8999 64.6254 66.3505 64.5986 66.8449 64.3814C67.1196 64.2607 67.3585 64.1084 67.5617 63.9245C67.7648 63.7405 67.9361 63.5087 68.0754 63.2291L68.6034 63.6852C68.479 63.9656 68.284 64.226 68.0183 64.4666C67.7587 64.7044 67.4611 64.8971 67.1254 65.0446ZM69.9724 63.6954L68.4438 60.2164C68.3634 60.0333 68.2755 59.8498 68.1802 59.666C68.0882 59.4733 67.9899 59.2908 67.885 59.1184L68.6907 58.7645L69.2982 59.8738L69.1649 59.9433C69.1026 59.6357 69.1044 59.3582 69.1705 59.1107C69.2399 58.8545 69.3596 58.638 69.5296 58.4614C69.703 58.276 69.9026 58.1337 70.1285 58.0344C70.2261 57.9915 70.3099 57.9584 70.3797 57.935C70.4495 57.9116 70.5233 57.8974 70.6012 57.8923L70.9087 58.6419C70.8011 58.6455 70.7062 58.6617 70.6242 58.6904C70.5456 58.7104 70.4514 58.7445 70.3415 58.7928C70.0729 58.9108 69.8678 59.0737 69.7262 59.2816C69.5906 59.4868 69.5152 59.7129 69.4999 59.9599C69.4907 60.2043 69.5371 60.4424 69.639 60.6743L70.8055 63.3294L69.9724 63.6954ZM75.3778 61.4188C74.8956 61.6306 74.4718 61.6603 74.1062 61.5078C73.7441 61.3465 73.445 60.9973 73.209 60.4602L72.135 58.0157L71.2378 58.4099L70.9562 57.7691L71.8535 57.3748L71.3104 56.1389L72.043 55.544L72.6866 57.0088L73.9866 56.4376L74.2682 57.0785L72.9682 57.6497L74.01 60.0209C74.1655 60.3749 74.3378 60.6014 74.527 60.7003C74.7195 60.7905 74.9348 60.7833 75.1728 60.6787C75.2949 60.6251 75.3946 60.5703 75.472 60.5145C75.5529 60.4498 75.6232 60.3862 75.683 60.3235L75.9847 61.0101C75.9092 61.087 75.8145 61.1614 75.7005 61.2333C75.5952 61.3087 75.4877 61.3705 75.3778 61.4188Z" fill="#C3C3C3"/>
</g>
<rect x="0.658889" y="32.4363" width="79" height="79" rx="14.5" transform="rotate(-23.7188 0.658889 32.4363)" stroke="#C3C3C3" stroke-opacity="0.3"/>
<defs>
<clipPath id="clip0_796_7115">
<rect y="32.1797" width="80" height="80" rx="15" transform="rotate(-23.7188 0 32.1797)" fill="white"/>
</clipPath>
</defs>
</svg>
