<svg width="301" height="392" viewBox="0 0 301 392" fill="none" xmlns="http://www.w3.org/2000/svg">
<ellipse cx="151.5" cy="32.5" rx="146.5" ry="115.5" fill="url(#paint0_linear_1561_1744)" fill-opacity="0.2"/>
<ellipse cx="146.5" cy="115.5" rx="146.5" ry="115.5" transform="matrix(1 0 0 -1 5 392)" fill="url(#paint1_linear_1561_1744)" fill-opacity="0.2"/>
<g filter="url(#filter0_d_1561_1744)">
<rect x="115" y="118" width="66" height="66" rx="33" fill="url(#paint2_linear_1561_1744)" fill-opacity="0.3" shape-rendering="crispEdges"/>
<rect x="115.25" y="118.25" width="65.5" height="65.5" rx="32.75" stroke="#C3C3C3" stroke-opacity="0.7" stroke-width="0.5" shape-rendering="crispEdges"/>
<rect x="127" y="130" width="42" height="42" rx="21" fill="#1B1B1B"/>
<path d="M151.855 158.062C153.976 156.652 155.375 154.239 155.375 151.5C155.375 147.151 151.849 143.625 147.5 143.625C146.899 143.625 146.313 143.692 145.75 143.82M151.855 158.062V155M151.855 158.062H154.938M143.125 144.951C141.015 146.364 139.625 148.77 139.625 151.5C139.625 155.849 143.151 159.375 147.5 159.375C148.101 159.375 148.687 159.308 149.25 159.18M143.125 144.951V148M143.125 144.951H140.063" stroke="#C3C3C3" stroke-width="1.3125" stroke-linecap="round" stroke-linejoin="round"/>
</g>
<rect y="52" width="36" height="36" rx="18" fill="url(#paint3_linear_1561_1744)" fill-opacity="0.3"/>
<rect x="0.25" y="52.25" width="35.5" height="35.5" rx="17.75" stroke="#C3C3C3" stroke-opacity="0.7" stroke-width="0.5"/>
<path d="M24.9349 71.9453L24.2646 68.2968C23.9751 66.721 23.8303 65.933 23.257 65.4665C22.6837 65 21.8602 65 20.2132 65H15.7868C14.1398 65 13.3163 65 12.743 65.4665C12.1697 65.933 12.0249 66.721 11.7354 68.2968L11.0651 71.9453C10.4641 75.2162 10.1636 76.8517 11.0889 77.9259C12.0142 79 13.7235 79 17.1423 79H18.8577C22.2765 79 23.9858 79 24.9111 77.9259C25.8364 76.8517 25.5359 75.2162 24.9349 71.9453Z" stroke="#C3C3C3" stroke-linecap="round"/>
<path d="M18 68.5V75M15.5 73L18 75.5L20.5 73" stroke="#C3C3C3" stroke-linecap="round" stroke-linejoin="round"/>
<path d="M27 69C27.1568 68.9209 27.2931 68.8212 27.4142 68.6955C28 68.0875 28 67.1089 28 65.1518C28 63.1946 28 62.216 27.4142 61.608C26.8284 61 25.8856 61 24 61H12C10.1144 61 9.17157 61 8.58579 61.608C8 62.216 8 63.1946 8 65.1518C8 67.1089 8 68.0875 8.58579 68.6955C8.70688 68.8212 8.84322 68.9209 9 69" stroke="#C3C3C3" stroke-linecap="round"/>
<rect x="265" y="221" width="36" height="36" rx="18" fill="url(#paint4_linear_1561_1744)" fill-opacity="0.3"/>
<rect x="265.25" y="221.25" width="35.5" height="35.5" rx="17.75" stroke="#C3C3C3" stroke-opacity="0.7" stroke-width="0.5"/>
<path d="M286.318 244C287.934 242.925 289 241.087 289 239C289 235.686 286.314 233 283 233C282.542 233 282.095 233.051 281.667 233.149M286.318 244V241.667M286.318 244H288.667M279.667 234.01C278.059 235.087 277 236.92 277 239C277 242.314 279.686 245 283 245C283.458 245 283.905 244.949 284.333 244.851M279.667 234.01V236.333M279.667 234.01H277.333" stroke="#C3C3C3" stroke-linecap="round" stroke-linejoin="round"/>
<rect y="221" width="36" height="36" rx="18" fill="url(#paint5_linear_1561_1744)" fill-opacity="0.3"/>
<rect x="0.25" y="221.25" width="35.5" height="35.5" rx="17.75" stroke="#C3C3C3" stroke-opacity="0.7" stroke-width="0.5"/>
<path d="M13.6665 233.333V240.667C13.6665 243.142 15.4565 245 17.9998 245" stroke="#C3C3C3" stroke-width="0.991176" stroke-linecap="round" stroke-linejoin="round"/>
<path d="M22.3333 244.667V237.333C22.3333 234.858 20.5433 233 18 233" stroke="#C3C3C3" stroke-width="0.991176" stroke-linecap="round" stroke-linejoin="round"/>
<path d="M23.9998 243C23.9998 243 22.7724 244.667 22.3332 244.667C21.894 244.667 20.6665 243 20.6665 243" stroke="#C3C3C3" stroke-width="0.991176" stroke-linecap="round" stroke-linejoin="round"/>
<path d="M15.3333 234.667C15.3333 234.667 14.1059 233 13.6667 233C13.2275 233 12 234.667 12 234.667" stroke="#C3C3C3" stroke-width="0.991176" stroke-linecap="round" stroke-linejoin="round"/>
<rect x="265" y="53" width="36" height="35" rx="17.5" fill="url(#paint6_linear_1561_1744)" fill-opacity="0.3"/>
<rect x="265.25" y="53.25" width="35.5" height="34.5" rx="17.25" stroke="#C3C3C3" stroke-opacity="0.7" stroke-width="0.5"/>
<path d="M285.5 71.75C285.5 72.2678 285.92 72.6875 286.438 72.6875C286.955 72.6875 287.375 72.2678 287.375 71.75C287.375 71.2322 286.955 70.8125 286.438 70.8125C285.92 70.8125 285.5 71.2322 285.5 71.75Z" stroke="#C3C3C3"/>
<path d="M287.312 68C287.353 67.7981 287.375 67.589 287.375 67.375C287.375 65.6491 285.976 64.25 284.25 64.25C282.524 64.25 281.125 65.6491 281.125 67.375C281.125 67.589 281.147 67.7981 281.188 68" stroke="#C3C3C3"/>
<path d="M279.875 67.9958H285.5C287.268 67.9958 288.152 67.9958 288.701 68.5452C289.25 69.0947 289.25 69.9789 289.25 71.7476V72.9982C289.25 74.7668 289.25 75.6511 288.701 76.2006C288.152 76.75 287.268 76.75 285.5 76.75H281.75C279.393 76.75 278.214 76.75 277.482 76.0174C276.75 75.2848 276.75 74.1058 276.75 71.7476V70.497C276.75 68.1388 276.75 66.9597 277.482 66.2272C278.072 65.6374 278.95 65.5224 280.5 65.5H281.75" stroke="#C3C3C3" stroke-linecap="round"/>
<defs>
<filter id="filter0_d_1561_1744" x="105" y="108" width="86" height="86" filterUnits="userSpaceOnUse" color-interpolation-filters="sRGB">
<feFlood flood-opacity="0" result="BackgroundImageFix"/>
<feColorMatrix in="SourceAlpha" type="matrix" values="0 0 0 0 0 0 0 0 0 0 0 0 0 0 0 0 0 0 127 0" result="hardAlpha"/>
<feOffset/>
<feGaussianBlur stdDeviation="5"/>
<feComposite in2="hardAlpha" operator="out"/>
<feColorMatrix type="matrix" values="0 0 0 0 0.138149 0 0 0 0 0.778307 0 0 0 0 0.603106 0 0 0 0.3 0"/>
<feBlend mode="normal" in2="BackgroundImageFix" result="effect1_dropShadow_1561_1744"/>
<feBlend mode="normal" in="SourceGraphic" in2="effect1_dropShadow_1561_1744" result="shape"/>
</filter>
<linearGradient id="paint0_linear_1561_1744" x1="162.433" y1="-275.5" x2="155.636" y2="148.066" gradientUnits="userSpaceOnUse">
<stop offset="0.728992" stop-color="#23C69A" stop-opacity="0"/>
<stop offset="1" stop-color="#23C69A"/>
</linearGradient>
<linearGradient id="paint1_linear_1561_1744" x1="157.433" y1="-192.5" x2="150.636" y2="231.066" gradientUnits="userSpaceOnUse">
<stop offset="0.728992" stop-color="#23C69A" stop-opacity="0"/>
<stop offset="1" stop-color="#23C69A"/>
</linearGradient>
<linearGradient id="paint2_linear_1561_1744" x1="115" y1="151" x2="181" y2="151" gradientUnits="userSpaceOnUse">
<stop stop-color="#C3C3C3"/>
<stop offset="1" stop-color="#1B1B1B"/>
</linearGradient>
<linearGradient id="paint3_linear_1561_1744" x1="0" y1="70" x2="36" y2="70" gradientUnits="userSpaceOnUse">
<stop stop-color="#C3C3C3"/>
<stop offset="1" stop-color="#1B1B1B"/>
</linearGradient>
<linearGradient id="paint4_linear_1561_1744" x1="265" y1="239" x2="301" y2="239" gradientUnits="userSpaceOnUse">
<stop stop-color="#C3C3C3"/>
<stop offset="1" stop-color="#1B1B1B"/>
</linearGradient>
<linearGradient id="paint5_linear_1561_1744" x1="0" y1="239" x2="36" y2="239" gradientUnits="userSpaceOnUse">
<stop stop-color="#C3C3C3"/>
<stop offset="1" stop-color="#1B1B1B"/>
</linearGradient>
<linearGradient id="paint6_linear_1561_1744" x1="265" y1="70.5" x2="301" y2="70.5" gradientUnits="userSpaceOnUse">
<stop stop-color="#C3C3C3"/>
<stop offset="1" stop-color="#1B1B1B"/>
</linearGradient>
</defs>
</svg>
