<svg width="139" height="125" viewBox="0 0 139 125" fill="none" xmlns="http://www.w3.org/2000/svg">
<path d="M68.7141 1.66432C58.8767 3.94188 45.2407 9.81093 37.0591 15.5048C12.2221 32.4112 -1.31646 57.2014 0.339336 82.6924C1.11854 93.4669 2.87174 99.774 7.83914 109.235C14.5597 121.936 22.2543 129.645 36.3773 137.791C52.7405 147.164 63.6493 150.055 80.8891 149.53C90.5317 149.179 93.5511 148.654 102.512 145.938C115.077 142.084 124.719 137.879 141.569 128.506C160.66 117.994 166.601 113.352 171.082 105.293C173.906 100.3 173.614 97.8468 170.108 95.8321C166.017 93.3793 161.244 95.6569 139.329 110.286C108.064 131.134 83.4215 138.843 62.9675 134.025C44.6563 129.645 26.5399 116.768 19.0401 102.84C6.28074 78.6629 13.6831 49.8432 38.0331 29.5205C58.2923 12.5265 82.9345 6.30702 105.434 12.5265C124.33 17.6071 136.407 34.3383 136.407 55.1866C136.407 81.7288 118.875 102.139 88.8759 110.286C82.8371 111.95 80.1099 112.125 70.8569 111.862C52.9353 111.249 43.9745 106.782 37.8383 95.5693C34.9163 90.3134 34.6241 88.9994 34.6241 81.8164C34.6241 72.2682 36.4747 66.7496 42.3187 59.7417C51.1821 48.8796 65.0129 46.1641 76.3113 53.0843C83.4215 57.4642 88.7785 71.8302 87.3175 82.5172C85.5643 94.6057 73.6815 100.562 61.7987 95.3941C56.0521 92.8537 54.2015 89.963 54.1041 83.3932C54.1041 76.2977 56.5391 72.969 61.7013 73.2318C64.5259 73.407 65.2077 73.0566 65.6947 71.3046C66.5713 68.2387 64.8181 64.91 61.8961 64.2092C51.7665 61.9317 42.9031 70.5163 42.9031 82.6924C42.9031 98.3724 54.2989 107.658 73.3893 107.658C86.6357 107.658 94.0381 103.19 99.8821 91.715C107.382 76.9985 103.681 57.9898 91.3109 47.478C79.2333 37.1415 63.8441 34.2507 51.1821 39.7694C41.7343 43.8865 30.6307 55.7122 26.6373 65.8736C23.9101 72.8814 24.2023 88.9118 27.2217 95.6569C37.8383 119.834 75.4347 129.032 106.408 115.104C134.264 102.489 148.095 82.8676 148.387 55.537C148.485 43.5361 146.926 37.1415 141.764 27.3305C135.92 16.2056 125.791 8.23418 110.791 3.1535C103.583 0.788361 101.538 0.437958 89.6551 0.262772C78.9411 -3.05176e-05 75.0451 0.262756 68.7141 1.66432Z" fill="black" fill-opacity="0.25"/>
</svg>
