<svg width="262" height="262" viewBox="0 0 262 262" fill="none" xmlns="http://www.w3.org/2000/svg">
<g clip-path="url(#clip0_839_1129)">
<mask id="mask0_839_1129" style="mask-type:luminance" maskUnits="userSpaceOnUse" x="0" y="0" width="262" height="262">
<path d="M0 0H262V262H0V0Z" fill="white"/>
</mask>
<g mask="url(#mask0_839_1129)">
<mask id="mask1_839_1129" style="mask-type:alpha" maskUnits="userSpaceOnUse" x="0" y="0" width="262" height="262">
<path d="M131 0C147.275 81.7204 179.805 114.567 262 131C179.786 147.433 147.256 180.28 131 262C114.725 180.28 82.1946 147.413 0 131C82.213 114.567 114.744 81.7204 131 0Z" fill="white"/>
</mask>
<g mask="url(#mask1_839_1129)">
<path d="M262 0H0V262H262V0Z" fill="#E0E0E0"/>
<g filter="url(#filter0_f_839_1129)">
<path d="M279.03 90.3899H121.83V275.1H279.03V90.3899Z" fill="#23C69A"/>
</g>
</g>
</g>
<mask id="mask2_839_1129" style="mask-type:alpha" maskUnits="userSpaceOnUse" x="0" y="0" width="262" height="262">
<path d="M131 0C147.275 81.7204 179.805 114.567 262 131C179.786 147.433 147.256 180.28 131 262C114.725 180.28 82.1946 147.413 0 131C82.213 114.567 114.744 81.7204 131 0Z" fill="white"/>
</mask>
<g mask="url(#mask2_839_1129)">
<g style="mix-blend-mode:overlay">
<path d="M262 0H0V262H262V0Z" fill="#808080"/>
</g>
</g>
</g>
<defs>
<filter id="filter0_f_839_1129" x="-3.16992" y="-34.6101" width="407.2" height="434.71" filterUnits="userSpaceOnUse" color-interpolation-filters="sRGB">
<feFlood flood-opacity="0" result="BackgroundImageFix"/>
<feBlend mode="normal" in="SourceGraphic" in2="BackgroundImageFix" result="shape"/>
<feGaussianBlur stdDeviation="62.5" result="effect1_foregroundBlur_839_1129"/>
</filter>
<clipPath id="clip0_839_1129">
<rect width="262" height="262" fill="white"/>
</clipPath>
</defs>
</svg>
