<svg width="203" height="206" viewBox="0 0 203 206" fill="none" xmlns="http://www.w3.org/2000/svg">
<g filter="url(#filter0_d_809_7555)">
<g clip-path="url(#clip0_809_7555)">
<rect x="32.7908" y="2.55273" width="169.86" height="174.385" rx="10" transform="rotate(9.81701 32.7908 2.55273)" fill="#262626"/>
<g clip-path="url(#clip1_809_7555)">
<rect x="42.6785" y="22.9858" width="143.406" height="34.4593" rx="3.48074" transform="rotate(9.81701 42.6785 22.9858)" fill="#1B1B1B"/>
<path d="M48.1414 34.0405L48.5598 31.6225L48.8445 31.6718L48.4261 34.0898L48.1414 34.0405ZM50.352 34.423L50.012 32.5909L50.3069 32.6419L50.5762 34.2499L50.4871 34.2345L51.2981 32.8135L51.5382 32.855L51.8144 34.4641L51.7286 34.4493L52.526 33.0259L52.8072 33.0746L51.8679 34.6854L51.6004 34.6391L51.3113 33.003L51.4485 33.0267L50.6229 34.4699L50.352 34.423ZM52.8733 34.8593L53.1713 33.1376L53.4491 33.1856L53.1512 34.9074L52.8733 34.8593ZM53.2046 32.7406L53.2586 32.4285L53.6016 32.4879L53.5476 32.8L53.2046 32.7406ZM53.6906 35.0007L54.1274 32.4764L54.4052 32.5245L53.9684 35.0488L53.6906 35.0007ZM54.5078 35.1421L54.9446 32.6178L55.2225 32.6659L54.7857 35.1902L54.5078 35.1421ZM56.0912 36.1791L56.4485 34.1144C56.4595 34.0504 56.4674 33.9846 56.472 33.9171C56.4793 33.8478 56.4853 33.7793 56.4899 33.7118L56.7574 33.7581L56.7245 34.1728L56.6833 34.1657C56.7433 34.0371 56.836 33.9436 56.9615 33.8853C57.0874 33.8246 57.228 33.8078 57.3835 33.8347C57.539 33.8616 57.6666 33.9201 57.7664 34.0104C57.8685 34.1011 57.94 34.2183 57.9811 34.362C58.0222 34.5057 58.0265 34.6712 57.9941 34.8587C57.962 35.0439 57.9025 35.1973 57.8155 35.3189C57.7308 35.4408 57.625 35.5285 57.498 35.5818C57.3714 35.6329 57.2304 35.645 57.0749 35.6181C56.9217 35.5916 56.7958 35.5298 56.6972 35.4327C56.5987 35.3356 56.5427 35.2164 56.5295 35.0751L56.5672 35.0817L56.369 36.2272L56.0912 36.1791ZM57.0592 35.3823C57.2238 35.4108 57.3639 35.3773 57.4793 35.2819C57.5974 35.1846 57.6752 35.0273 57.7128 34.8101C57.7508 34.5906 57.7303 34.4163 57.6514 34.2872C57.5751 34.1563 57.4547 34.0766 57.2901 34.0481C57.1277 34.02 56.9875 34.0546 56.8694 34.1519C56.754 34.2473 56.6773 34.4048 56.6393 34.6243C56.6017 34.8415 56.621 35.0156 56.6973 35.1466C56.7762 35.2756 56.8969 35.3542 57.0592 35.3823ZM58.9257 35.9384C58.7725 35.9119 58.6448 35.8533 58.5428 35.7626C58.4411 35.6697 58.3697 35.5513 58.3287 35.4076C58.2899 35.2643 58.2865 35.1001 58.3185 34.9149C58.351 34.7274 58.4096 34.5727 58.4942 34.4507C58.5812 34.3292 58.688 34.2429 58.8146 34.1918C58.9412 34.1407 59.0811 34.1284 59.2343 34.1549C59.3897 34.1818 59.5166 34.245 59.6148 34.3444C59.7156 34.4419 59.7727 34.5613 59.7859 34.7025L59.7448 34.6954L59.8531 34.2938L60.1207 34.3401C60.1023 34.4052 60.0838 34.4715 60.0651 34.5389C60.049 34.6044 60.0355 34.6692 60.0244 34.7332L59.7953 36.0571L59.5175 36.009L59.5875 35.6043L59.6252 35.6108C59.5653 35.7394 59.4715 35.8327 59.3437 35.8906C59.2159 35.9486 59.0766 35.9645 58.9257 35.9384ZM59.0197 35.7215C59.1843 35.75 59.3243 35.7165 59.4398 35.6211C59.5556 35.5234 59.6323 35.3659 59.6699 35.1487C59.7079 34.9292 59.6885 34.7551 59.6119 34.6265C59.5356 34.4955 59.4152 34.4158 59.2506 34.3873C59.0882 34.3592 58.948 34.3938 58.8299 34.4912C58.7145 34.5866 58.6378 34.744 58.5998 34.9636C58.5622 35.1808 58.5815 35.3549 58.6578 35.4858C58.7367 35.6148 58.8574 35.6934 59.0197 35.7215ZM60.1124 36.9138L60.087 36.6727C60.1988 36.6662 60.2931 36.6519 60.3699 36.6298C60.4486 36.6105 60.5167 36.5775 60.5742 36.531C60.6318 36.4844 60.6848 36.4229 60.7333 36.3465L60.8575 36.1596L60.8305 36.275L60.3838 34.3856L60.6856 34.4378L61.0447 36.0578L60.9555 36.0423L61.8312 34.636L62.1227 34.6865L61.0041 36.4146C60.9394 36.5164 60.8733 36.5992 60.8058 36.6629C60.7378 36.7288 60.6679 36.7791 60.596 36.8138C60.5259 36.8511 60.4508 36.877 60.3706 36.8914C60.2904 36.9057 60.2043 36.9132 60.1124 36.9138Z" fill="#C3C3C3"/>
<path d="M139.03 49.7676L139.449 47.3496L140.416 47.5169C140.672 47.5613 140.86 47.6504 140.981 47.7842C141.101 47.9181 141.144 48.0857 141.109 48.2869C141.083 48.4378 141.016 48.5557 140.907 48.6404C140.8 48.7256 140.664 48.7704 140.499 48.7747L140.507 48.7267C140.682 48.7781 140.81 48.864 140.893 48.9843C140.979 49.1027 141.007 49.2476 140.977 49.4191C140.94 49.634 140.839 49.7862 140.675 49.8756C140.514 49.9654 140.303 49.9878 140.042 49.9426L139.03 49.7676ZM139.348 49.5859L140.054 49.7081C140.228 49.7382 140.371 49.7288 140.483 49.6799C140.598 49.6291 140.669 49.5248 140.696 49.367C140.724 49.207 140.692 49.0849 140.601 49.0008C140.512 48.9148 140.381 48.8567 140.207 48.8267L139.5 48.7044L139.348 49.5859ZM139.54 48.478L140.188 48.5902C140.375 48.6226 140.522 48.6104 140.629 48.5534C140.735 48.4965 140.8 48.3994 140.824 48.2622C140.848 48.1205 140.82 48.006 140.738 47.9189C140.657 47.8295 140.523 47.7686 140.336 47.7362L139.687 47.624L139.54 48.478ZM141.98 50.3098C141.827 50.2833 141.7 50.2247 141.597 50.1341C141.496 50.0411 141.424 49.9228 141.383 49.7791C141.345 49.6358 141.341 49.4715 141.373 49.2863C141.406 49.0988 141.464 48.9441 141.549 48.8222C141.636 48.7007 141.743 48.6143 141.869 48.5632C141.996 48.5121 142.136 48.4998 142.289 48.5264C142.444 48.5533 142.571 48.6164 142.669 48.7158C142.77 48.8134 142.827 48.9327 142.841 49.074L142.799 49.0668L142.908 48.6652L143.175 48.7115C143.157 48.7766 143.138 48.8429 143.12 48.9103C143.104 48.9758 143.09 49.0406 143.079 49.1046L142.85 50.4285L142.572 50.3804L142.642 49.9757L142.68 49.9823C142.62 50.1108 142.526 50.2041 142.398 50.2621C142.271 50.32 142.131 50.3359 141.98 50.3098ZM142.074 50.093C142.239 50.1214 142.379 50.088 142.494 49.9926C142.61 49.8949 142.687 49.7374 142.725 49.5202C142.763 49.3007 142.743 49.1266 142.667 48.9979C142.59 48.867 142.47 48.7873 142.305 48.7588C142.143 48.7307 142.003 48.7653 141.885 48.8626C141.769 48.958 141.692 49.1155 141.654 49.335C141.617 49.5522 141.636 49.7263 141.712 49.8572C141.791 49.9863 141.912 50.0649 142.074 50.093ZM143.387 50.5215L143.824 47.9972L144.102 48.0452L143.665 50.5695L143.387 50.5215ZM144.854 50.8071C144.701 50.7806 144.573 50.722 144.471 50.6313C144.37 50.5384 144.298 50.4201 144.257 50.2764C144.218 50.1331 144.215 49.9688 144.247 49.7836C144.279 49.5961 144.338 49.4414 144.423 49.3195C144.51 49.1979 144.616 49.1116 144.743 49.0605C144.87 49.0094 145.01 48.9971 145.163 49.0236C145.318 49.0505 145.445 49.1137 145.543 49.2131C145.644 49.3106 145.701 49.43 145.714 49.5712L145.673 49.5641L145.782 49.1625L146.049 49.2088C146.031 49.2739 146.012 49.3402 145.994 49.4076C145.977 49.4731 145.964 49.5379 145.953 49.6019L145.724 50.9258L145.446 50.8777L145.516 50.473L145.554 50.4795C145.494 50.6081 145.4 50.7014 145.272 50.7593C145.144 50.8173 145.005 50.8332 144.854 50.8071ZM144.948 50.5902C145.113 50.6187 145.253 50.5852 145.368 50.4898C145.484 50.3921 145.561 50.2347 145.598 50.0174C145.636 49.7979 145.617 49.6238 145.54 49.4952C145.464 49.3642 145.344 49.2845 145.179 49.256C145.017 49.228 144.876 49.2626 144.758 49.3599C144.643 49.4553 144.566 49.6128 144.528 49.8323C144.491 50.0495 144.51 50.2236 144.586 50.3545C144.665 50.4836 144.786 50.5621 144.948 50.5902ZM146.261 51.0187L146.49 49.6948C146.501 49.6308 146.509 49.5651 146.514 49.4976C146.521 49.4282 146.527 49.3597 146.531 49.2922L146.799 49.3385L146.768 49.7217L146.727 49.7146C146.8 49.5907 146.897 49.5039 147.019 49.4543C147.143 49.4028 147.279 49.3898 147.425 49.4151C147.629 49.4503 147.772 49.5317 147.856 49.6592C147.943 49.7849 147.966 49.9643 147.925 50.1976L147.739 51.2745L147.461 51.2264L147.645 50.1666C147.673 50.0043 147.66 49.8808 147.606 49.7962C147.555 49.7096 147.461 49.6545 147.324 49.6308C147.164 49.6031 147.029 49.6303 146.918 49.7124C146.807 49.7945 146.738 49.9178 146.709 50.0825L146.539 51.0668L146.261 51.0187ZM148.989 51.5226C148.82 51.4933 148.679 51.4312 148.565 51.3362C148.455 51.2417 148.377 51.1211 148.331 50.9743C148.288 50.8279 148.283 50.6621 148.315 50.4769C148.347 50.2894 148.409 50.1364 148.5 50.018C148.592 49.8972 148.705 49.8132 148.841 49.766C148.978 49.7192 149.131 49.7102 149.297 49.7391C149.407 49.7581 149.51 49.7959 149.606 49.8526C149.705 49.9096 149.782 49.9796 149.839 50.0623L149.705 50.244C149.648 50.1658 149.581 50.1036 149.504 50.0574C149.429 50.0115 149.353 49.9819 149.275 49.9684C149.097 49.9375 148.949 49.9696 148.831 50.0647C148.714 50.1597 148.636 50.3147 148.599 50.5296C148.562 50.7422 148.583 50.9154 148.661 51.049C148.739 51.1826 148.867 51.2649 149.046 51.2957C149.121 51.3088 149.202 51.3074 149.287 51.2915C149.374 51.276 149.459 51.2401 149.542 51.1838L149.608 51.3965C149.524 51.4574 149.426 51.4982 149.315 51.5188C149.203 51.5395 149.094 51.5408 148.989 51.5226ZM150.695 51.8177C150.425 51.771 150.226 51.6565 150.097 51.4741C149.969 51.2894 149.929 51.0576 149.977 50.7787C150.008 50.598 150.07 50.4473 150.161 50.3266C150.253 50.2036 150.367 50.1161 150.504 50.0643C150.64 50.0102 150.788 49.997 150.948 50.0247C151.106 50.052 151.233 50.1081 151.329 50.1931C151.425 50.278 151.491 50.3871 151.527 50.5205C151.563 50.6515 151.567 50.8005 151.538 50.9674L151.52 51.0703L150.186 50.8395L150.216 50.6646L151.368 50.864L151.302 50.8985C151.334 50.7155 151.318 50.5655 151.253 50.4484C151.189 50.3312 151.075 50.2586 150.913 50.2305C150.741 50.2009 150.597 50.2383 150.48 50.3429C150.363 50.4452 150.288 50.598 150.252 50.8015L150.247 50.8324C150.21 51.0473 150.234 51.2199 150.32 51.3502C150.408 51.4785 150.549 51.5593 150.741 51.5925C150.844 51.6103 150.942 51.6121 151.037 51.5978C151.134 51.5816 151.229 51.5452 151.324 51.4886L151.386 51.7007C151.298 51.7608 151.192 51.8013 151.068 51.8223C150.947 51.8414 150.823 51.8399 150.695 51.8177ZM151.983 50.5959L152.044 50.2461L152.394 50.3066L152.333 50.6565L151.983 50.5959ZM151.746 51.9678L151.806 51.618L152.156 51.6785L152.096 52.0284L151.746 51.9678Z" fill="#C3C3C3"/>
<path d="M154.966 52.5248L155.012 52.2607L155.992 51.5366C156.119 51.4432 156.217 51.3518 156.286 51.2626C156.356 51.1734 156.4 51.0762 156.418 50.971C156.441 50.8407 156.417 50.7352 156.346 50.6547C156.277 50.5745 156.166 50.5212 156.013 50.4947C155.892 50.4737 155.774 50.4757 155.659 50.5005C155.546 50.5258 155.433 50.5745 155.319 50.6466L155.243 50.3543C155.354 50.2817 155.485 50.2314 155.636 50.2034C155.79 50.1734 155.946 50.1723 156.106 50.2C156.358 50.2435 156.541 50.3341 156.656 50.4718C156.774 50.6098 156.814 50.7852 156.777 50.9978C156.751 51.1488 156.69 51.2876 156.592 51.4144C156.495 51.539 156.361 51.6617 156.189 51.7828L155.347 52.3824L155.364 52.2864L156.619 52.5036L156.568 52.802L154.966 52.5248ZM157.761 53.0403C157.482 52.992 157.286 52.8485 157.172 52.6098C157.06 52.3691 157.039 52.0487 157.108 51.6486C157.179 51.2416 157.306 50.9469 157.491 50.7646C157.678 50.5803 157.911 50.5123 158.19 50.5606C158.472 50.6093 158.668 50.7516 158.781 50.9877C158.893 51.2215 158.915 51.5407 158.845 51.9455C158.775 52.3479 158.646 52.6435 158.458 52.8323C158.273 53.0193 158.04 53.0886 157.761 53.0403ZM157.813 52.7419C157.989 52.7724 158.133 52.7183 158.244 52.5798C158.357 52.4416 158.442 52.2102 158.498 51.8855C158.555 51.5585 158.552 51.3132 158.491 51.1496C158.433 50.984 158.315 50.886 158.139 50.8556C157.966 50.8255 157.822 50.8784 157.709 51.0143C157.597 51.1479 157.512 51.377 157.456 51.7017C157.399 52.0286 157.401 52.2762 157.462 52.4445C157.524 52.6131 157.642 52.7123 157.813 52.7419ZM159.818 53.3962C159.539 53.3479 159.342 53.2044 159.228 52.9656C159.117 52.725 159.096 52.4046 159.165 52.0044C159.235 51.5974 159.363 51.3028 159.548 51.1204C159.735 50.9362 159.968 50.8682 160.247 50.9164C160.528 50.9651 160.725 51.1075 160.837 51.3436C160.95 51.5773 160.971 51.8966 160.901 52.3013C160.831 52.7037 160.703 52.9994 160.514 53.1882C160.329 53.3751 160.097 53.4444 159.818 53.3962ZM159.87 53.0978C160.046 53.1282 160.189 53.0742 160.3 52.9356C160.414 52.7975 160.498 52.5661 160.555 52.2414C160.611 51.9144 160.609 51.6691 160.548 51.5054C160.489 51.3399 160.372 51.2419 160.196 51.2114C160.022 51.1813 159.879 51.2342 159.766 51.3701C159.653 51.5037 159.569 51.7328 159.513 52.0575C159.456 52.3845 159.458 52.6321 159.518 52.8003C159.581 52.969 159.698 53.0681 159.87 53.0978ZM161.053 53.5781L161.124 53.17L161.532 53.2406L161.461 53.6487L161.053 53.5781ZM162.771 53.9071C162.471 53.8553 162.258 53.7113 162.132 53.4751C162.008 53.2393 161.978 52.934 162.043 52.559C162.091 52.28 162.173 52.0528 162.288 51.8772C162.404 51.6994 162.546 51.5733 162.714 51.4988C162.885 51.4247 163.077 51.4062 163.292 51.4434C163.42 51.4656 163.544 51.5129 163.663 51.5853C163.783 51.6555 163.879 51.7427 163.95 51.8469L163.777 52.0925C163.707 51.9955 163.625 51.9177 163.531 51.8592C163.438 51.8006 163.34 51.7624 163.237 51.7446C163.015 51.7062 162.832 51.7547 162.689 51.89C162.546 52.023 162.448 52.2427 162.394 52.5491L162.344 52.8407L162.31 52.8347C162.347 52.714 162.404 52.6144 162.482 52.5359C162.559 52.4552 162.651 52.3993 162.758 52.3683C162.864 52.3373 162.978 52.3322 163.1 52.3532C163.244 52.3781 163.365 52.4333 163.463 52.5186C163.564 52.6042 163.636 52.7109 163.68 52.8386C163.724 52.964 163.733 53.101 163.707 53.2497C163.681 53.4029 163.623 53.5341 163.533 53.6434C163.444 53.7528 163.332 53.8312 163.199 53.8789C163.069 53.9246 162.926 53.934 162.771 53.9071ZM162.8 53.6154C162.896 53.6321 162.983 53.6259 163.061 53.597C163.141 53.5685 163.208 53.5213 163.262 53.4552C163.316 53.3869 163.352 53.3035 163.369 53.2052C163.386 53.1069 163.38 53.0176 163.352 52.9373C163.323 52.857 163.276 52.79 163.21 52.7362C163.147 52.6804 163.067 52.6443 162.971 52.6277C162.875 52.611 162.786 52.6181 162.706 52.6489C162.625 52.6774 162.558 52.7247 162.505 52.7907C162.451 52.8568 162.415 52.939 162.398 53.0373C162.381 53.1356 162.387 53.226 162.415 53.3086C162.443 53.3889 162.491 53.456 162.557 53.5098C162.623 53.5636 162.704 53.5988 162.8 53.6154ZM164.827 54.263C164.528 54.2111 164.315 54.0671 164.188 53.831C164.064 53.5952 164.035 53.2898 164.1 52.9148C164.148 52.6359 164.23 52.4086 164.345 52.2331C164.46 52.0553 164.602 51.9291 164.771 51.8546C164.941 51.7805 165.134 51.7621 165.349 51.7992C165.477 51.8214 165.601 51.8687 165.72 51.9412C165.84 52.0113 165.935 52.0985 166.007 52.2027L165.834 52.4483C165.763 52.3514 165.681 52.2736 165.588 52.215C165.494 52.1565 165.396 52.1183 165.293 52.1005C165.071 52.0621 164.889 52.1106 164.745 52.2459C164.602 52.3789 164.504 52.5986 164.451 52.905L164.401 53.1965L164.366 53.1906C164.404 53.0699 164.461 52.9703 164.538 52.8918C164.616 52.811 164.708 52.7551 164.814 52.7241C164.921 52.6931 165.035 52.6881 165.156 52.7091C165.3 52.734 165.421 52.7891 165.52 52.8744C165.62 52.9601 165.692 53.0668 165.736 53.1945C165.78 53.3199 165.79 53.4569 165.764 53.6055C165.737 53.7587 165.679 53.89 165.59 53.9993C165.5 54.1086 165.389 54.1871 165.256 54.2347C165.126 54.2804 164.983 54.2899 164.827 54.263ZM164.856 53.9713C164.952 53.9879 165.039 53.9818 165.117 53.9529C165.198 53.9244 165.265 53.8771 165.319 53.8111C165.373 53.7427 165.408 53.6594 165.425 53.5611C165.442 53.4628 165.437 53.3735 165.408 53.2932C165.38 53.2129 165.332 53.1458 165.266 53.092C165.203 53.0363 165.123 53.0001 165.027 52.9835C164.931 52.9669 164.843 52.974 164.762 53.0048C164.682 53.0333 164.615 53.0805 164.561 53.1466C164.507 53.2126 164.472 53.2948 164.455 53.3931C164.438 53.4914 164.443 53.5819 164.471 53.6645C164.5 53.7448 164.547 53.8118 164.613 53.8656C164.679 53.9195 164.76 53.9547 164.856 53.9713ZM167.952 54.8037C167.616 54.7456 167.381 54.6176 167.245 54.42C167.112 54.2227 167.074 53.9582 167.132 53.6267L167.381 52.1828L167.738 52.2445L167.49 53.6816C167.449 53.9148 167.469 54.0996 167.549 54.2359C167.632 54.3703 167.784 54.4567 168.006 54.4951C168.216 54.5314 168.385 54.5006 168.513 54.4026C168.641 54.3023 168.725 54.1356 168.765 53.9023L169.014 52.4653L169.364 52.5258L169.114 53.9697C169.057 54.3013 168.93 54.5372 168.734 54.6775C168.538 54.8178 168.277 54.8599 167.952 54.8037ZM170.31 55.2117C170.115 55.178 169.944 55.1236 169.794 55.0482C169.645 54.9706 169.52 54.876 169.419 54.7644L169.588 54.5039C169.656 54.5768 169.727 54.6398 169.803 54.6929C169.88 54.7464 169.965 54.7916 170.055 54.8284C170.148 54.8633 170.25 54.8904 170.362 54.9098C170.554 54.9431 170.701 54.9331 170.802 54.8799C170.905 54.8272 170.966 54.7448 170.986 54.6327C171.002 54.5367 170.983 54.4568 170.928 54.3932C170.876 54.3299 170.773 54.2686 170.621 54.2093L170.26 54.0692C170.046 53.985 169.893 53.8821 169.802 53.7602C169.712 53.6364 169.683 53.4842 169.715 53.3036C169.74 53.1572 169.801 53.0359 169.898 52.9396C169.994 52.8433 170.116 52.7773 170.264 52.7416C170.414 52.7063 170.581 52.7046 170.766 52.7367C170.938 52.7664 171.091 52.8188 171.227 52.894C171.362 52.967 171.471 53.06 171.553 53.173L171.389 53.4238C171.302 53.3168 171.203 53.2327 171.094 53.1713C170.985 53.1077 170.856 53.063 170.707 53.0373C170.531 53.0068 170.387 53.0195 170.273 53.0753C170.162 53.1314 170.096 53.2224 170.074 53.3481C170.057 53.4487 170.074 53.533 170.126 53.6008C170.18 53.669 170.278 53.7307 170.419 53.7857L170.78 53.9224C171.003 54.0104 171.16 54.1142 171.253 54.2338C171.345 54.3511 171.377 54.4967 171.347 54.6704C171.323 54.8099 171.264 54.9257 171.17 55.0178C171.079 55.1104 170.959 55.1745 170.812 55.2102C170.665 55.2436 170.497 55.2441 170.31 55.2117ZM171.669 55.4151L172.088 52.9971L172.925 53.1419C173.197 53.189 173.418 53.2756 173.59 53.4018C173.763 53.5284 173.882 53.6903 173.947 53.8876C174.015 54.0829 174.026 54.3098 173.981 54.5682C173.937 54.8243 173.85 55.0341 173.72 55.1978C173.593 55.3618 173.426 55.4754 173.22 55.5386C173.016 55.5999 172.778 55.607 172.506 55.5599L171.669 55.4151ZM172.078 55.1784L172.537 55.258C172.848 55.3118 173.092 55.2763 173.269 55.1515C173.449 55.0271 173.565 54.8117 173.618 54.5053C173.671 54.1989 173.633 53.9581 173.506 53.783C173.381 53.606 173.163 53.4906 172.852 53.4367L172.393 53.3572L172.078 55.1784ZM174.684 55.9367L175.051 53.8171L174.224 53.6741L174.276 53.3757L176.286 53.7235L176.234 54.0219L175.407 53.8789L175.041 55.9985L174.684 55.9367Z" fill="#C3C3C3"/>
<path d="M45.9742 49.7157L46.1565 48.6621L47.4735 48.8899L48.1102 45.2105L48.7111 45.3145L46.7537 46.044L46.9616 44.8422L48.6658 44.2045L49.5795 44.3626L48.7576 49.1121L49.9924 49.3258L49.8101 50.3794L45.9742 49.7157ZM50.6794 50.5298L50.8432 49.5832L53.0189 47.9844C53.2911 47.7828 53.4955 47.5977 53.6321 47.4292C53.7686 47.2606 53.854 47.0776 53.8882 46.88C53.9309 46.6331 53.8836 46.4328 53.7463 46.279C53.609 46.1252 53.3922 46.0227 53.0959 45.9715C52.8489 45.9287 52.5967 45.9331 52.3391 45.9846C52.0879 46.0316 51.831 46.1284 51.5682 46.2751L51.3272 45.267C51.6048 45.1002 51.9323 44.9873 52.3099 44.9283C52.6875 44.8693 53.0684 44.873 53.4525 44.9395C54.1 45.0516 54.5715 45.2829 54.8669 45.6336C55.1632 45.9788 55.2654 46.4175 55.1733 46.9498C55.1115 47.3065 54.9703 47.6325 54.7497 47.9278C54.529 48.2231 54.2035 48.52 53.7732 48.8185L52.0394 50.0191L52.0964 49.6899L54.8457 50.1656L54.6634 51.2192L50.6794 50.5298ZM57.4679 51.7978C56.771 51.6772 56.2783 51.3234 55.9898 50.7366C55.7078 50.1452 55.6495 49.3721 55.8147 48.4173C55.9827 47.4459 56.297 46.7401 56.7576 46.2999C57.2245 45.855 57.8065 45.6929 58.5034 45.8135C59.2058 45.935 59.6994 46.2833 59.9843 46.8582C60.2701 47.4276 60.3294 48.1952 60.1623 49.1611C59.9961 50.1214 59.6809 50.8327 59.2166 51.2949C58.7532 51.7517 58.1703 51.9193 57.4679 51.7978ZM57.6474 50.7606C57.9656 50.8157 58.2287 50.7001 58.4365 50.4139C58.6507 50.1232 58.8171 49.6348 58.9358 48.9488C59.0545 48.2629 59.0604 47.7552 58.9535 47.4259C58.8521 47.0975 58.6422 46.9057 58.3239 46.8507C58.0056 46.7956 57.7408 46.9052 57.5294 47.1795C57.3236 47.4547 57.1618 47.9326 57.044 48.613C56.9244 49.3045 56.9166 49.8231 57.0206 50.1689C57.1257 50.5092 57.3346 50.7065 57.6474 50.7606ZM60.3531 52.2037L60.581 50.8867L61.9145 51.1175L61.6866 52.4345L60.3531 52.2037ZM64.5418 53.0218C63.8449 52.9012 63.3522 52.5475 63.0637 51.9606C62.7817 51.3693 62.7234 50.5961 62.8886 49.6413C63.0566 48.67 63.3709 47.9642 63.8315 47.5239C64.2984 47.0791 64.8804 46.9169 65.5773 47.0375C66.2797 47.1591 66.7733 47.5073 67.0582 48.0822C67.344 48.6517 67.4033 49.4193 67.2362 50.3851C67.07 51.3454 66.7548 52.0567 66.2905 52.519C65.8271 52.9757 65.2442 53.1433 64.5418 53.0218ZM64.7213 51.9846C65.0395 52.0397 65.3026 51.9241 65.5104 51.6379C65.7246 51.3472 65.891 50.8588 66.0097 50.1729C66.1284 49.4869 66.1343 48.9793 66.0274 48.6499C65.926 48.3215 65.7161 48.1298 65.3978 48.0747C65.0795 48.0196 64.8147 48.1292 64.6033 48.4035C64.3975 48.6787 64.2357 49.1566 64.1179 49.8371C63.9983 50.5285 63.9905 51.0471 64.0945 51.3929C64.1996 51.7333 64.4085 51.9305 64.7213 51.9846ZM69.4775 53.8758C68.7805 53.7552 68.2878 53.4015 67.9994 52.8147C67.7174 52.2233 67.659 51.4502 67.8242 50.4953C67.9923 49.524 68.3066 48.8182 68.7671 48.3779C69.2341 47.9331 69.816 47.771 70.5129 47.8916C71.2154 48.0131 71.709 48.3614 71.9938 48.9363C72.2796 49.5057 72.339 50.2733 72.1719 51.2392C72.0057 52.1995 71.6904 52.9108 71.2261 53.373C70.7628 53.8298 70.1799 53.9974 69.4775 53.8758ZM69.6569 52.8387C69.9752 52.8938 70.2382 52.7782 70.446 52.492C70.6602 52.2012 70.8267 51.7129 70.9454 51.0269C71.0641 50.341 71.07 49.8333 70.963 49.504C70.8616 49.1756 70.6518 48.9838 70.3335 48.9287C70.0152 48.8737 69.7504 48.9833 69.539 49.2576C69.3331 49.5328 69.1713 50.0106 69.0536 50.6911C68.9339 51.3825 68.9261 51.9012 69.0302 52.247C69.1352 52.5873 69.3441 52.7846 69.6569 52.8387Z" fill="#C3C3C3"/>
<g clip-path="url(#clip2_809_7555)">
<rect x="101.849" y="50.5332" width="22.1607" height="10.4422" rx="1.74037" transform="rotate(9.81701 101.849 50.5332)" fill="#262626"/>
<path d="M106.925 58.0524C106.467 57.9732 106.146 57.7974 105.963 57.5249C105.782 57.253 105.731 56.8898 105.81 56.4352L106.164 54.3897L106.558 54.4578L106.207 56.4841C106.147 56.8331 106.178 57.1089 106.301 57.3115C106.425 57.5142 106.653 57.6443 106.986 57.7019C107.299 57.7562 107.553 57.7094 107.747 57.5616C107.94 57.4138 108.067 57.1654 108.128 56.8165L108.478 54.7902L108.872 54.8583L108.518 56.9038C108.44 57.3584 108.265 57.6826 107.994 57.8764C107.726 58.0707 107.37 58.1294 106.925 58.0524ZM110.202 58.6194C109.93 58.5724 109.693 58.4951 109.49 58.3875C109.288 58.28 109.118 58.1467 108.981 57.9878L109.18 57.6958C109.277 57.7984 109.377 57.8882 109.479 57.9653C109.585 58.0396 109.701 58.1026 109.827 58.1541C109.954 58.2024 110.099 58.2407 110.263 58.2689C110.547 58.3182 110.768 58.302 110.924 58.2201C111.08 58.1383 111.173 58.0094 111.203 57.8333C111.229 57.6829 111.201 57.5593 111.119 57.4627C111.037 57.366 110.88 57.2729 110.648 57.1834L110.161 56.9953C109.862 56.8775 109.648 56.7333 109.519 56.5627C109.394 56.3926 109.352 56.1843 109.395 55.9379C109.43 55.7362 109.511 55.569 109.64 55.4363C109.772 55.3041 109.939 55.2127 110.142 55.1622C110.346 55.1116 110.572 55.108 110.822 55.1512C111.062 55.1927 111.275 55.2675 111.46 55.3754C111.647 55.4802 111.798 55.6136 111.915 55.7756L111.723 56.0588C111.596 55.8983 111.454 55.7749 111.298 55.6885C111.145 55.5994 110.964 55.5369 110.756 55.5009C110.494 55.4554 110.276 55.477 110.102 55.5657C109.932 55.6517 109.831 55.7923 109.797 55.9876C109.77 56.1445 109.796 56.276 109.877 56.3823C109.958 56.4853 110.105 56.5784 110.318 56.6614L110.81 56.8503C111.125 56.974 111.347 57.1164 111.478 57.2774C111.608 57.4385 111.652 57.6406 111.61 57.8839C111.578 58.0696 111.498 58.2256 111.371 58.3519C111.247 58.4788 111.085 58.5662 110.885 58.6141C110.686 58.662 110.458 58.6638 110.202 58.6194ZM112.097 58.9028L112.682 55.5176L113.806 55.712C114.181 55.7768 114.486 55.8973 114.723 56.0734C114.96 56.2463 115.124 56.4709 115.214 56.747C115.306 57.02 115.32 57.3389 115.257 57.7038C115.194 58.0656 115.074 58.3612 114.895 58.5909C114.717 58.8205 114.487 58.9785 114.205 59.0649C113.923 59.1512 113.595 59.162 113.22 59.0972L112.097 58.9028ZM112.554 58.6308L113.25 58.7513C113.711 58.8311 114.073 58.7783 114.336 58.593C114.6 58.4045 114.77 58.0846 114.848 57.6332C114.927 57.1787 114.874 56.8199 114.688 56.5571C114.503 56.2942 114.18 56.1229 113.719 56.0432L113.023 55.9227L112.554 58.6308ZM116.294 59.6291L116.821 56.58L115.626 56.3731L115.684 56.037L118.469 56.5189L118.411 56.855L117.22 56.649L116.692 59.698L116.294 59.6291Z" fill="#C3C3C3"/>
</g>
<g clip-path="url(#clip3_809_7555)">
<rect x="127.115" y="54.9053" width="22.1607" height="10.4422" rx="1.74037" transform="rotate(9.81701 127.115 54.9053)" fill="#262626"/>
<path d="M131.698 62.3395C131.24 62.2603 130.92 62.0845 130.736 61.812C130.556 61.5401 130.505 61.1769 130.583 60.7223L130.937 58.6768L131.331 58.7449L130.98 60.7713C130.92 61.1202 130.951 61.396 131.075 61.5986C131.198 61.8013 131.426 61.9314 131.759 61.989C132.072 62.0433 132.326 61.9965 132.52 61.8487C132.714 61.7009 132.841 61.4525 132.901 61.1036L133.252 59.0773L133.645 59.1454L133.291 61.1909C133.213 61.6455 133.038 61.9697 132.767 62.1635C132.499 62.3578 132.143 62.4165 131.698 62.3395ZM134.975 62.9066C134.703 62.8595 134.466 62.7822 134.263 62.6746C134.061 62.5671 133.891 62.4339 133.754 62.2749L133.953 61.9829C134.051 62.0855 134.15 62.1754 134.252 62.2524C134.358 62.3267 134.474 62.3897 134.601 62.4412C134.727 62.4895 134.872 62.5278 135.036 62.556C135.321 62.6053 135.541 62.5891 135.697 62.5073C135.853 62.4254 135.946 62.2965 135.977 62.1204C136.003 61.97 135.974 61.8464 135.892 61.7498C135.81 61.6531 135.653 61.56 135.421 61.4705L134.935 61.2824C134.635 61.1647 134.421 61.0205 134.292 60.8498C134.167 60.6797 134.125 60.4715 134.168 60.225C134.203 60.0233 134.285 59.8561 134.413 59.7234C134.545 59.5912 134.712 59.4998 134.916 59.4493C135.119 59.3987 135.345 59.3951 135.595 59.4383C135.835 59.4798 136.048 59.5546 136.234 59.6625C136.42 59.7673 136.572 59.9007 136.689 60.0627L136.496 60.3459C136.369 60.1854 136.227 60.062 136.071 59.9756C135.918 59.8865 135.738 59.824 135.53 59.788C135.267 59.7425 135.049 59.7642 134.875 59.8528C134.706 59.9388 134.604 60.0795 134.57 60.2747C134.543 60.4316 134.569 60.5631 134.65 60.6694C134.731 60.7724 134.878 60.8655 135.091 60.9485L135.583 61.1374C135.898 61.2611 136.12 61.4035 136.251 61.5645C136.381 61.7256 136.425 61.9277 136.383 62.171C136.351 62.3567 136.271 62.5127 136.144 62.639C136.02 62.7659 135.858 62.8533 135.658 62.9012C135.459 62.9491 135.231 62.9509 134.975 62.9066ZM136.87 63.1899L137.456 59.8047L138.579 59.9991C138.954 60.064 139.259 60.1844 139.496 60.3605C139.733 60.5334 139.897 60.758 139.988 61.0341C140.079 61.3071 140.093 61.626 140.03 61.9909C139.967 62.3527 139.847 62.6483 139.669 62.878C139.49 63.1076 139.26 63.2656 138.978 63.352C138.696 63.4384 138.368 63.4491 137.993 63.3843L136.87 63.1899ZM137.327 62.918L138.024 63.0384C138.485 63.1182 138.846 63.0654 139.109 62.8801C139.373 62.6916 139.543 62.3717 139.622 61.9203C139.7 61.4658 139.647 61.1071 139.462 60.8442C139.276 60.5814 138.953 60.41 138.492 60.3303L137.796 60.2098L137.327 62.918ZM141.924 64.1089C141.584 64.0502 141.308 63.9299 141.096 63.7481C140.883 63.5662 140.736 63.3346 140.652 63.0532C140.572 62.7723 140.563 62.4526 140.625 62.094C140.687 61.7355 140.803 61.439 140.972 61.2045C141.145 60.9674 141.362 60.7989 141.623 60.699C141.885 60.5992 142.185 60.5786 142.524 60.6373C142.764 60.6788 142.973 60.7528 143.149 60.8591C143.325 60.9654 143.471 61.1011 143.588 61.2664L143.384 61.5575C143.253 61.3965 143.118 61.2725 142.978 61.1857C142.839 61.0956 142.669 61.0332 142.467 60.9983C142.08 60.9312 141.764 61.0003 141.521 61.2055C141.278 61.4107 141.119 61.731 141.043 62.1663C140.968 62.6017 141.01 62.9584 141.17 63.2366C141.33 63.5116 141.603 63.6826 141.991 63.7496C142.192 63.7845 142.374 63.7846 142.535 63.7498C142.696 63.7118 142.866 63.6373 143.043 63.5262L143.136 63.8737C142.972 63.987 142.788 64.0657 142.586 64.1098C142.385 64.1508 142.164 64.1505 141.924 64.1089Z" fill="#C3C3C3"/>
</g>
<rect x="152.381" y="59.2769" width="22.1607" height="10.4422" rx="1.74037" transform="rotate(9.81701 152.381 59.2769)" fill="#262626"/>
<path d="M158.704 67.012C158.432 66.965 158.195 66.8877 157.993 66.7801C157.791 66.6726 157.621 66.5393 157.483 66.3804L157.682 66.0884C157.78 66.191 157.88 66.2808 157.982 66.3578C158.088 66.4322 158.204 66.4951 158.33 66.5467C158.457 66.595 158.602 66.6333 158.765 66.6615C159.05 66.7108 159.27 66.6946 159.426 66.6127C159.582 66.5309 159.675 66.402 159.706 66.2259C159.732 66.0755 159.704 65.9519 159.622 65.8553C159.539 65.7586 159.382 65.6655 159.151 65.576L158.664 65.3879C158.365 65.2701 158.15 65.1259 158.022 64.9553C157.896 64.7852 157.855 64.5769 157.897 64.3304C157.932 64.1288 158.014 63.9616 158.142 63.8289C158.274 63.6967 158.442 63.6053 158.645 63.5548C158.848 63.5042 159.075 63.5005 159.324 63.5438C159.564 63.5853 159.777 63.66 159.963 63.768C160.149 63.8728 160.301 64.0062 160.418 64.1682L160.226 64.4514C160.098 64.2909 159.957 64.1675 159.8 64.0811C159.647 63.992 159.467 63.9294 159.259 63.8934C158.996 63.848 158.778 63.8696 158.605 63.9583C158.435 64.0443 158.333 64.1849 158.299 64.3802C158.272 64.5371 158.299 64.6686 158.379 64.7749C158.46 64.8779 158.608 64.9709 158.821 65.054L159.312 65.2429C159.627 65.3666 159.85 65.509 159.98 65.67C160.11 65.8311 160.155 66.0332 160.113 66.2765C160.08 66.4622 160.001 66.6182 159.873 66.7445C159.749 66.8714 159.587 66.9588 159.388 67.0067C159.188 67.0546 158.96 67.0564 158.704 67.012ZM160.768 65.5788C160.83 65.2203 160.944 64.9235 161.11 64.6884C161.279 64.4508 161.492 64.2814 161.746 64.1805C162.004 64.0801 162.297 64.0581 162.623 64.1146C162.94 64.1694 163.203 64.2875 163.413 64.4688C163.622 64.6501 163.767 64.8811 163.847 65.162C163.93 65.4403 163.941 65.7571 163.88 66.1124C163.818 66.4709 163.7 66.7688 163.528 67.0059C163.355 67.243 163.139 67.4134 162.88 67.517C162.625 67.618 162.339 67.641 162.023 67.5862C161.696 67.5297 161.43 67.4111 161.224 67.2304C161.018 67.0464 160.875 66.814 160.795 66.5331C160.715 66.2522 160.706 65.9341 160.768 65.5788ZM161.185 65.6511C161.11 66.0864 161.147 66.444 161.296 66.7237C161.446 67.0002 161.709 67.1709 162.083 67.2357C162.442 67.2977 162.741 67.2243 162.982 67.0153C163.226 66.8037 163.386 66.4803 163.461 66.0449C163.537 65.6064 163.497 65.2499 163.34 64.9754C163.183 64.6978 162.924 64.5277 162.563 64.4651C162.188 64.4003 161.884 64.4729 161.65 64.683C161.416 64.8898 161.261 65.2125 161.185 65.6511ZM164.308 67.9372L164.894 64.552L165.293 64.621L164.767 67.6604L166.476 67.9562L166.416 68.302L164.308 67.9372Z" fill="#C3C3C3"/>
</g>
<g clip-path="url(#clip4_809_7555)">
<rect x="36.21" y="60.3701" width="143.406" height="29.5863" rx="3.48074" transform="rotate(9.81701 36.21 60.3701)" fill="#1B1B1B"/>
<path d="M43.09 72.7298C42.7507 72.6711 42.4748 72.5508 42.2622 72.369C42.0497 72.1872 41.9019 71.9555 41.8187 71.6741C41.7387 71.3932 41.7298 71.0735 41.7918 70.7149C41.8538 70.3564 41.9694 70.0599 42.1386 69.8254C42.3115 69.5883 42.5286 69.4198 42.7898 69.3199C43.0511 69.2201 43.3514 69.1995 43.6907 69.2582C43.9308 69.2998 44.1389 69.3737 44.315 69.48C44.4911 69.5863 44.6374 69.7221 44.7539 69.8873L44.5502 70.1784C44.4198 70.0174 44.2847 69.8935 44.1448 69.8066C44.0054 69.7165 43.8349 69.6541 43.6332 69.6192C43.2459 69.5521 42.9306 69.6212 42.6874 69.8264C42.4442 70.0316 42.2849 70.3519 42.2095 70.7872C42.1342 71.2226 42.1763 71.5793 42.3359 71.8575C42.496 72.1325 42.7698 72.3035 43.1571 72.3705C43.3588 72.4054 43.5401 72.4055 43.7011 72.3707C43.8626 72.3327 44.0321 72.2582 44.2096 72.1471L44.3028 72.4946C44.1381 72.6079 43.9547 72.6866 43.7525 72.7307C43.5509 72.7717 43.3301 72.7714 43.09 72.7298ZM45.6534 73.1734C45.3685 73.1241 45.166 73.0083 45.0459 72.8259C44.929 72.6442 44.8985 72.3916 44.9544 72.0683L45.2136 70.5702L45.6026 70.6375L45.345 72.126C45.3068 72.3469 45.3234 72.5179 45.3947 72.639C45.4666 72.757 45.597 72.8323 45.7859 72.865C45.9971 72.9015 46.1787 72.8621 46.3306 72.7466C46.4824 72.6311 46.5783 72.4581 46.6182 72.2276L46.8558 70.8543L47.2448 70.9216L46.8277 73.3321L46.4483 73.2664L46.5422 72.7238L46.6046 72.7346C46.5053 72.9087 46.3715 73.0339 46.2033 73.1103C46.0384 73.1873 45.855 73.2083 45.6534 73.1734ZM47.5726 73.461L47.8892 71.6315C47.9058 71.5355 47.9195 71.4373 47.9303 71.337C47.9442 71.2372 47.9545 71.14 47.9609 71.0455L48.3354 71.1104L48.2821 71.7045L48.214 71.6976C48.271 71.5591 48.3475 71.4504 48.4436 71.3714C48.5397 71.2924 48.646 71.2399 48.7626 71.2139C48.8798 71.1848 48.9976 71.1804 49.116 71.2009C49.164 71.2092 49.2053 71.218 49.24 71.2273C49.2779 71.2372 49.3117 71.2513 49.3415 71.2696L49.2769 71.6145C49.2316 71.5902 49.1885 71.5728 49.1474 71.5624C49.1101 71.5494 49.0658 71.5384 49.0146 71.5295C48.8738 71.5052 48.7447 71.5175 48.6274 71.5664C48.5134 71.6159 48.42 71.6888 48.3473 71.785C48.2778 71.8818 48.2328 71.9894 48.2123 72.1078L47.9664 73.5291L47.5726 73.461ZM49.317 73.7628L49.6336 71.9334C49.6502 71.8373 49.6639 71.7392 49.6746 71.6388C49.6886 71.539 49.6988 71.4419 49.7053 71.3474L50.0798 71.4122L50.0265 72.0063L49.9584 71.9995C50.0153 71.861 50.0919 71.7522 50.1879 71.6732C50.284 71.5942 50.3904 71.5418 50.507 71.5158C50.6241 71.4866 50.7419 71.4823 50.8604 71.5027C50.9084 71.5111 50.9497 71.5199 50.9844 71.5291C51.0222 71.539 51.0561 71.5531 51.0858 71.5714L51.0212 71.9163C50.976 71.892 50.9328 71.8747 50.8918 71.8643C50.8545 71.8512 50.8102 71.8402 50.759 71.8314C50.6181 71.807 50.4891 71.8193 50.3718 71.8682C50.2577 71.9177 50.1644 71.9906 50.0917 72.0868C50.0222 72.1836 49.9772 72.2912 49.9567 72.4096L49.7107 73.8309L49.317 73.7628ZM52.1061 74.2899C51.7284 74.2246 51.4495 74.0642 51.2695 73.8089C51.09 73.5503 51.0341 73.2258 51.1017 72.8353C51.1454 72.5824 51.2314 72.3714 51.3596 72.2024C51.4883 72.0301 51.6479 71.9077 51.8385 71.8352C52.0297 71.7595 52.2373 71.741 52.4613 71.7798C52.6822 71.818 52.8598 71.8965 52.9942 72.0154C53.1286 72.1343 53.2209 72.2871 53.271 72.4738C53.3217 72.6573 53.3268 72.8659 53.2864 73.0995L53.2614 73.2436L51.3936 72.9204L51.4359 72.6755L53.0493 72.9547L52.9569 73.003C53.0012 72.7469 52.9782 72.5368 52.8879 72.3729C52.7976 72.2089 52.6388 72.1072 52.4115 72.0679C52.1714 72.0263 51.9695 72.0788 51.8057 72.2252C51.6424 72.3683 51.5361 72.5824 51.4868 72.8673L51.4794 72.9105C51.4273 73.2114 51.4613 73.453 51.5814 73.6354C51.7053 73.8151 51.9017 73.9282 52.1706 73.9747C52.3146 73.9996 52.4527 74.0021 52.5847 73.9821C52.7205 73.9594 52.8546 73.9084 52.987 73.8291L53.0741 74.1261C52.9507 74.2102 52.8024 74.267 52.6292 74.2964C52.4597 74.3231 52.2854 74.321 52.1061 74.2899ZM53.6547 74.5134L53.9754 72.6599C53.9909 72.5703 54.0019 72.4782 54.0083 72.3837C54.0186 72.2866 54.0269 72.1908 54.0334 72.0963L54.4079 72.1611L54.3645 72.6976L54.3069 72.6876C54.4094 72.5141 54.5458 72.3927 54.7161 72.3232C54.8901 72.2511 55.0796 72.2328 55.2845 72.2683C55.5694 72.3176 55.7705 72.4315 55.888 72.6101C56.0092 72.786 56.0416 73.0372 55.9851 73.3638L55.7242 74.8715L55.3353 74.8042L55.592 73.3205C55.6313 73.0932 55.6134 72.9203 55.5383 72.8018C55.467 72.6807 55.3353 72.6035 55.1432 72.5702C54.9191 72.5315 54.7295 72.5695 54.5745 72.6845C54.4194 72.7994 54.3219 72.9721 54.2821 73.2026L54.0436 74.5807L53.6547 74.5134ZM57.3154 75.1913C57.0785 75.1503 56.9093 75.0518 56.8077 74.8958C56.7067 74.7365 56.68 74.5192 56.7276 74.2439L56.9577 72.9139L56.4872 72.8325L56.5395 72.53L57.0101 72.6114L57.1239 71.9535L57.532 71.9104L57.399 72.6787L58.0905 72.7983L58.0381 73.1008L57.3467 72.9812L57.124 74.268C57.0908 74.4601 57.099 74.6033 57.1486 74.6976C57.202 74.7893 57.2943 74.8464 57.4255 74.8692C57.4863 74.8797 57.5416 74.8843 57.5913 74.883C57.6415 74.8785 57.6872 74.8716 57.7284 74.8622L57.6719 75.1887C57.6238 75.2002 57.5668 75.2052 57.5012 75.2037C57.4381 75.206 57.3762 75.2019 57.3154 75.1913ZM59.3893 75.5057L59.7058 73.6762C59.7224 73.5802 59.7361 73.482 59.7469 73.3817C59.7609 73.2819 59.7711 73.1847 59.7775 73.0902L60.1521 73.1551L60.0987 73.7492L60.0307 73.7423C60.0876 73.6038 60.1641 73.4951 60.2602 73.4161C60.3563 73.3371 60.4627 73.2846 60.5792 73.2586C60.6964 73.2295 60.8142 73.2251 60.9326 73.2456C60.9806 73.2539 61.022 73.2627 61.0566 73.272C61.0945 73.2819 61.1283 73.296 61.1581 73.3143L61.0935 73.6592C61.0482 73.6349 61.0051 73.6175 60.964 73.6071C60.9267 73.5941 60.8825 73.5831 60.8313 73.5742C60.6904 73.5499 60.5613 73.5622 60.4441 73.6111C60.33 73.6606 60.2366 73.7335 60.1639 73.8297C60.0944 73.9265 60.0494 74.0341 60.0289 74.1525L59.783 75.5738L59.3893 75.5057ZM62.0294 76.007C61.815 75.9699 61.6363 75.8879 61.4934 75.761C61.3511 75.6308 61.2511 75.4652 61.1936 75.264C61.1393 75.0634 61.1346 74.8334 61.1795 74.5741C61.2249 74.3116 61.3069 74.095 61.4254 73.9243C61.5472 73.7542 61.6967 73.6333 61.8739 73.5618C62.0511 73.4903 62.247 73.473 62.4615 73.5102C62.6791 73.5478 62.8567 73.6362 62.9942 73.7754C63.1354 73.912 63.2153 74.0791 63.2338 74.2768L63.1762 74.2668L63.3279 73.7046L63.7024 73.7694C63.6768 73.8606 63.6508 73.9533 63.6246 74.0477C63.6021 74.1394 63.5831 74.2301 63.5676 74.3197L63.2469 76.1732L62.858 76.1059L62.956 75.5393L63.0089 75.5484C62.925 75.7284 62.7936 75.859 62.6147 75.9401C62.4358 76.0213 62.2407 76.0436 62.0294 76.007ZM62.1611 75.7034C62.3916 75.7433 62.5876 75.6964 62.7492 75.5628C62.9113 75.4261 63.0187 75.2056 63.0713 74.9015C63.1245 74.5942 63.0974 74.3505 62.9901 74.1704C62.8834 73.987 62.7148 73.8754 62.4843 73.8356C62.257 73.7962 62.0607 73.8447 61.8954 73.9809C61.7338 74.1145 61.6264 74.335 61.5732 74.6423C61.5206 74.9464 61.5477 75.1901 61.6544 75.3734C61.7649 75.5541 61.9338 75.6641 62.1611 75.7034ZM64.8461 76.4944C64.6093 76.4534 64.44 76.3549 64.3384 76.1989C64.2374 76.0396 64.2107 75.8223 64.2584 75.547L64.4885 74.217L64.0179 74.1355L64.0703 73.833L64.5408 73.9145L64.6547 73.2566L65.0627 73.2135L64.9298 73.9818L65.6212 74.1014L65.5689 74.4039L64.8774 74.2843L64.6548 75.5711C64.6215 75.7632 64.6297 75.9064 64.6793 76.0007C64.7327 76.0923 64.825 76.1495 64.9563 76.1722C65.0171 76.1828 65.0724 76.1874 65.122 76.1861C65.1723 76.1816 65.218 76.1747 65.2592 76.1653L65.2027 76.4918C65.1545 76.5033 65.0976 76.5083 65.0319 76.5068C64.9689 76.5091 64.907 76.5049 64.8461 76.4944ZM66.7175 76.8182C66.3397 76.7529 66.0609 76.5925 65.8809 76.3372C65.7014 76.0786 65.6455 75.7541 65.713 75.3636C65.7568 75.1107 65.8428 74.8997 65.9709 74.7306C66.0996 74.5584 66.2593 74.436 66.4499 74.3635C66.641 74.2878 66.8486 74.2693 67.0727 74.3081C67.2936 74.3463 67.4712 74.4248 67.6056 74.5437C67.74 74.6626 67.8322 74.8153 67.8824 75.002C67.933 75.1856 67.9381 75.3942 67.8977 75.6278L67.8728 75.7719L66.0049 75.4487L66.0473 75.2038L67.6607 75.483L67.5682 75.5313C67.6126 75.2752 67.5896 75.0651 67.4992 74.9011C67.4089 74.7371 67.2501 74.6355 67.0228 74.5962C66.7828 74.5546 66.5808 74.607 66.417 74.7534C66.2538 74.8966 66.1475 75.1107 66.0982 75.3956L66.0907 75.4388C66.0386 75.7397 66.0727 75.9813 66.1928 76.1637C66.3166 76.3433 66.513 76.4564 66.7819 76.503C66.926 76.5279 67.064 76.5304 67.1961 76.5103C67.3319 76.4877 67.466 76.4367 67.5984 76.3574L67.6855 76.6544C67.5621 76.7385 67.4138 76.7953 67.2406 76.8247C67.0711 76.8514 66.8967 76.8492 66.7175 76.8182Z" fill="#C3C3C3"/>
<path d="M115.203 85.1636L115.262 84.8227L116.06 84.9607L116.527 82.2573L116.739 82.2939L115.706 82.7137L115.775 82.3151L116.697 81.9355L116.985 81.9853L116.458 85.0296L117.207 85.1592L117.148 85.5001L115.203 85.1636ZM120.475 86.1203C120.017 86.0411 119.696 85.8652 119.513 85.5928C119.332 85.3209 119.281 84.9576 119.36 84.5031L119.714 82.4576L120.108 82.5257L119.757 84.552C119.697 84.9009 119.728 85.1767 119.851 85.3794C119.974 85.582 120.202 85.7121 120.535 85.7698C120.849 85.824 121.103 85.7773 121.296 85.6295C121.49 85.4816 121.617 85.2333 121.678 84.8844L122.028 82.858L122.422 82.9262L122.068 84.9717C121.989 85.4263 121.815 85.7504 121.544 85.9442C121.276 86.1386 120.92 86.1973 120.475 86.1203ZM123.752 86.6873C123.48 86.6402 123.242 86.5629 123.04 86.4554C122.838 86.3478 122.668 86.2146 122.531 86.0557L122.73 85.7637C122.827 85.8663 122.927 85.9561 123.029 86.0331C123.135 86.1075 123.251 86.1704 123.377 86.2219C123.504 86.2703 123.649 86.3085 123.812 86.3368C124.097 86.3861 124.318 86.3698 124.474 86.288C124.63 86.2062 124.723 86.0772 124.753 85.9012C124.779 85.7507 124.751 85.6272 124.669 85.5305C124.587 85.4339 124.43 85.3408 124.198 85.2512L123.711 85.0632C123.412 84.9454 123.198 84.8012 123.069 84.6306C122.944 84.4605 122.902 84.2522 122.945 84.0057C122.98 83.804 123.061 83.6368 123.19 83.5041C123.321 83.3719 123.489 83.2806 123.692 83.23C123.895 83.1795 124.122 83.1758 124.372 83.219C124.612 83.2606 124.825 83.3353 125.01 83.4433C125.197 83.5481 125.348 83.6814 125.465 83.8435L125.273 84.1267C125.146 83.9662 125.004 83.8427 124.847 83.7563C124.695 83.6673 124.514 83.6047 124.306 83.5687C124.044 83.5233 123.826 83.5449 123.652 83.6336C123.482 83.7196 123.38 83.8602 123.347 84.0555C123.319 84.2123 123.346 84.3439 123.427 84.4501C123.508 84.5532 123.655 84.6462 123.868 84.7292L124.359 84.9182C124.674 85.0419 124.897 85.1843 125.027 85.3453C125.158 85.5063 125.202 85.7085 125.16 85.9518C125.128 86.1374 125.048 86.2934 124.921 86.4198C124.796 86.5466 124.635 86.634 124.435 86.6819C124.236 86.7298 124.008 86.7316 123.752 86.6873ZM125.646 86.9707L126.232 83.5855L127.356 83.7799C127.73 83.8447 128.036 83.9652 128.272 84.1413C128.51 84.3142 128.674 84.5387 128.764 84.8149C128.855 85.0878 128.869 85.4068 128.806 85.7717C128.744 86.1334 128.623 86.4291 128.445 86.6587C128.267 86.8883 128.037 87.0463 127.755 87.1327C127.473 87.2191 127.145 87.2299 126.77 87.1651L125.646 86.9707ZM126.104 86.6987L126.8 86.8192C127.261 86.8989 127.623 86.8462 127.886 86.6609C128.149 86.4724 128.32 86.1524 128.398 85.7011C128.477 85.2465 128.424 84.8878 128.238 84.625C128.053 84.3621 127.73 84.1908 127.269 84.111L126.573 83.9906L126.104 86.6987ZM129.844 87.6969L130.371 84.6479L129.176 84.441L129.234 84.1049L132.019 84.5868L131.961 84.9229L130.77 84.7168L130.242 87.7659L129.844 87.6969ZM135.016 87.0242C134.932 87.0098 134.845 86.9798 134.754 86.9344C134.667 86.8863 134.561 86.8136 134.436 86.7161C134.321 86.6204 134.23 86.5552 134.163 86.5206C134.1 86.4833 134.042 86.46 133.987 86.4506C133.808 86.4196 133.656 86.5003 133.53 86.6929L133.308 86.5209C133.398 86.3783 133.503 86.2762 133.623 86.2144C133.743 86.1495 133.873 86.1292 134.014 86.1535C134.097 86.1679 134.181 86.1989 134.265 86.2464C134.35 86.2907 134.455 86.36 134.58 86.4543C134.694 86.5399 134.783 86.6048 134.848 86.649C134.916 86.6937 134.981 86.7214 135.042 86.7319C135.221 86.7629 135.373 86.6806 135.5 86.4848L135.721 86.6616C135.631 86.8042 135.526 86.9063 135.406 86.9681C135.287 87.0298 135.157 87.0485 135.016 87.0242ZM134.849 87.9845C134.766 87.9701 134.679 87.9402 134.588 87.8948C134.501 87.8467 134.395 87.7739 134.27 87.6765C134.154 87.5807 134.064 87.5155 133.997 87.4809C133.934 87.4437 133.876 87.4203 133.821 87.4109C133.642 87.3799 133.489 87.4607 133.364 87.6532L133.141 87.4812C133.232 87.3386 133.337 87.2365 133.457 87.1747C133.577 87.1098 133.707 87.0895 133.848 87.1139C133.931 87.1283 134.015 87.1592 134.099 87.2068C134.183 87.2511 134.289 87.3204 134.414 87.4146C134.528 87.5002 134.617 87.5651 134.682 87.6093C134.75 87.6541 134.815 87.6817 134.875 87.6922C135.055 87.7233 135.207 87.6409 135.334 87.4451L135.555 87.6219C135.465 87.7645 135.359 87.8667 135.24 87.9284C135.121 87.9902 134.99 88.0089 134.849 87.9845ZM137.491 89.0202L137.55 88.6793L138.347 88.8172L138.815 86.1138L139.026 86.1504L137.994 86.5702L138.063 86.1717L138.984 85.792L139.272 85.8419L138.746 88.8861L139.495 89.0158L139.436 89.3567L137.491 89.0202ZM140.17 90.0475L140.011 89.8767C140.113 89.802 140.184 89.7268 140.223 89.6513C140.266 89.5794 140.294 89.5035 140.307 89.4234L140.38 89.52L140.063 89.4652L140.147 88.9754L140.637 89.0602L140.577 89.4059C140.555 89.5339 140.514 89.6504 140.453 89.7552C140.391 89.8633 140.297 89.9607 140.17 90.0475ZM142.396 89.9135C141.987 89.8426 141.695 89.6437 141.52 89.3168C141.35 88.9873 141.31 88.5617 141.4 88.0399C141.468 87.6493 141.581 87.3293 141.739 87.0798C141.898 86.8271 142.094 86.6483 142.327 86.5435C142.559 86.4386 142.823 86.4117 143.117 86.4626C143.293 86.4931 143.464 86.5607 143.631 86.6653C143.798 86.7668 143.928 86.8915 144.021 87.0395L143.824 87.3218C143.724 87.1759 143.607 87.0617 143.473 86.9792C143.339 86.8934 143.199 86.8378 143.052 86.8123C142.725 86.7558 142.454 86.8292 142.237 87.0324C142.024 87.233 141.878 87.5654 141.797 88.0295L141.72 88.4761L141.677 88.4686C141.731 88.29 141.813 88.1426 141.922 88.0263C142.035 87.9073 142.169 87.8251 142.325 87.7796C142.482 87.7341 142.648 87.7266 142.824 87.7571C143.029 87.7925 143.202 87.8686 143.343 87.9854C143.484 88.1022 143.586 88.2499 143.647 88.4287C143.709 88.6043 143.722 88.7961 143.686 89.0042C143.65 89.2154 143.57 89.3963 143.449 89.5467C143.327 89.6971 143.175 89.8059 142.992 89.8731C142.809 89.9371 142.611 89.9506 142.396 89.9135ZM142.426 89.5724C142.573 89.5979 142.708 89.5899 142.83 89.5485C142.957 89.5044 143.06 89.4316 143.14 89.3301C143.224 89.2259 143.279 89.1002 143.304 88.9529C143.33 88.8057 143.32 88.6705 143.276 88.5474C143.234 88.4248 143.161 88.3216 143.057 88.2376C142.956 88.1542 142.832 88.0997 142.685 88.0743C142.538 88.0488 142.402 88.0584 142.279 88.103C142.156 88.1476 142.053 88.2204 141.97 88.3214C141.889 88.4229 141.836 88.5473 141.811 88.6945C141.785 88.8418 141.793 88.9783 141.834 89.1041C141.879 89.2272 141.952 89.3304 142.052 89.4139C142.154 89.4941 142.278 89.5469 142.426 89.5724ZM145.165 90.3926C144.781 90.3261 144.512 90.1263 144.359 89.7931C144.205 89.46 144.177 89.0117 144.275 88.4483C144.373 87.8817 144.55 87.4689 144.806 87.2098C145.062 86.9508 145.382 86.8545 145.766 86.921C146.153 86.988 146.422 87.1862 146.573 87.5156C146.727 87.8455 146.755 88.2922 146.657 88.8556C146.559 89.4222 146.382 89.8366 146.126 90.0989C145.869 90.3611 145.549 90.459 145.165 90.3926ZM145.225 90.0469C145.494 90.0934 145.713 90.0144 145.884 89.8098C146.055 89.6052 146.181 89.2645 146.264 88.7875C146.347 88.3073 146.342 87.9454 146.249 87.7019C146.156 87.4551 145.976 87.3084 145.707 87.2619C145.441 87.2159 145.222 87.2933 145.048 87.4941C144.878 87.6955 144.752 88.0347 144.669 88.5116C144.587 88.9886 144.592 89.3521 144.684 89.6021C144.779 89.8526 144.959 90.0009 145.225 90.0469ZM148.044 90.8908C147.66 90.8243 147.391 90.6245 147.238 90.2913C147.085 89.9582 147.057 89.5099 147.154 88.9465C147.252 88.3799 147.429 87.9671 147.685 87.708C147.941 87.449 148.261 87.3527 148.645 87.4192C149.032 87.4862 149.301 87.6844 149.452 88.0138C149.606 88.3437 149.634 88.7904 149.537 89.3538C149.438 89.9204 149.261 90.3348 149.005 90.5971C148.748 90.8593 148.428 90.9572 148.044 90.8908ZM148.104 90.545C148.373 90.5916 148.593 90.5126 148.763 90.308C148.934 90.1034 149.06 89.7626 149.143 89.2857C149.226 88.8055 149.221 88.4436 149.128 88.2C149.035 87.9533 148.855 87.8066 148.586 87.7601C148.32 87.7141 148.101 87.7915 147.927 87.9923C147.757 88.1937 147.631 88.5329 147.549 89.0098C147.466 89.4868 147.471 89.8503 147.563 90.1003C147.658 90.3508 147.838 90.4991 148.104 90.545ZM149.793 91.1488L149.877 90.6591L150.367 90.7438L150.282 91.2336L149.793 91.1488ZM152.016 91.578C151.632 91.5115 151.363 91.3117 151.21 90.9786C151.056 90.6454 151.028 90.1971 151.126 89.6337C151.224 89.0672 151.401 88.6543 151.657 88.3953C151.912 88.1362 152.232 88.0399 152.617 88.1064C153.004 88.1734 153.273 88.3716 153.424 88.701C153.577 89.031 153.606 89.4777 153.508 90.0411C153.41 90.6077 153.233 91.0221 152.977 91.2843C152.72 91.5466 152.4 91.6445 152.016 91.578ZM152.076 91.2323C152.345 91.2788 152.564 91.1998 152.735 90.9952C152.905 90.7907 153.032 90.4499 153.114 89.9729C153.198 89.4928 153.193 89.1309 153.1 88.8873C153.007 88.6405 152.826 88.4938 152.558 88.4473C152.292 88.4013 152.072 88.4788 151.899 88.6796C151.729 88.8809 151.603 89.2201 151.52 89.6971C151.438 90.174 151.442 90.5375 151.534 90.7875C151.63 91.0381 151.81 91.1863 152.076 91.2323ZM154.895 92.0762C154.511 92.0097 154.242 91.8099 154.089 91.4768C153.935 91.1436 153.907 90.6953 154.005 90.1319C154.103 89.5653 154.28 89.1525 154.536 88.8935C154.792 88.6344 155.112 88.5381 155.496 88.6046C155.883 88.6716 156.152 88.8698 156.303 89.1992C156.457 89.5292 156.485 89.9759 156.387 90.5392C156.289 91.1058 156.112 91.5203 155.856 91.7825C155.599 92.0448 155.279 92.1427 154.895 92.0762ZM154.955 91.7305C155.224 91.777 155.443 91.698 155.614 91.4934C155.785 91.2889 155.911 90.9481 155.994 90.4711C156.077 89.9909 156.072 89.6291 155.979 89.3855C155.886 89.1387 155.706 88.992 155.437 88.9455C155.171 88.8995 154.952 88.977 154.778 89.1778C154.608 89.3791 154.482 89.7183 154.399 90.1953C154.317 90.6722 154.322 91.0357 154.414 91.2857C154.509 91.5362 154.689 91.6845 154.955 91.7305ZM158.016 92.5717L158.601 89.1865L158.913 89.2405L160.585 92.4971L160.475 92.4779L160.973 89.5969L161.343 89.6609L160.757 93.0461L160.45 92.9929L158.778 89.7364L158.884 89.7546L158.385 92.6357L158.016 92.5717ZM163.151 93.5048C162.78 93.4406 162.481 93.318 162.255 93.1371C162.029 92.9563 161.876 92.7254 161.796 92.4445C161.716 92.1636 161.708 91.8423 161.77 91.4806C161.832 91.1221 161.952 90.8245 162.128 90.5879C162.304 90.3514 162.527 90.184 162.798 90.0858C163.069 89.9876 163.379 89.9687 163.728 90.029C163.974 90.0717 164.181 90.1453 164.347 90.25C164.518 90.352 164.663 90.4859 164.782 90.6516L164.579 90.938C164.49 90.8269 164.4 90.7355 164.31 90.6639C164.224 90.5929 164.13 90.5354 164.029 90.4916C163.928 90.4445 163.807 90.4087 163.666 90.3844C163.266 90.3151 162.938 90.3836 162.681 90.5898C162.428 90.7933 162.264 91.1159 162.187 91.5577C162.11 92.0026 162.154 92.3613 162.318 92.6336C162.485 92.9065 162.786 93.0806 163.221 93.1559C163.381 93.1836 163.536 93.1955 163.685 93.1917C163.838 93.1851 163.988 93.165 164.136 93.1312L164.012 93.3323L164.218 92.1415L163.353 91.9919L163.407 91.6798L164.613 91.8883L164.341 93.4585C164.191 93.5083 164.006 93.5373 163.787 93.5456C163.571 93.5544 163.359 93.5408 163.151 93.5048ZM165.115 93.8001L165.701 90.4149L166.013 90.4689L167.685 93.7255L167.574 93.7064L168.073 90.8254L168.442 90.8894L167.857 94.2745L167.549 94.2214L165.878 90.9648L165.983 90.9831L165.485 93.8641L165.115 93.8001Z" fill="#C3C3C3"/>
<path d="M41.3097 83.0189C40.9704 82.9602 40.6945 82.8399 40.482 82.6581C40.2695 82.4762 40.1216 82.2446 40.0384 81.9631C39.9585 81.6822 39.9495 81.3625 40.0115 81.004C40.0736 80.6455 40.1892 80.349 40.3583 80.1145C40.5312 79.8774 40.7483 79.7089 41.0096 79.609C41.2708 79.5091 41.5711 79.4886 41.9104 79.5473C42.1505 79.5888 42.3586 79.6627 42.5347 79.769C42.7109 79.8754 42.8572 80.0111 42.9737 80.1763L42.77 80.4675C42.6396 80.3065 42.5044 80.1825 42.3645 80.0957C42.2251 80.0056 42.0546 79.9431 41.8529 79.9082C41.4656 79.8412 41.1503 79.9103 40.9071 80.1155C40.6639 80.3207 40.5046 80.6409 40.4293 81.0763C40.3539 81.5116 40.3961 81.8684 40.5556 82.1466C40.7158 82.4216 40.9895 82.5926 41.3768 82.6596C41.5785 82.6945 41.7598 82.6945 41.9208 82.6598C42.0823 82.6218 42.2518 82.5472 42.4293 82.4362L42.5225 82.7837C42.3578 82.8969 42.1744 82.9756 41.9723 83.0198C41.7706 83.0607 41.5498 83.0604 41.3097 83.0189ZM43.8951 83.4663C43.6646 83.4264 43.4716 83.3419 43.3159 83.2127C43.1639 83.0809 43.0576 82.9142 42.9969 82.7124C42.9368 82.5075 42.9288 82.277 42.9731 82.0209C43.018 81.7616 43.1029 81.5472 43.2279 81.3776C43.3528 81.208 43.5087 81.0882 43.6956 81.0183C43.8862 80.9458 44.0967 80.9295 44.3272 80.9694C44.5609 81.0098 44.7537 81.0959 44.9056 81.2277C45.0613 81.3569 45.1695 81.5223 45.2302 81.724C45.2941 81.9263 45.3036 82.1571 45.2587 82.4164C45.2144 82.6725 45.1279 82.8867 44.9992 83.0589C44.8742 83.2285 44.7165 83.3496 44.5259 83.4221C44.3391 83.492 44.1288 83.5067 43.8951 83.4663ZM43.95 83.1493C44.1804 83.1892 44.3765 83.1424 44.5381 83.0088C44.7002 82.872 44.8076 82.6515 44.8602 82.3474C44.9134 82.0401 44.8847 81.7961 44.7742 81.6155C44.6675 81.4321 44.5004 81.3208 44.2732 81.2815C44.0459 81.2422 43.8512 81.2909 43.689 81.4277C43.5274 81.5613 43.4201 81.7817 43.3669 82.089C43.3143 82.3931 43.3413 82.6369 43.4481 82.8202C43.5554 83.0003 43.7227 83.11 43.95 83.1493ZM45.6566 83.7265L45.9773 81.8731C45.9928 81.7835 46.0038 81.6914 46.0103 81.5969C46.0205 81.4998 46.0288 81.404 46.0353 81.3095L46.4098 81.3743L46.3664 81.9108L46.3088 81.9008C46.4114 81.7273 46.5478 81.6058 46.718 81.5364C46.8921 81.4643 47.0815 81.446 47.2864 81.4814C47.5713 81.5307 47.7725 81.6447 47.8899 81.8233C48.0112 81.9992 48.0435 82.2504 47.987 82.5769L47.7261 84.0846L47.3372 84.0173L47.5939 82.5336C47.6333 82.3063 47.6154 82.1335 47.5403 82.015C47.4689 81.8938 47.3372 81.8166 47.1451 81.7834C46.921 81.7446 46.7315 81.7827 46.5764 81.8976C46.4213 82.0126 46.3239 82.1853 46.284 82.4158L46.0455 83.7938L45.6566 83.7265ZM49.1573 84.3323L48.542 81.7432L48.9646 81.8163L49.4616 84.0882L49.332 84.0658L50.5731 82.0947L50.9765 82.1645L49.527 84.3963L49.1573 84.3323ZM52.028 84.8735C51.6503 84.8082 51.3714 84.6478 51.1914 84.3925C51.0119 84.1339 50.956 83.8094 51.0236 83.4189C51.0673 83.166 51.1533 82.955 51.2814 82.786C51.4102 82.6137 51.5698 82.4913 51.7604 82.4188C51.9515 82.3431 52.1591 82.3246 52.3832 82.3634C52.6041 82.4016 52.7817 82.4801 52.9161 82.599C53.0505 82.7179 53.1428 82.8707 53.1929 83.0574C53.2436 83.2409 53.2487 83.4495 53.2082 83.6831L53.1833 83.8272L51.3155 83.504L51.3578 83.2591L52.9712 83.5383L52.8788 83.5866C52.9231 83.3305 52.9001 83.1204 52.8098 82.9564C52.7194 82.7925 52.5607 82.6908 52.3334 82.6515C52.0933 82.6099 51.8913 82.6624 51.7275 82.8087C51.5643 82.9519 51.458 83.166 51.4087 83.4509L51.4012 83.4941C51.3492 83.795 51.3832 84.0366 51.5033 84.219C51.6272 84.3987 51.8235 84.5118 52.0924 84.5583C52.2365 84.5832 52.3745 84.5857 52.5066 84.5657C52.6424 84.543 52.7765 84.492 52.9089 84.4127L52.996 84.7097C52.8726 84.7938 52.7243 84.8506 52.5511 84.88C52.3816 84.9067 52.2073 84.9046 52.028 84.8735ZM53.567 85.0953L53.8835 83.2659C53.9001 83.1698 53.9138 83.0717 53.9246 82.9713C53.9386 82.8715 53.9488 82.7744 53.9552 82.6799L54.3298 82.7447L54.2764 83.3388L54.2084 83.332C54.2653 83.1935 54.3418 83.0847 54.4379 83.0057C54.534 82.9268 54.6403 82.8743 54.7569 82.8483C54.8741 82.8191 54.9919 82.8148 55.1103 82.8353C55.1583 82.8436 55.1997 82.8524 55.2343 82.8617C55.2722 82.8715 55.306 82.8856 55.3358 82.9039L55.2712 83.2488C55.2259 83.2245 55.1828 83.2072 55.1417 83.1968C55.1044 83.1837 55.0602 83.1728 55.0089 83.1639C54.8681 83.1395 54.739 83.1518 54.6218 83.2008C54.5077 83.2503 54.4143 83.3231 54.3416 83.4193C54.2721 83.5161 54.2271 83.6237 54.2066 83.7422L53.9607 85.1635L53.567 85.0953ZM56.0919 85.5767C55.8998 85.5435 55.725 85.4869 55.5674 85.4068C55.4103 85.3236 55.2857 85.2246 55.1935 85.1097L55.3753 84.8593C55.4777 84.9726 55.5938 85.0636 55.7237 85.1322C55.8568 85.2014 55.9986 85.249 56.149 85.2751C56.3411 85.3083 56.491 85.2996 56.5986 85.249C56.71 85.1957 56.7763 85.1083 56.7973 84.9867C56.8134 84.8938 56.7941 84.8147 56.7395 84.7492C56.6887 84.681 56.5956 84.6188 56.4603 84.5624L56.0295 84.3939C55.8324 84.3136 55.6917 84.2118 55.6076 84.0884C55.524 83.9619 55.4966 83.8154 55.5254 83.6489C55.5498 83.508 55.6079 83.3912 55.6998 83.2983C55.7923 83.2022 55.9142 83.1359 56.0655 83.0995C56.2175 83.0598 56.3879 83.0563 56.5767 83.089C56.7528 83.1195 56.9097 83.1746 57.0476 83.2545C57.1892 83.3318 57.301 83.4286 57.3831 83.545L57.1973 83.7898C57.1173 83.6804 57.0188 83.5924 56.9017 83.526C56.7884 83.457 56.6661 83.4111 56.5348 83.3884C56.346 83.3557 56.1969 83.3694 56.0875 83.4297C55.982 83.4872 55.9187 83.5768 55.8976 83.6985C55.8815 83.7913 55.8971 83.8731 55.9442 83.9439C55.995 84.012 56.0804 84.0713 56.2002 84.1217L56.631 84.2902C56.8404 84.3759 56.989 84.4791 57.0769 84.5998C57.1686 84.7179 57.1997 84.8618 57.1704 85.0314C57.1454 85.1755 57.0836 85.295 56.9847 85.39C56.8864 85.4818 56.7602 85.544 56.6062 85.5767C56.4554 85.61 56.2839 85.61 56.0919 85.5767ZM57.6796 85.8069L58.0966 83.3965L58.4856 83.4638L58.0685 85.8742L57.6796 85.8069ZM58.1433 82.8408L58.219 82.4039L58.6991 82.4869L58.6235 82.9239L58.1433 82.8408ZM59.8054 86.2193C59.5749 86.1794 59.3818 86.0949 59.2261 85.9658C59.0742 85.834 58.9679 85.6672 58.9072 85.4655C58.847 85.2605 58.8391 85.03 58.8834 84.7739C58.9283 84.5147 59.0132 84.3002 59.1381 84.1306C59.2631 83.961 59.419 83.8413 59.6058 83.7714C59.7964 83.6989 60.0069 83.6825 60.2374 83.7224C60.4711 83.7629 60.6639 83.849 60.8158 83.9808C60.9715 84.1099 61.0797 84.2754 61.1404 84.4771C61.2043 84.6794 61.2139 84.9101 61.169 85.1694C61.1247 85.4255 61.0382 85.6397 60.9095 85.8119C60.7845 85.9815 60.6267 86.1026 60.4361 86.1751C60.2493 86.245 60.0391 86.2597 59.8054 86.2193ZM59.8602 85.9024C60.0907 85.9423 60.2867 85.8954 60.4483 85.7618C60.6105 85.625 60.7178 85.4046 60.7705 85.1005C60.8236 84.7932 60.795 84.5492 60.6845 84.3685C60.5777 84.1852 60.4107 84.0739 60.1834 84.0345C59.9561 83.9952 59.7614 84.0439 59.5993 84.1807C59.4377 84.3143 59.3303 84.5348 59.2771 84.8421C59.2245 85.1462 59.2516 85.3899 59.3583 85.5732C59.4656 85.7533 59.6329 85.8631 59.8602 85.9024ZM61.5668 86.4796L61.8876 84.6261C61.9031 84.5365 61.9141 84.4444 61.9205 84.35C61.9307 84.2528 61.9391 84.157 61.9455 84.0625L62.3201 84.1273L62.2767 84.6638L62.2191 84.6538C62.3216 84.4803 62.458 84.3589 62.6283 84.2894C62.8023 84.2173 62.9918 84.199 63.1966 84.2345C63.4815 84.2838 63.6827 84.3977 63.8002 84.5763C63.9214 84.7522 63.9538 85.0034 63.8973 85.33L63.6364 86.8377L63.2474 86.7704L63.5042 85.2867C63.5435 85.0594 63.5256 84.8865 63.4505 84.768C63.3792 84.6469 63.2474 84.5697 63.0554 84.5364C62.8313 84.4977 62.6417 84.5357 62.4867 84.6507C62.3316 84.7656 62.2341 84.9383 62.1942 85.1688L61.9558 86.5469L61.5668 86.4796ZM65.7572 87.2047L66.1219 85.0967L65.6514 85.0153L65.7037 84.7128L66.2799 84.8125L66.1568 84.8951L66.2266 84.4917C66.2737 84.2196 66.3785 84.0235 66.5411 83.9032C66.7037 83.783 66.913 83.745 67.1691 83.7893C67.2331 83.8004 67.2976 83.8182 67.3626 83.8426C67.4314 83.8644 67.4865 83.8888 67.528 83.9157L67.4724 84.2375C67.4367 84.2148 67.3909 84.1937 67.335 84.1741C67.2827 84.1519 67.2278 84.1358 67.1702 84.1258C67.071 84.1087 66.9826 84.1148 66.9049 84.1442C66.8279 84.1704 66.7648 84.2205 66.7157 84.2945C66.6667 84.3684 66.6313 84.4678 66.6097 84.5926L66.5491 84.9432L66.5008 84.8507L67.2354 84.9778L67.1831 85.2803L66.5109 85.164L66.1461 87.272L65.7572 87.2047ZM68.2524 87.6809C67.8747 87.6156 67.5958 87.4552 67.4158 87.1999C67.2364 86.9413 67.1804 86.6168 67.248 86.2263C67.2918 85.9734 67.3777 85.7624 67.5059 85.5934C67.6346 85.4211 67.7942 85.2987 67.9848 85.2262C68.176 85.1505 68.3836 85.132 68.6076 85.1708C68.8285 85.209 69.0062 85.2875 69.1405 85.4064C69.2749 85.5253 69.3672 85.6781 69.4173 85.8648C69.468 86.0483 69.4731 86.2569 69.4327 86.4905L69.4077 86.6346L67.5399 86.3114L67.5823 86.0665L69.1956 86.3457L69.1032 86.394C69.1475 86.1379 69.1245 85.9278 69.0342 85.7639C68.9439 85.5999 68.7851 85.4982 68.5578 85.4589C68.3177 85.4173 68.1158 85.4698 67.952 85.6162C67.7887 85.7593 67.6824 85.9734 67.6331 86.2583L67.6257 86.3015C67.5736 86.6024 67.6076 86.844 67.7277 87.0264C67.8516 87.2061 68.048 87.3192 68.3169 87.3657C68.4609 87.3906 68.599 87.3931 68.731 87.3731C68.8668 87.3504 69.0009 87.2994 69.1333 87.2201L69.2204 87.5171C69.097 87.6012 68.9488 87.658 68.7755 87.6874C68.6061 87.7141 68.4317 87.712 68.2524 87.6809ZM70.8643 88.1329C70.4865 88.0675 70.2077 87.9072 70.0277 87.6518C69.8482 87.3933 69.7923 87.0687 69.8598 86.6782C69.9036 86.4253 69.9896 86.2144 70.1177 86.0453C70.2464 85.8731 70.4061 85.7507 70.5967 85.6781C70.7878 85.6024 70.9954 85.5839 71.2195 85.6227C71.4404 85.6609 71.618 85.7395 71.7524 85.8583C71.8868 85.9772 71.979 86.13 72.0292 86.3167C72.0798 86.5002 72.0849 86.7088 72.0445 86.9425L72.0196 87.0865L70.1517 86.7633L70.1941 86.5184L71.8075 86.7976L71.715 86.8459C71.7593 86.5898 71.7363 86.3798 71.646 86.2158C71.5557 86.0518 71.3969 85.9501 71.1696 85.9108C70.9296 85.8693 70.7276 85.9217 70.5638 86.0681C70.4006 86.2113 70.2943 86.4253 70.245 86.7102L70.2375 86.7535C70.1854 87.0544 70.2195 87.296 70.3396 87.4783C70.4634 87.658 70.6598 87.7711 70.9287 87.8176C71.0728 87.8426 71.2108 87.845 71.3429 87.825C71.4787 87.8023 71.6128 87.7514 71.7452 87.6721L71.8323 87.969C71.7089 88.0532 71.5606 88.11 71.3874 88.1393C71.2179 88.1661 71.0435 88.1639 70.8643 88.1329Z" fill="#C3C3C3"/>
<path d="M143.807 100.754C143.423 100.688 143.154 100.488 143.001 100.155C142.848 99.8218 142.82 99.3735 142.917 98.8101C143.015 98.2436 143.192 97.8307 143.448 97.5717C143.704 97.3126 144.024 97.2163 144.408 97.2828C144.795 97.3498 145.064 97.548 145.215 97.8774C145.369 98.2074 145.397 98.6541 145.3 99.2175C145.202 99.7841 145.024 100.198 144.768 100.461C144.512 100.723 144.191 100.821 143.807 100.754ZM143.867 100.409C144.136 100.455 144.356 100.376 144.526 100.172C144.697 99.9671 144.823 99.6263 144.906 99.1493C144.989 98.6692 144.984 98.3073 144.891 98.0637C144.798 97.8169 144.618 97.6702 144.349 97.6237C144.083 97.5777 143.864 97.6552 143.691 97.856C143.521 98.0573 143.394 98.3965 143.312 98.8735C143.229 99.3504 143.234 99.7139 143.326 99.9639C143.421 100.214 143.601 100.363 143.867 100.409ZM145.556 101.012L145.641 100.523L146.13 100.607L146.046 101.097L145.556 101.012ZM147.779 101.442C147.395 101.375 147.126 101.175 146.973 100.842C146.819 100.509 146.791 100.061 146.889 99.4974C146.987 98.9308 147.164 98.518 147.42 98.2589C147.675 97.9999 147.995 97.9036 148.38 97.97C148.767 98.0371 149.036 98.2353 149.187 98.5647C149.341 98.8946 149.369 99.3413 149.271 99.9047C149.173 100.471 148.996 100.886 148.74 101.148C148.483 101.41 148.163 101.508 147.779 101.442ZM147.839 101.096C148.108 101.142 148.327 101.063 148.498 100.859C148.668 100.654 148.795 100.314 148.878 99.8366C148.961 99.3564 148.956 98.9945 148.863 98.7509C148.77 98.5041 148.589 98.3575 148.321 98.311C148.055 98.265 147.835 98.3424 147.662 98.5432C147.492 98.7446 147.366 99.0838 147.283 99.5607C147.201 100.038 147.206 100.401 147.297 100.651C147.393 100.902 147.573 101.05 147.839 101.096ZM150.658 101.94C150.274 101.873 150.005 101.674 149.852 101.34C149.698 101.007 149.67 100.559 149.768 99.9956C149.866 99.429 150.043 99.0162 150.299 98.7571C150.555 98.4981 150.875 98.4018 151.259 98.4682C151.646 98.5353 151.915 98.7335 152.066 99.0629C152.22 99.3928 152.248 99.8395 152.15 100.403C152.052 100.969 151.875 101.384 151.619 101.646C151.362 101.908 151.042 102.006 150.658 101.94ZM150.718 101.594C150.987 101.641 151.206 101.562 151.377 101.357C151.548 101.152 151.674 100.812 151.757 100.335C151.84 99.8546 151.835 99.4927 151.742 99.2491C151.649 99.0023 151.469 98.8557 151.2 98.8092C150.934 98.7632 150.715 98.8406 150.541 99.0414C150.371 99.2428 150.245 99.582 150.163 100.059C150.08 100.536 150.085 100.899 150.177 101.149C150.272 101.4 150.452 101.548 150.718 101.594ZM155.106 102.71C154.648 102.63 154.328 102.454 154.144 102.182C153.963 101.91 153.913 101.547 153.991 101.092L154.345 99.0468L154.739 99.1149L154.388 101.141C154.328 101.49 154.359 101.766 154.483 101.969C154.606 102.171 154.834 102.301 155.167 102.359C155.48 102.413 155.734 102.367 155.928 102.219C156.122 102.071 156.249 101.823 156.309 101.474L156.66 99.4473L157.053 99.5154L156.699 101.561C156.621 102.015 156.446 102.34 156.175 102.533C155.907 102.728 155.551 102.787 155.106 102.71ZM158.383 103.277C158.111 103.229 157.874 103.152 157.671 103.045C157.469 102.937 157.299 102.804 157.162 102.645L157.361 102.353C157.459 102.456 157.558 102.545 157.66 102.622C157.766 102.697 157.882 102.76 158.009 102.811C158.135 102.86 158.28 102.898 158.444 102.926C158.729 102.975 158.949 102.959 159.105 102.877C159.261 102.795 159.354 102.666 159.385 102.49C159.411 102.34 159.382 102.216 159.3 102.12C159.218 102.023 159.061 101.93 158.829 101.84L158.343 101.652C158.043 101.535 157.829 101.39 157.7 101.22C157.575 101.05 157.533 100.841 157.576 100.595C157.611 100.393 157.693 100.226 157.821 100.093C157.953 99.9612 158.12 99.8698 158.324 99.8193C158.527 99.7687 158.753 99.7651 159.003 99.8083C159.243 99.8498 159.456 99.9246 159.642 100.033C159.828 100.137 159.98 100.271 160.097 100.433L159.904 100.716C159.777 100.555 159.635 100.432 159.479 100.346C159.326 100.256 159.146 100.194 158.938 100.158C158.675 100.113 158.457 100.134 158.283 100.223C158.114 100.309 158.012 100.449 157.978 100.645C157.951 100.802 157.977 100.933 158.058 101.039C158.139 101.142 158.286 101.235 158.499 101.318L158.991 101.507C159.306 101.631 159.528 101.774 159.659 101.935C159.789 102.096 159.833 102.298 159.791 102.541C159.759 102.727 159.679 102.883 159.552 103.009C159.428 103.136 159.266 103.223 159.066 103.271C158.867 103.319 158.639 103.321 158.383 103.277ZM160.278 103.56L160.864 100.175L161.987 100.369C162.362 100.434 162.667 100.554 162.904 100.731C163.141 100.903 163.305 101.128 163.396 101.404C163.487 101.677 163.501 101.996 163.438 102.361C163.375 102.723 163.255 103.018 163.077 103.248C162.898 103.478 162.668 103.636 162.386 103.722C162.104 103.808 161.776 103.819 161.401 103.754L160.278 103.56ZM160.735 103.288L161.432 103.408C161.893 103.488 162.254 103.435 162.517 103.25C162.781 103.062 162.951 102.742 163.03 102.29C163.108 101.836 163.055 101.477 162.87 101.214C162.684 100.951 162.361 100.78 161.9 100.7L161.204 100.58L160.735 103.288ZM164.475 104.286L165.003 101.237L163.807 101.03L163.865 100.694L166.65 101.176L166.592 101.512L165.401 101.306L164.874 104.355L164.475 104.286Z" fill="#C3C3C3"/>
</g>
<g clip-path="url(#clip5_809_7555)">
<rect x="30.5715" y="92.9531" width="143.406" height="34.4593" rx="3.48074" transform="rotate(9.81701 30.5715 92.9531)" fill="#1B1B1B"/>
<path d="M36.0345 104.008L36.4529 101.59L36.7375 101.639L36.3191 104.057L36.0345 104.008ZM38.245 104.39L37.905 102.558L38.2 102.609L38.4693 104.217L38.3801 104.202L39.1912 102.781L39.4313 102.822L39.7074 104.431L39.6217 104.417L40.4191 102.993L40.7003 103.042L39.761 104.653L39.4935 104.606L39.2043 102.97L39.3415 102.994L38.516 104.437L38.245 104.39ZM40.7664 104.827L41.0643 103.105L41.3421 103.153L41.0442 104.875L40.7664 104.827ZM41.0977 102.708L41.1517 102.396L41.4947 102.455L41.4407 102.767L41.0977 102.708ZM41.5837 104.968L42.0205 102.444L42.2983 102.492L41.8615 105.016L41.5837 104.968ZM42.4009 105.109L42.8377 102.585L43.1155 102.633L42.6787 105.158L42.4009 105.109ZM44.1056 105.404L44.3317 104.098C44.3436 104.029 44.3534 103.959 44.361 103.887C44.371 103.816 44.3783 103.747 44.3829 103.679L44.6505 103.725L44.6124 104.15L44.5637 104.145C44.6044 104.046 44.6591 103.968 44.7277 103.912C44.7963 103.855 44.8723 103.818 44.9556 103.799C45.0393 103.779 45.1234 103.775 45.208 103.79C45.2423 103.796 45.2718 103.802 45.2966 103.809C45.3236 103.816 45.3478 103.826 45.3691 103.839L45.3229 104.085C45.2906 104.068 45.2598 104.056 45.2304 104.048C45.2038 104.039 45.1722 104.031 45.1356 104.025C45.035 104.007 44.9428 104.016 44.859 104.051C44.7775 104.086 44.7108 104.139 44.6589 104.207C44.6093 104.276 44.5771 104.353 44.5625 104.438L44.3868 105.453L44.1056 105.404ZM46.0978 105.781C45.828 105.734 45.6288 105.62 45.5002 105.437C45.3721 105.253 45.3321 105.021 45.3804 104.742C45.4116 104.561 45.473 104.411 45.5646 104.29C45.6565 104.167 45.7705 104.079 45.9067 104.028C46.0432 103.973 46.1915 103.96 46.3516 103.988C46.5093 104.015 46.6362 104.071 46.7322 104.156C46.8282 104.241 46.8941 104.35 46.9299 104.484C46.9661 104.615 46.9697 104.764 46.9408 104.931L46.923 105.034L45.5889 104.803L45.6191 104.628L46.7715 104.827L46.7055 104.862C46.7372 104.679 46.7207 104.529 46.6562 104.412C46.5917 104.294 46.4783 104.222 46.3159 104.194C46.1445 104.164 46.0002 104.202 45.8832 104.306C45.7666 104.408 45.6907 104.561 45.6555 104.765L45.6501 104.796C45.6129 105.011 45.6372 105.183 45.723 105.313C45.8115 105.442 45.9518 105.523 46.1439 105.556C46.2467 105.574 46.3453 105.575 46.4397 105.561C46.5367 105.545 46.6325 105.508 46.727 105.452L46.7892 105.664C46.7011 105.724 46.5952 105.765 46.4715 105.786C46.3504 105.805 46.2259 105.803 46.0978 105.781ZM47.9223 106.097C47.7531 106.067 47.6119 106.005 47.4988 105.91C47.388 105.816 47.31 105.695 47.2647 105.548C47.2218 105.402 47.2163 105.236 47.2484 105.051C47.2808 104.863 47.3426 104.71 47.4337 104.592C47.5253 104.471 47.6387 104.387 47.7741 104.34C47.9117 104.293 48.064 104.284 48.2309 104.313C48.3406 104.332 48.4436 104.37 48.5398 104.427C48.6382 104.484 48.7156 104.554 48.7719 104.636L48.638 104.818C48.5809 104.74 48.514 104.678 48.4372 104.631C48.3627 104.586 48.2866 104.556 48.2089 104.542C48.0305 104.512 47.8825 104.544 47.7648 104.639C47.6471 104.734 47.5696 104.889 47.5324 105.104C47.4956 105.316 47.5163 105.489 47.5944 105.623C47.6726 105.757 47.8008 105.839 47.9792 105.87C48.0546 105.883 48.135 105.881 48.2201 105.866C48.3076 105.85 48.3927 105.814 48.4754 105.758L48.5411 105.971C48.4575 106.031 48.3598 106.072 48.2479 106.093C48.136 106.114 48.0275 106.115 47.9223 106.097ZM49.6281 106.392C49.3583 106.345 49.1591 106.231 49.0305 106.048C48.9023 105.863 48.8624 105.632 48.9106 105.353C48.9419 105.172 49.0033 105.021 49.0948 104.901C49.1868 104.778 49.3008 104.69 49.4369 104.638C49.5735 104.584 49.7217 104.571 49.8818 104.599C50.0396 104.626 50.1665 104.682 50.2624 104.767C50.3584 104.852 50.4243 104.961 50.4601 105.095C50.4963 105.226 50.5 105.375 50.4711 105.542L50.4533 105.644L49.1191 105.414L49.1494 105.239L50.3018 105.438L50.2358 105.473C50.2674 105.29 50.251 105.14 50.1865 105.022C50.122 104.905 50.0085 104.833 49.8462 104.805C49.6747 104.775 49.5305 104.812 49.4135 104.917C49.2969 105.019 49.2209 105.172 49.1857 105.376L49.1804 105.406C49.1432 105.621 49.1675 105.794 49.2533 105.924C49.3418 106.053 49.482 106.133 49.6741 106.167C49.777 106.184 49.8756 106.186 49.9699 106.172C50.0669 106.156 50.1627 106.119 50.2573 106.063L50.3195 106.275C50.2314 106.335 50.1255 106.375 50.0017 106.396C49.8807 106.415 49.7561 106.414 49.6281 106.392ZM50.7342 106.551L51.0321 104.83L51.3099 104.878L51.012 106.599L50.7342 106.551ZM51.0655 104.433L51.1195 104.121L51.4624 104.18L51.4084 104.492L51.0655 104.433ZM52.059 106.781L51.6196 104.931L51.9214 104.984L52.2764 106.606L52.1838 106.59L53.0704 105.182L53.3585 105.232L52.3231 106.826L52.059 106.781ZM54.1096 107.167C53.8397 107.121 53.6405 107.006 53.512 106.824C53.3838 106.639 53.3438 106.407 53.3921 106.128C53.4234 105.948 53.4848 105.797 53.5763 105.676C53.6682 105.553 53.7823 105.466 53.9184 105.414C54.0549 105.36 54.2032 105.347 54.3633 105.374C54.5211 105.402 54.6479 105.458 54.7439 105.543C54.8399 105.627 54.9058 105.737 54.9416 105.87C54.9778 106.001 54.9815 106.15 54.9526 106.317L54.9348 106.42L53.6006 106.189L53.6309 106.014L54.7833 106.213L54.7172 106.248C54.7489 106.065 54.7325 105.915 54.668 105.798C54.6034 105.681 54.49 105.608 54.3277 105.58C54.1562 105.55 54.0119 105.588 53.8949 105.692C53.7783 105.795 53.7024 105.948 53.6672 106.151L53.6619 106.182C53.6247 106.397 53.649 106.569 53.7348 106.7C53.8232 106.828 53.9635 106.909 54.1556 106.942C54.2585 106.96 54.3571 106.962 54.4514 106.947C54.5484 106.931 54.6442 106.895 54.7388 106.838L54.801 107.05C54.7129 107.11 54.6069 107.151 54.4832 107.172C54.3621 107.191 54.2376 107.189 54.1096 107.167Z" fill="#C3C3C3"/>
<path d="M33.8675 119.683L34.0498 118.629L35.3669 118.857L36.0035 115.178L36.6044 115.282L34.647 116.011L34.8549 114.809L36.5591 114.172L37.4728 114.33L36.651 119.079L37.8857 119.293L37.7034 120.347L33.8675 119.683ZM39.9564 120.83C39.6381 120.775 39.3348 120.666 39.0465 120.503C38.7591 120.334 38.5173 120.131 38.321 119.894L38.8963 119.019C39.0699 119.224 39.2616 119.39 39.4714 119.517C39.6867 119.644 39.9124 119.729 40.1483 119.769C40.6038 119.848 40.9752 119.76 41.2624 119.504C41.5506 119.243 41.745 118.822 41.8457 118.24L41.9383 117.705L42.0453 117.724C41.9622 117.975 41.8332 118.182 41.6583 118.344C41.4833 118.505 41.2803 118.617 41.0491 118.679C40.8235 118.742 40.5818 118.751 40.3238 118.706C39.9946 118.649 39.712 118.518 39.4761 118.314C39.2467 118.104 39.0799 117.844 38.9756 117.532C38.8768 117.221 38.8583 116.887 38.92 116.53C38.9865 116.146 39.1304 115.821 39.3518 115.554C39.5741 115.281 39.8482 115.086 40.1739 114.967C40.4997 114.848 40.8574 114.822 41.247 114.89C41.9988 115.02 42.5336 115.375 42.8514 115.956C43.1701 116.531 43.2492 117.282 43.0888 118.21C42.9767 118.857 42.7766 119.393 42.4883 119.818C42.2064 120.239 41.8498 120.536 41.4184 120.71C40.987 120.884 40.4996 120.924 39.9564 120.83ZM40.8254 117.767C40.9956 117.797 41.1531 117.784 41.2981 117.73C41.4431 117.676 41.5636 117.584 41.6596 117.454C41.7612 117.324 41.8276 117.169 41.8589 116.988C41.8922 116.796 41.8822 116.625 41.8291 116.474C41.7825 116.319 41.7 116.192 41.5816 116.092C41.4641 115.987 41.3203 115.92 41.1502 115.89C40.9746 115.86 40.8138 115.874 40.6679 115.934C40.5229 115.988 40.4024 116.08 40.3063 116.211C40.2112 116.335 40.1471 116.494 40.1139 116.686C40.0825 116.867 40.0902 117.035 40.1368 117.19C40.1835 117.345 40.266 117.472 40.3844 117.572C40.5028 117.672 40.6498 117.737 40.8254 117.767ZM43.7388 121.391L43.9211 120.337L45.2382 120.565L45.8748 116.886L46.4757 116.99L44.5183 117.719L44.7262 116.518L46.4304 115.88L47.3441 116.038L46.5223 120.788L47.757 121.001L47.5747 122.055L43.7388 121.391ZM48.634 123.459L48.2153 122.988C48.4406 122.829 48.6091 122.672 48.7209 122.516C48.8326 122.36 48.9056 122.183 48.9398 121.986L49.1519 122.328L48.2464 122.171L48.4743 120.854L49.8078 121.085L49.6611 121.933C49.607 122.245 49.5027 122.521 49.3484 122.76C49.194 122.999 48.9559 123.232 48.634 123.459ZM50.8127 122.615L50.995 121.561L52.3121 121.789L52.9487 118.11L53.5496 118.214L51.5922 118.943L51.8001 117.742L53.5043 117.104L54.418 117.262L53.5962 122.012L54.8309 122.225L54.6486 123.279L50.8127 122.615ZM57.3708 123.843C56.6738 123.723 56.1811 123.369 55.8927 122.782C55.6107 122.191 55.5523 121.417 55.7175 120.463C55.8856 119.491 56.1999 118.786 56.6604 118.345C57.1274 117.9 57.7093 117.738 58.4063 117.859C59.1087 117.98 59.6023 118.329 59.8872 118.904C60.173 119.473 60.2323 120.241 60.0652 121.206C59.899 122.167 59.5838 122.878 59.1194 123.34C58.6561 123.797 58.0732 123.965 57.3708 123.843ZM57.5502 122.806C57.8685 122.861 58.1315 122.745 58.3393 122.459C58.5535 122.169 58.72 121.68 58.8387 120.994C58.9574 120.308 58.9633 119.801 58.8564 119.471C58.7549 119.143 58.5451 118.951 58.2268 118.896C57.9085 118.841 57.6437 118.951 57.4323 119.225C57.2264 119.5 57.0646 119.978 56.9469 120.658C56.8272 121.35 56.8194 121.868 56.9235 122.214C57.0285 122.555 57.2374 122.752 57.5502 122.806ZM62.3064 124.697C61.6095 124.577 61.1168 124.223 60.8284 123.636C60.5464 123.045 60.488 122.272 60.6532 121.317C60.8213 120.345 61.1356 119.64 61.5961 119.199C62.063 118.754 62.645 118.592 63.3419 118.713C64.0443 118.834 64.538 119.183 64.8228 119.758C65.1086 120.327 65.1679 121.095 65.0008 122.06C64.8347 123.021 64.5194 123.732 64.0551 124.194C63.5917 124.651 63.0088 124.819 62.3064 124.697ZM62.4859 123.66C62.8042 123.715 63.0672 123.6 63.275 123.313C63.4892 123.023 63.6556 122.534 63.7743 121.848C63.893 121.162 63.8989 120.655 63.792 120.325C63.6906 119.997 63.4807 119.805 63.1624 119.75C62.8442 119.695 62.5793 119.805 62.368 120.079C62.1621 120.354 62.0003 120.832 61.8825 121.512C61.7629 122.204 61.7551 122.723 61.8592 123.068C61.9642 123.409 62.1731 123.606 62.4859 123.66ZM65.1916 125.103L65.4195 123.786L66.753 124.017L66.5251 125.334L65.1916 125.103ZM69.3803 125.921C68.6834 125.801 68.1907 125.447 67.9023 124.86C67.6203 124.269 67.5619 123.496 67.7271 122.541C67.8952 121.569 68.2095 120.864 68.67 120.423C69.1369 119.978 69.7189 119.816 70.4158 119.937C71.1182 120.058 71.6119 120.407 71.8967 120.982C72.1825 121.551 72.2419 122.319 72.0747 123.285C71.9086 124.245 71.5933 124.956 71.129 125.418C70.6656 125.875 70.0827 126.043 69.3803 125.921ZM69.5598 124.884C69.8781 124.939 70.1411 124.824 70.3489 124.537C70.5631 124.247 70.7295 123.758 70.8482 123.072C70.9669 122.386 70.9728 121.879 70.8659 121.549C70.7645 121.221 70.5546 121.029 70.2363 120.974C69.9181 120.919 69.6532 121.029 69.4419 121.303C69.236 121.578 69.0742 122.056 68.9564 122.736C68.8368 123.428 68.829 123.947 68.9331 124.292C69.0381 124.633 69.247 124.83 69.5598 124.884ZM74.316 126.775C73.619 126.655 73.1264 126.301 72.8379 125.714C72.5559 125.123 72.4975 124.35 72.6628 123.395C72.8308 122.423 73.1451 121.718 73.6056 121.277C74.0726 120.833 74.6545 120.67 75.3515 120.791C76.0539 120.913 76.5475 121.261 76.8324 121.836C77.1182 122.405 77.1775 123.173 77.0104 124.139C76.8442 125.099 76.529 125.81 76.0647 126.272C75.6013 126.729 75.0184 126.897 74.316 126.775ZM74.4954 125.738C74.8137 125.793 75.0768 125.678 75.2845 125.391C75.4987 125.101 75.6652 124.612 75.7839 123.926C75.9026 123.24 75.9085 122.733 75.8016 122.403C75.7001 122.075 75.4903 121.883 75.172 121.828C74.8537 121.773 74.5889 121.883 74.3775 122.157C74.1716 122.432 74.0098 122.91 73.8921 123.591C73.7724 124.282 73.7647 124.801 73.8687 125.146C73.9737 125.487 74.1826 125.684 74.4954 125.738Z" fill="#C3C3C3"/>
<rect x="136.387" y="128.572" width="26.1055" height="10.4422" rx="1.74037" transform="rotate(9.81701 136.387 128.572)" fill="#262626"/>
<path d="M143.278 136.585L143.863 133.2L144.176 133.254L145.847 136.51L145.737 136.491L146.235 133.61L146.605 133.674L146.019 137.059L145.712 137.006L144.04 133.75L144.146 133.768L143.647 136.649L143.278 136.585ZM148.413 137.518C148.042 137.454 147.743 137.331 147.517 137.15C147.291 136.969 147.139 136.739 147.059 136.458C146.979 136.177 146.97 135.856 147.032 135.494C147.094 135.135 147.214 134.838 147.39 134.601C147.566 134.365 147.789 134.197 148.06 134.099C148.331 134.001 148.641 133.982 148.99 134.042C149.236 134.085 149.443 134.159 149.609 134.263C149.78 134.365 149.925 134.499 150.044 134.665L149.841 134.951C149.752 134.84 149.662 134.749 149.572 134.677C149.486 134.606 149.392 134.549 149.291 134.505C149.19 134.458 149.069 134.422 148.928 134.398C148.528 134.328 148.2 134.397 147.943 134.603C147.69 134.806 147.526 135.129 147.449 135.571C147.372 136.016 147.416 136.374 147.58 136.647C147.747 136.92 148.048 137.094 148.483 137.169C148.643 137.197 148.798 137.209 148.947 137.205C149.1 137.198 149.25 137.178 149.398 137.144L149.274 137.345L149.48 136.155L148.616 136.005L148.67 135.693L149.875 135.902L149.603 137.472C149.453 137.521 149.268 137.551 149.049 137.559C148.833 137.568 148.621 137.554 148.413 137.518ZM150.377 137.813L150.963 134.428L151.275 134.482L152.947 137.739L152.836 137.72L153.335 134.839L153.705 134.903L153.119 138.288L152.811 138.235L151.14 134.978L151.245 134.996L150.747 137.877L150.377 137.813Z" fill="#C3C3C3"/>
</g>
<rect x="22.916" y="137.197" width="143.406" height="21.5806" rx="3.48074" transform="rotate(9.81701 22.916 137.197)" fill="#23C69A"/>
<path d="M82.1878 160.356C81.7854 160.286 81.4536 160.146 81.1925 159.935C80.9356 159.721 80.756 159.452 80.6536 159.13C80.5519 158.803 80.5361 158.437 80.6064 158.031C80.6766 157.624 80.8142 157.287 81.0192 157.017C81.2241 156.747 81.4832 156.556 81.7964 156.445C82.1139 156.33 82.4739 156.308 82.8763 156.377C83.147 156.424 83.3836 156.505 83.5862 156.619C83.7924 156.734 83.9612 156.88 84.0925 157.057L83.7652 157.577C83.6173 157.408 83.468 157.28 83.3171 157.194C83.1706 157.105 82.9949 157.042 82.79 157.007C82.3985 156.939 82.078 157.006 81.8283 157.208C81.5829 157.406 81.4225 157.723 81.3472 158.159C81.2719 158.594 81.3161 158.948 81.4798 159.222C81.6472 159.495 81.9266 159.666 82.318 159.734C82.5229 159.769 82.7091 159.772 82.8765 159.74C83.0483 159.706 83.2324 159.632 83.4291 159.519L83.5627 160.119C83.3801 160.238 83.172 160.319 82.9386 160.361C82.7088 160.405 82.4586 160.403 82.1878 160.356ZM85.148 160.868C84.8626 160.819 84.6258 160.717 84.4375 160.564C84.2492 160.411 84.1152 160.216 84.0355 159.98C83.9595 159.745 83.9471 159.479 83.9983 159.183C84.0496 158.886 84.1503 158.642 84.3004 158.449C84.4549 158.254 84.6465 158.115 84.8753 158.034C85.104 157.953 85.3611 157.938 85.6465 157.987C85.9318 158.036 86.1686 158.138 86.3569 158.291C86.5488 158.445 86.6828 158.639 86.7589 158.875C86.8393 159.107 86.8538 159.372 86.8025 159.668C86.7512 159.964 86.6484 160.21 86.494 160.406C86.3432 160.602 86.1516 160.74 85.9192 160.821C85.6904 160.902 85.4333 160.917 85.148 160.868ZM85.2391 160.341C85.455 160.379 85.6399 160.333 85.7939 160.205C85.9485 160.074 86.0524 159.855 86.1056 159.547C86.1588 159.24 86.1343 159 86.0322 158.828C85.9301 158.656 85.7712 158.551 85.5553 158.514C85.3395 158.476 85.1545 158.522 85.0005 158.65C84.8465 158.777 84.743 158.995 84.6898 159.302C84.6366 159.61 84.6608 159.851 84.7622 160.027C84.8643 160.199 85.0233 160.304 85.2391 160.341ZM87.1538 161.159L87.5137 159.079C87.5333 158.965 87.5496 158.849 87.5626 158.731C87.5755 158.613 87.5845 158.496 87.5895 158.38L88.2535 158.495L88.2134 159.053L88.1475 159.042C88.2689 158.863 88.4244 158.737 88.6141 158.664C88.8044 158.588 89.0129 158.57 89.2398 158.609C89.5654 158.665 89.7946 158.799 89.9276 159.01C90.0606 159.222 90.0935 159.521 90.0264 159.909L89.733 161.605L89.0471 161.486L89.3348 159.823C89.3734 159.6 89.357 159.434 89.2857 159.323C89.2186 159.21 89.0991 159.138 88.9272 159.109C88.715 159.072 88.5353 159.109 88.3881 159.219C88.241 159.329 88.1484 159.494 88.1104 159.713L87.8398 161.277L87.1538 161.159ZM91.6362 161.991C91.3069 161.934 91.073 161.805 90.9345 161.604C90.796 161.403 90.7564 161.13 90.8159 160.786L91.0372 159.508L90.5049 159.415L90.5942 158.9L91.1265 158.992L91.2489 158.284L91.9653 158.227L91.8124 159.11L92.5532 159.239L92.464 159.754L91.7231 159.626L91.5095 160.861C91.4766 161.051 91.4901 161.191 91.5499 161.281C91.6098 161.37 91.7038 161.426 91.8318 161.448C91.9013 161.46 91.9608 161.465 92.0103 161.462C92.0634 161.46 92.1153 161.454 92.166 161.444L92.072 161.987C92.0054 162.002 91.9327 162.008 91.854 162.006C91.7783 162.008 91.7057 162.003 91.6362 161.991ZM92.5396 162.091L93.0192 159.319L93.7051 159.438L93.2256 162.209L92.5396 162.091ZM93.071 158.791L93.1868 158.122L93.9496 158.254L93.8337 158.923L93.071 158.791ZM93.9705 162.338L94.3304 160.258C94.35 160.145 94.3663 160.029 94.3792 159.911C94.3922 159.792 94.4011 159.675 94.4061 159.559L95.0701 159.674L95.0301 160.232L94.9642 160.221C95.0856 160.042 95.2411 159.917 95.4307 159.844C95.621 159.768 95.8296 159.749 96.0564 159.788C96.382 159.845 96.6113 159.979 96.7443 160.19C96.8773 160.401 96.9102 160.701 96.8431 161.089L96.5497 162.784L95.8637 162.666L96.1515 161.003C96.1901 160.78 96.1737 160.613 96.1024 160.503C96.0353 160.389 95.9158 160.318 95.7439 160.288C95.5317 160.251 95.352 160.288 95.2048 160.398C95.0576 160.508 94.9651 160.673 94.9271 160.893L94.6565 162.457L93.9705 162.338ZM98.2663 163.138C97.926 163.079 97.6879 162.942 97.5519 162.726C97.4159 162.51 97.3811 162.21 97.4476 161.826L97.7401 160.136L98.426 160.255L98.1345 161.94C98.0991 162.144 98.1149 162.304 98.1819 162.417C98.2496 162.527 98.3694 162.596 98.5414 162.626C98.7353 162.66 98.904 162.621 99.0475 162.51C99.1947 162.4 99.2869 162.237 99.3243 162.021L99.5949 160.457L100.281 160.576L99.8013 163.347L99.1318 163.231L99.2296 162.666L99.3065 162.679C99.1918 162.863 99.0427 162.995 98.859 163.077C98.6797 163.155 98.4821 163.175 98.2663 163.138ZM101.876 163.762C101.411 163.682 101.069 163.491 100.85 163.189C100.631 162.888 100.56 162.514 100.637 162.067C100.687 161.778 100.788 161.536 100.938 161.34C101.089 161.143 101.275 161.002 101.498 160.916C101.723 160.831 101.972 160.812 102.242 160.859C102.509 160.905 102.723 161 102.882 161.145C103.042 161.289 103.15 161.472 103.206 161.692C103.266 161.914 103.272 162.162 103.224 162.436L103.193 162.617L101.173 162.268L101.236 161.905L102.767 162.17L102.66 162.231C102.705 161.975 102.684 161.77 102.597 161.615C102.515 161.462 102.371 161.367 102.166 161.332C101.939 161.292 101.75 161.342 101.598 161.482C101.449 161.622 101.35 161.837 101.3 162.126L101.287 162.197C101.235 162.497 101.27 162.735 101.39 162.91C101.515 163.082 101.712 163.192 101.983 163.239C102.14 163.266 102.29 163.271 102.433 163.254C102.579 163.234 102.723 163.188 102.864 163.114L102.987 163.61C102.837 163.693 102.665 163.748 102.472 163.775C102.279 163.802 102.08 163.798 101.876 163.762Z" fill="white"/>
</g>
<rect x="33.1982" y="3.13066" width="168.86" height="173.385" rx="9.5" transform="rotate(9.81701 33.1982 3.13066)" stroke="#C3C3C3" stroke-opacity="0.3"/>
</g>
<defs>
<filter id="filter0_d_809_7555" x="-0.733116" y="-1.23824" width="204.688" height="208.375" filterUnits="userSpaceOnUse" color-interpolation-filters="sRGB">
<feFlood flood-opacity="0" result="BackgroundImageFix"/>
<feColorMatrix in="SourceAlpha" type="matrix" values="0 0 0 0 0 0 0 0 0 0 0 0 0 0 0 0 0 0 127 0" result="hardAlpha"/>
<feOffset/>
<feGaussianBlur stdDeviation="1.89549"/>
<feComposite in2="hardAlpha" operator="out"/>
<feColorMatrix type="matrix" values="0 0 0 0 0 0 0 0 0 0 0 0 0 0 0 0 0 0 0.25 0"/>
<feBlend mode="normal" in2="BackgroundImageFix" result="effect1_dropShadow_809_7555"/>
<feBlend mode="normal" in="SourceGraphic" in2="effect1_dropShadow_809_7555" result="shape"/>
</filter>
<clipPath id="clip0_809_7555">
<rect x="32.7908" y="2.55273" width="169.86" height="174.385" rx="10" transform="rotate(9.81701 32.7908 2.55273)" fill="white"/>
</clipPath>
<clipPath id="clip1_809_7555">
<rect x="42.6785" y="22.9858" width="143.406" height="34.4593" rx="3.48074" transform="rotate(9.81701 42.6785 22.9858)" fill="white"/>
</clipPath>
<clipPath id="clip2_809_7555">
<rect x="101.849" y="50.5332" width="22.1607" height="10.4422" rx="1.74037" transform="rotate(9.81701 101.849 50.5332)" fill="white"/>
</clipPath>
<clipPath id="clip3_809_7555">
<rect x="127.115" y="54.9053" width="22.1607" height="10.4422" rx="1.74037" transform="rotate(9.81701 127.115 54.9053)" fill="white"/>
</clipPath>
<clipPath id="clip4_809_7555">
<rect x="36.21" y="60.3701" width="143.406" height="29.5863" rx="3.48074" transform="rotate(9.81701 36.21 60.3701)" fill="white"/>
</clipPath>
<clipPath id="clip5_809_7555">
<rect x="30.5715" y="92.9531" width="143.406" height="34.4593" rx="3.48074" transform="rotate(9.81701 30.5715 92.9531)" fill="white"/>
</clipPath>
</defs>
</svg>
