<svg width="227" height="203" viewBox="0 0 227 203" fill="none" xmlns="http://www.w3.org/2000/svg">
<g filter="url(#filter0_d_809_7593)">
<g clip-path="url(#clip0_809_7593)">
<rect x="38.1958" y="2.66406" width="191" height="158.53" rx="10" transform="rotate(13.0737 38.1958 2.66406)" fill="#262626"/>
<g clip-path="url(#clip1_809_7593)">
<rect x="43.9097" y="11.8345" width="175.72" height="47.2725" rx="4.775" transform="rotate(13.0737 43.9097 11.8345)" fill="#1B1B1B"/>
<path d="M50.5562 27.2882L51.3177 24.0091L51.7038 24.0988L50.9423 27.3779L50.5562 27.2882ZM53.5541 27.9844L53.2312 25.4486L53.6312 25.5415L53.8747 27.7648L53.7538 27.7367L54.9754 25.8536L55.301 25.9293L55.5538 28.1547L55.4375 28.1277L56.6406 26.2403L57.022 26.3289L55.61 28.4618L55.2472 28.3776L54.9786 26.1142L55.1647 26.1574L53.9216 28.0698L53.5541 27.9844ZM56.9734 28.7785L57.5156 26.4436L57.8924 26.531L57.3502 28.866L56.9734 28.7785ZM57.5923 25.9025L57.6906 25.4792L58.1557 25.5873L58.0574 26.0105L57.5923 25.9025ZM58.0817 29.0358L58.8767 25.6125L59.2534 25.7L58.4585 29.1233L58.0817 29.0358ZM59.19 29.2932L59.985 25.8699L60.3617 25.9574L59.5668 29.3807L59.19 29.2932ZM61.2778 30.8369L61.928 28.0369C61.9482 27.95 61.9641 27.8606 61.9756 27.7685C61.991 27.674 62.0045 27.5808 62.0161 27.4887L62.3789 27.5729L62.3015 28.1383L62.2457 28.1253C62.3378 27.9539 62.4721 27.8331 62.6485 27.763C62.8256 27.6897 63.0196 27.6776 63.2305 27.7266C63.4414 27.7755 63.6116 27.8657 63.7412 27.9971C63.8739 28.1293 63.9628 28.2953 64.0079 28.4953C64.0529 28.6953 64.0459 28.9225 63.9869 29.1767C63.9286 29.4279 63.8351 29.6333 63.7065 29.793C63.581 29.9534 63.4292 30.0652 63.2512 30.1285C63.0738 30.1886 62.8797 30.1942 62.6688 30.1452C62.4611 30.097 62.2935 30.0025 62.166 29.8618C62.0386 29.7211 61.9713 29.5535 61.9641 29.359L62.0153 29.3709L61.6545 30.9244L61.2778 30.8369ZM62.6657 29.8209C62.889 29.8728 63.0833 29.8379 63.2489 29.7162C63.4182 29.5921 63.5371 29.3828 63.6055 29.0882C63.6746 28.7905 63.6602 28.5502 63.5621 28.3673C63.4679 28.182 63.3091 28.0635 63.0859 28.0116C62.8657 27.9605 62.671 27.997 62.5016 28.121C62.3361 28.2427 62.2188 28.4524 62.1497 28.7501C62.0812 29.0447 62.0942 29.2846 62.1884 29.4699C62.2864 29.6528 62.4455 29.7698 62.6657 29.8209ZM65.1787 30.728C64.9709 30.6798 64.8007 30.5896 64.668 30.4575C64.536 30.3223 64.4474 30.1546 64.4024 29.9546C64.3604 29.7553 64.3686 29.5301 64.4269 29.2789C64.486 29.0247 64.5783 28.8173 64.7037 28.6569C64.8323 28.4972 64.9853 28.3873 65.1627 28.3272C65.34 28.2671 65.5326 28.2612 65.7403 28.3094C65.9512 28.3584 66.12 28.4548 66.2467 28.5986C66.3773 28.74 66.4461 28.908 66.4533 29.1024L66.3975 29.0895L66.5771 28.5479L66.9399 28.6321C66.9098 28.7199 66.8792 28.8092 66.8483 28.9C66.8212 28.9885 66.7976 29.0762 66.7774 29.163L66.3605 30.9584L65.9838 30.8709L66.1112 30.322L66.1624 30.3339C66.0703 30.5054 65.9345 30.6258 65.7549 30.6952C65.5754 30.7646 65.3833 30.7756 65.1787 30.728ZM65.3244 30.4383C65.5476 30.4902 65.742 30.4553 65.9076 30.3336C66.0738 30.2088 66.1911 29.9991 66.2595 29.7045C66.3287 29.4068 66.3157 29.1669 66.2208 28.9847C66.1266 28.7994 65.9678 28.6809 65.7446 28.629C65.5244 28.5779 65.3297 28.6144 65.1603 28.7384C64.9948 28.8601 64.8775 29.0698 64.8083 29.3675C64.7399 29.6621 64.7528 29.902 64.8471 30.0873C64.9451 30.2702 65.1042 30.3872 65.3244 30.4383ZM66.728 32.1565L66.712 31.8243C66.8657 31.8241 66.996 31.8118 67.1029 31.7877C67.2122 31.7673 67.308 31.7275 67.3904 31.6682C67.4728 31.6089 67.5503 31.5288 67.6227 31.428L67.8074 31.1816L67.7613 31.3376L67.2968 28.715L67.7061 28.81L68.0717 31.0567L67.9507 31.0286L69.2596 29.1708L69.655 29.2626L67.9883 31.5423C67.8917 31.6767 67.7947 31.7849 67.6973 31.8669C67.5991 31.9519 67.4994 32.0153 67.3981 32.0572C67.2993 32.1029 67.1944 32.1324 67.0834 32.1459C66.9725 32.1593 66.854 32.1629 66.728 32.1565Z" fill="#C3C3C3"/>
<path d="M153.348 51.1593L154.11 47.8802L155.422 48.1848C155.769 48.2655 156.02 48.4022 156.174 48.5949C156.329 48.7877 156.375 49.0205 156.311 49.2934C156.264 49.498 156.162 49.6542 156.006 49.7618C155.854 49.8702 155.664 49.9209 155.437 49.9139L155.452 49.8487C155.687 49.9328 155.857 50.0605 155.961 50.2317C156.069 50.4005 156.096 50.6012 156.042 50.8338C155.974 51.1253 155.825 51.3258 155.593 51.4355C155.365 51.5459 155.074 51.5601 154.721 51.478L153.348 51.1593ZM153.798 50.9352L154.756 51.1577C154.991 51.2124 155.188 51.2107 155.345 51.1524C155.506 51.0918 155.612 50.9545 155.661 50.7406C155.712 50.5235 155.678 50.3538 155.559 50.2315C155.444 50.1068 155.269 50.0171 155.033 49.9623L154.075 49.7398L153.798 50.9352ZM154.146 49.4328L155.026 49.637C155.28 49.696 155.482 49.6907 155.632 49.621C155.782 49.5513 155.879 49.4234 155.922 49.2374C155.967 49.0451 155.937 48.8862 155.832 48.7605C155.728 48.6318 155.549 48.5379 155.295 48.4788L154.415 48.2747L154.146 49.4328ZM157.347 52.1319C157.139 52.0837 156.969 51.9935 156.836 51.8614C156.704 51.7261 156.615 51.5585 156.57 51.3585C156.528 51.1592 156.537 50.934 156.595 50.6828C156.654 50.4286 156.746 50.2212 156.872 50.0608C157 49.9011 157.153 49.7912 157.331 49.7311C157.508 49.671 157.701 49.665 157.908 49.7133C158.119 49.7623 158.288 49.8586 158.415 50.0025C158.545 50.1439 158.614 50.3118 158.621 50.5063L158.565 50.4934L158.745 49.9517L159.108 50.036C159.078 50.1238 159.047 50.2131 159.016 50.3039C158.989 50.3924 158.966 50.4801 158.945 50.5669L158.529 52.3623L158.152 52.2748L158.279 51.7259L158.33 51.7378C158.238 51.9092 158.102 52.0297 157.923 52.0991C157.743 52.1685 157.551 52.1795 157.347 52.1319ZM157.492 51.8422C157.716 51.8941 157.91 51.8592 158.076 51.7375C158.242 51.6127 158.359 51.403 158.428 51.1084C158.497 50.8107 158.484 50.5708 158.389 50.3886C158.295 50.2033 158.136 50.0848 157.913 50.0329C157.692 49.9818 157.498 50.0183 157.328 50.1423C157.163 50.264 157.045 50.4737 156.976 50.7714C156.908 51.066 156.921 51.3059 157.015 51.4912C157.113 51.6741 157.272 51.7911 157.492 51.8422ZM159.257 52.5314L160.052 49.1081L160.429 49.1956L159.634 52.6189L159.257 52.5314ZM161.244 53.037C161.036 52.9887 160.866 52.8985 160.733 52.7664C160.601 52.6312 160.513 52.4635 160.468 52.2635C160.426 52.0642 160.434 51.839 160.492 51.5879C160.551 51.3336 160.643 51.1263 160.769 50.9658C160.898 50.8062 161.051 50.6963 161.228 50.6361C161.405 50.576 161.598 50.5701 161.806 50.6183C162.016 50.6673 162.185 50.7637 162.312 50.9075C162.443 51.0489 162.511 51.2169 162.518 51.4113L162.463 51.3984L162.642 50.8568L163.005 50.941C162.975 51.0288 162.944 51.1181 162.914 51.209C162.886 51.2974 162.863 51.3851 162.843 51.4719L162.426 53.2673L162.049 53.1798L162.176 52.631L162.228 52.6428C162.135 52.8143 162 52.9347 161.82 53.0041C161.641 53.0735 161.449 53.0845 161.244 53.037ZM161.39 52.7473C161.613 52.7991 161.807 52.7642 161.973 52.6425C162.139 52.5177 162.256 52.308 162.325 52.0134C162.394 51.7157 162.381 51.4758 162.286 51.2936C162.192 51.1083 162.033 50.9898 161.81 50.9379C161.59 50.8868 161.395 50.9233 161.226 51.0474C161.06 51.1691 160.943 51.3787 160.874 51.6764C160.805 51.971 160.818 52.2109 160.912 52.3962C161.01 52.5791 161.169 52.6961 161.39 52.7473ZM163.154 53.4365L163.571 51.6411C163.591 51.5543 163.607 51.4648 163.619 51.3727C163.634 51.2783 163.648 51.185 163.659 51.0929L164.022 51.1771L163.95 51.6996L163.894 51.6866C164.004 51.5226 164.144 51.4114 164.314 51.3529C164.489 51.2921 164.675 51.2847 164.874 51.3308C165.15 51.3949 165.34 51.5175 165.445 51.6988C165.554 51.8776 165.571 52.1252 165.498 52.4415L165.159 53.902L164.782 53.8145L165.116 52.3773C165.167 52.1571 165.159 51.987 165.092 51.8669C165.029 51.7444 164.905 51.6615 164.719 51.6183C164.501 51.5679 164.314 51.5946 164.156 51.6984C163.998 51.8022 163.893 51.9658 163.841 52.189L163.531 53.5239L163.154 53.4365ZM166.851 54.3391C166.622 54.2858 166.433 54.1898 166.286 54.0509C166.141 53.9128 166.044 53.7415 165.993 53.5369C165.946 53.3331 165.951 53.1056 166.01 52.8544C166.069 52.6002 166.165 52.3955 166.299 52.2403C166.434 52.0821 166.596 51.9759 166.785 51.9217C166.977 51.8683 167.186 51.8679 167.413 51.9205C167.562 51.955 167.7 52.0149 167.827 52.1C167.957 52.1858 168.058 52.2876 168.129 52.4053L167.931 52.6438C167.859 52.5323 167.772 52.4418 167.671 52.3725C167.572 52.3039 167.47 52.2573 167.365 52.2329C167.123 52.1767 166.918 52.2091 166.749 52.3301C166.58 52.451 166.462 52.6573 166.395 52.9487C166.328 53.2371 166.342 53.4759 166.439 53.665C166.536 53.8541 166.705 53.9767 166.947 54.0329C167.049 54.0566 167.159 54.061 167.277 54.0459C167.398 54.0315 167.517 53.9889 167.635 53.9182L167.709 54.2147C167.589 54.2916 167.452 54.3398 167.297 54.3594C167.143 54.379 166.994 54.3722 166.851 54.3391ZM169.164 54.8763C168.799 54.7913 168.535 54.6189 168.373 54.3591C168.212 54.0962 168.175 53.7756 168.263 53.3973C168.32 53.1523 168.416 52.9507 168.55 52.7925C168.686 52.6311 168.849 52.5203 169.039 52.4599C169.231 52.3965 169.435 52.39 169.652 52.4404C169.866 52.4901 170.035 52.5768 170.16 52.7006C170.285 52.8243 170.367 52.9789 170.405 53.1644C170.445 53.3467 170.438 53.5511 170.385 53.7775L170.353 53.917L168.544 53.4968L168.599 53.2596L170.162 53.6225L170.068 53.6646C170.126 53.4166 170.115 53.2098 170.036 53.0443C169.957 52.8789 169.807 52.7706 169.587 52.7195C169.354 52.6655 169.154 52.7055 168.985 52.8396C168.818 52.9706 168.702 53.1741 168.638 53.4501L168.628 53.4919C168.56 53.7834 168.58 54.0217 168.688 54.2067C168.799 54.3894 168.985 54.511 169.245 54.5715C169.385 54.6039 169.52 54.614 169.65 54.6018C169.784 54.5871 169.918 54.5447 170.052 54.4745L170.121 54.7699C169.995 54.8454 169.847 54.8926 169.676 54.9117C169.509 54.9284 169.338 54.9166 169.164 54.8763ZM171.025 53.3033L171.135 52.8289L171.609 52.9391L171.499 53.4135L171.025 53.3033ZM170.593 55.1638L170.703 54.6894L171.177 54.7996L171.067 55.274L170.593 55.1638Z" fill="#C3C3C3"/>
<path d="M174.583 56.0905L174.666 55.7323L176.065 54.8169C176.246 54.6989 176.388 54.5814 176.49 54.4646C176.592 54.3479 176.66 54.2182 176.693 54.0755C176.734 53.8988 176.71 53.7525 176.619 53.6366C176.531 53.5215 176.383 53.4398 176.176 53.3916C176.011 53.3534 175.849 53.3469 175.69 53.3719C175.534 53.3977 175.375 53.4556 175.213 53.5456L175.131 53.1392C175.29 53.0486 175.473 52.9899 175.682 52.9632C175.895 52.9341 176.109 52.9448 176.327 52.9952C176.668 53.0744 176.912 53.2128 177.059 53.4103C177.209 53.6086 177.25 53.8519 177.183 54.1403C177.136 54.3449 177.04 54.5303 176.897 54.6964C176.755 54.8594 176.561 55.0171 176.317 55.1695L175.117 55.9251L175.147 55.7949L176.849 56.1902L176.755 56.5949L174.583 56.0905ZM178.372 57.0144C177.993 56.9265 177.735 56.7146 177.598 56.3787C177.464 56.0405 177.46 55.6 177.586 55.0573C177.714 54.5054 177.912 54.1117 178.179 53.8764C178.45 53.6386 178.774 53.5637 179.153 53.6515C179.534 53.7401 179.792 53.9504 179.928 54.2825C180.064 54.6115 180.068 55.0504 179.941 55.5992C179.814 56.145 179.614 56.5398 179.342 56.7838C179.073 57.0254 178.75 57.1022 178.372 57.0144ZM178.466 56.6097C178.704 56.6652 178.905 56.6023 179.068 56.4212C179.234 56.2408 179.369 55.9305 179.471 55.4901C179.574 55.0467 179.59 54.7106 179.519 54.4816C179.452 54.2504 179.299 54.107 179.06 54.0515C178.824 53.9968 178.624 54.0581 178.458 54.2354C178.294 54.4096 178.16 54.7168 178.058 55.1571C177.955 55.6006 177.938 55.9398 178.008 56.1749C178.081 56.4108 178.233 56.5557 178.466 56.6097ZM181.161 57.662C180.782 57.5742 180.524 57.3623 180.387 57.0264C180.253 56.6881 180.249 56.2476 180.375 55.705C180.503 55.1531 180.701 54.7594 180.968 54.524C181.239 54.2863 181.563 54.2113 181.942 54.2992C182.323 54.3878 182.581 54.5981 182.717 54.9302C182.853 55.2591 182.857 55.6981 182.729 56.2469C182.603 56.7926 182.403 57.1875 182.131 57.4314C181.862 57.673 181.539 57.7499 181.161 57.662ZM181.255 57.2574C181.493 57.3128 181.694 57.25 181.857 57.0689C182.023 56.8885 182.157 56.5781 182.26 56.1378C182.363 55.6944 182.379 55.3582 182.308 55.1293C182.24 54.898 182.087 54.7546 181.849 54.6992C181.613 54.6445 181.413 54.7057 181.247 54.883C181.083 55.0572 180.949 55.3645 180.847 55.8048C180.744 56.2482 180.727 56.5875 180.797 56.8226C180.869 57.0584 181.022 57.2034 181.255 57.2574ZM182.838 58.0075L182.967 57.454L183.52 57.5825L183.392 58.136L182.838 58.0075ZM185.165 58.5919C184.759 58.4976 184.478 58.2838 184.324 57.9505C184.172 57.6179 184.155 57.1973 184.274 56.6888C184.361 56.3105 184.491 56.0056 184.662 55.7742C184.835 55.5396 185.039 55.3779 185.275 55.289C185.515 55.2008 185.78 55.1906 186.071 55.2582C186.245 55.2986 186.411 55.373 186.569 55.4815C186.727 55.587 186.851 55.7139 186.941 55.8622L186.685 56.185C186.596 56.0467 186.49 55.9338 186.366 55.8463C186.243 55.7588 186.111 55.6989 185.972 55.6665C185.671 55.5966 185.417 55.6488 185.21 55.8229C185.004 55.9939 184.852 56.2872 184.756 56.7027L184.664 57.0981L184.617 57.0873C184.678 56.9249 184.764 56.7929 184.876 56.6914C184.988 56.5868 185.119 56.5175 185.267 56.4833C185.416 56.4492 185.572 56.4512 185.737 56.4893C185.932 56.5347 186.094 56.6196 186.222 56.7441C186.353 56.8693 186.443 57.0211 186.493 57.1994C186.544 57.3746 186.546 57.563 186.499 57.7645C186.451 57.9723 186.361 58.1475 186.23 58.2902C186.099 58.433 185.94 58.5318 185.754 58.5866C185.572 58.6391 185.376 58.6409 185.165 58.5919ZM185.228 58.1947C185.358 58.225 185.478 58.2234 185.587 58.1899C185.699 58.1571 185.794 58.0976 185.873 58.0113C185.953 57.9219 186.008 57.8106 186.039 57.6773C186.07 57.5439 186.069 57.4212 186.036 57.309C186.004 57.1968 185.944 57.1013 185.858 57.0224C185.775 56.9412 185.669 56.8854 185.539 56.8552C185.409 56.8249 185.287 56.8278 185.174 56.8636C185.062 56.8964 184.966 56.9559 184.888 57.0422C184.809 57.1284 184.754 57.2382 184.723 57.3716C184.692 57.5049 184.692 57.6292 184.724 57.7445C184.757 57.8567 184.817 57.9522 184.903 58.0311C184.989 58.1099 185.098 58.1645 185.228 58.1947ZM187.954 59.2396C187.548 59.1452 187.267 58.9314 187.113 58.5981C186.961 58.2655 186.944 57.845 187.062 57.3365C187.15 56.9582 187.28 56.6533 187.451 56.4218C187.623 56.1873 187.828 56.0256 188.064 55.9367C188.303 55.8485 188.569 55.8382 188.86 55.9059C189.034 55.9462 189.2 56.0207 189.358 56.1292C189.516 56.2346 189.64 56.3615 189.73 56.5098L189.474 56.8326C189.385 56.6944 189.279 56.5815 189.155 56.494C189.032 56.4065 188.9 56.3465 188.761 56.3141C188.46 56.2443 188.206 56.2964 187.999 56.4706C187.792 56.6416 187.641 56.9349 187.545 57.3504L187.453 57.7457L187.406 57.7349C187.467 57.5725 187.553 57.4406 187.665 57.3391C187.777 57.2345 187.908 57.1651 188.056 57.131C188.205 57.0968 188.361 57.0988 188.525 57.137C188.721 57.1823 188.882 57.2673 189.01 57.3918C189.142 57.517 189.232 57.6687 189.282 57.847C189.333 58.0222 189.335 58.2106 189.288 58.4122C189.24 58.6199 189.15 58.7952 189.019 58.9379C188.888 59.0806 188.729 59.1794 188.543 59.2343C188.361 59.2868 188.165 59.2885 187.954 59.2396ZM188.017 58.8424C188.147 58.8726 188.267 58.871 188.376 58.8375C188.488 58.8047 188.583 58.7452 188.662 58.659C188.742 58.5696 188.797 58.4582 188.828 58.3249C188.859 58.1916 188.858 58.0688 188.825 57.9566C188.793 57.8444 188.733 57.7489 188.647 57.6701C188.564 57.5888 188.458 57.5331 188.328 57.5028C188.198 57.4726 188.076 57.4754 187.963 57.5113C187.851 57.5441 187.755 57.6036 187.677 57.6898C187.598 57.7761 187.543 57.8859 187.512 58.0192C187.481 58.1526 187.481 58.2769 187.513 58.3922C187.546 58.5044 187.606 58.5999 187.692 58.6787C187.778 58.7576 187.886 58.8121 188.017 58.8424ZM192.192 60.2238C191.736 60.1179 191.423 59.9244 191.253 59.6431C191.087 59.3625 191.055 58.9974 191.16 58.5478L191.614 56.5896L192.098 56.7019L191.646 58.6508C191.572 58.9671 191.585 59.2217 191.684 59.4146C191.787 59.6051 191.989 59.7353 192.289 59.8052C192.575 59.8714 192.808 59.8424 192.991 59.7181C193.174 59.5907 193.302 59.3689 193.376 59.0526L193.828 57.1037L194.303 57.2139L193.848 59.1721C193.744 59.6217 193.552 59.9349 193.272 60.1118C192.992 60.2887 192.632 60.3261 192.192 60.2238ZM195.389 60.9662C195.126 60.905 194.894 60.817 194.696 60.7022C194.497 60.5843 194.334 60.445 194.204 60.2842L194.456 59.9406C194.542 60.0457 194.635 60.1376 194.735 60.2162C194.837 60.2956 194.949 60.364 195.07 60.4214C195.194 60.4765 195.332 60.5216 195.484 60.5569C195.745 60.6174 195.946 60.6152 196.089 60.5502C196.234 60.486 196.325 60.3779 196.36 60.226C196.39 60.0958 196.37 59.9849 196.3 59.8934C196.233 59.8027 196.097 59.7107 195.894 59.6176L195.41 59.3976C195.124 59.2657 194.923 59.1127 194.806 58.9386C194.693 58.7621 194.666 58.5514 194.722 58.3065C194.769 58.108 194.862 57.9466 195.002 57.8222C195.142 57.6979 195.314 57.617 195.519 57.5796C195.727 57.5429 195.956 57.5537 196.207 57.612C196.44 57.666 196.646 57.7498 196.825 57.8634C197.006 57.9739 197.147 58.1097 197.25 58.2709L197.007 58.6017C196.895 58.4483 196.767 58.3254 196.622 58.2328C196.478 58.1372 196.305 58.066 196.103 58.0192C195.864 57.9637 195.665 57.9698 195.506 58.0373C195.349 58.1056 195.251 58.225 195.212 58.3955C195.18 58.532 195.197 58.6487 195.263 58.7456C195.331 58.8433 195.46 58.9354 195.65 59.0217L196.134 59.2372C196.432 59.375 196.64 59.5294 196.757 59.7004C196.875 59.8683 196.906 60.0701 196.851 60.3058C196.807 60.4949 196.718 60.6489 196.582 60.7678C196.45 60.8874 196.281 60.9659 196.077 61.0033C195.873 61.0376 195.643 61.0253 195.389 60.9662ZM197.235 61.3508L197.997 58.0717L199.132 58.3352C199.501 58.4209 199.798 58.5569 200.022 58.7431C200.25 58.93 200.401 59.161 200.474 59.4362C200.551 59.709 200.549 60.0207 200.468 60.371C200.387 60.7183 200.252 60.999 200.061 61.213C199.874 61.4277 199.637 61.5703 199.349 61.6408C199.066 61.7089 198.739 61.7001 198.37 61.6144L197.235 61.3508ZM197.813 61.0585L198.436 61.2032C198.858 61.3012 199.195 61.2716 199.447 61.1144C199.702 60.958 199.878 60.6721 199.975 60.2566C200.071 59.841 200.039 59.5084 199.878 59.2586C199.721 59.0064 199.431 58.8314 199.01 58.7334L198.386 58.5887L197.813 61.0585ZM201.324 62.3002L201.991 59.4257L200.87 59.1654L200.964 58.7608L203.69 59.3937L203.596 59.7984L202.475 59.5381L201.807 62.4125L201.324 62.3002Z" fill="#C3C3C3"/>
<path d="M46.4087 48.4079L46.7406 46.979L48.5266 47.3938L49.6854 42.4039L50.5003 42.5932L47.7625 43.4398L48.1409 41.81L50.5247 41.0694L51.7638 41.3571L50.268 47.7982L51.9425 48.187L51.6107 49.6159L46.4087 48.4079ZM55.2951 50.6009C54.3499 50.3814 53.7027 49.8585 53.3534 49.0323C53.0132 48.2004 52.9935 47.1369 53.2942 45.842C53.6001 44.5248 54.0856 43.5826 54.7506 43.0155C55.4249 42.4426 56.2345 42.2659 57.1797 42.4854C58.1322 42.7066 58.7812 43.222 59.1265 44.0317C59.4736 44.8338 59.495 45.8898 59.1909 47.1996C58.8884 48.502 58.4012 49.4516 57.7293 50.0485C57.059 50.638 56.2476 50.8221 55.2951 50.6009ZM55.6217 49.1944C56.0533 49.2946 56.4226 49.1568 56.7295 48.781C57.0455 48.3995 57.3116 47.7436 57.5276 46.8134C57.7436 45.8831 57.7912 45.1883 57.6705 44.7289C57.5572 44.2712 57.2847 43.9922 56.853 43.892C56.4214 43.7917 56.0502 43.9212 55.7393 44.2804C55.4359 44.6413 55.177 45.2832 54.9627 46.206C54.7449 47.1437 54.6939 47.8534 54.8094 48.3351C54.9267 48.8094 55.1975 49.0958 55.6217 49.1944ZM61.9885 52.1553C61.0433 51.9358 60.3961 51.4129 60.0468 50.5867C59.7067 49.7547 59.6869 48.6913 59.9876 47.3964C60.2935 46.0792 60.779 45.137 61.4441 44.5699C62.1183 43.997 62.9279 43.8203 63.8731 44.0398C64.8257 44.261 65.4746 44.7764 65.8199 45.586C66.167 46.3882 66.1884 47.4442 65.8843 48.754C65.5818 50.0563 65.0946 51.006 64.4227 51.6029C63.7524 52.1923 62.941 52.3765 61.9885 52.1553ZM62.3151 50.7487C62.7467 50.849 63.116 50.7112 63.4229 50.3354C63.7389 49.9539 64.005 49.298 64.221 48.3677C64.437 47.4375 64.4847 46.7427 64.3639 46.2832C64.2506 45.8255 63.9781 45.5466 63.5464 45.4463C63.1148 45.3461 62.7436 45.4756 62.4327 45.8348C62.1293 46.1957 61.8704 46.8375 61.6561 47.7603C61.4384 48.698 61.3873 49.4077 61.5028 49.8895C61.6202 50.3638 61.8909 50.6502 62.3151 50.7487Z" fill="#C3C3C3"/>
<g clip-path="url(#clip2_809_7593)">
<rect x="165.596" y="64.1128" width="35.8125" height="14.325" rx="2.3875" transform="rotate(13.0737 165.596 64.1128)" fill="#262626"/>
<path d="M169.571 75.0176C168.951 74.8734 168.525 74.6076 168.295 74.2201C168.069 73.8337 168.027 73.3322 168.17 72.7158L168.815 69.9418L169.349 70.0658L168.711 72.8137C168.601 73.2869 168.622 73.6671 168.775 73.9542C168.928 74.2414 169.23 74.4374 169.682 74.5422C170.107 74.641 170.458 74.5967 170.735 74.4094C171.012 74.222 171.205 73.8918 171.315 73.4186L171.953 70.6706L172.487 70.7946L171.843 73.5686C171.7 74.1851 171.435 74.6155 171.049 74.8598C170.667 75.1051 170.175 75.1577 169.571 75.0176ZM174.015 76.0496C173.646 75.9639 173.328 75.8395 173.059 75.6765C172.79 75.5134 172.568 75.3177 172.392 75.0893L172.687 74.7049C172.813 74.8531 172.943 74.9839 173.077 75.0973C173.216 75.2074 173.37 75.3026 173.539 75.383C173.709 75.4591 173.904 75.5228 174.126 75.5742C174.512 75.664 174.815 75.6589 175.035 75.559C175.255 75.459 175.393 75.2897 175.448 75.0509C175.496 74.8469 175.467 74.6755 175.362 74.5367C175.257 74.398 175.049 74.2582 174.739 74.1175L174.087 73.822C173.686 73.6374 173.404 73.4232 173.241 73.1794C173.082 72.9367 173.041 72.6482 173.119 72.3139C173.183 72.0404 173.308 71.8178 173.494 71.646C173.684 71.4753 173.921 71.3632 174.203 71.3098C174.486 71.2564 174.796 71.269 175.135 71.3477C175.46 71.4233 175.746 71.5423 175.992 71.7046C176.239 71.8626 176.436 72.0571 176.584 72.2882L176.298 72.6611C176.137 72.4313 175.952 72.2512 175.744 72.1206C175.542 71.9867 175.3 71.887 175.018 71.8215C174.662 71.7388 174.361 71.7515 174.117 71.8593C173.878 71.9639 173.727 72.1486 173.666 72.4134C173.616 72.6261 173.643 72.8084 173.745 72.9602C173.848 73.1076 174.042 73.2465 174.327 73.3769L174.986 73.6739C175.407 73.8679 175.701 74.0802 175.867 74.311C176.033 74.5417 176.078 74.822 176.001 75.1519C175.943 75.4037 175.821 75.6112 175.637 75.7742C175.457 75.9383 175.229 76.0454 174.952 76.0955C174.675 76.1455 174.363 76.1302 174.015 76.0496ZM176.588 76.5853L177.654 71.9946L179.178 72.3484C179.686 72.4664 180.095 72.6552 180.406 72.9148C180.717 73.1701 180.924 73.4904 181.027 73.8757C181.13 74.2567 181.125 74.6946 181.01 75.1895C180.896 75.68 180.708 76.0756 180.446 76.3762C180.184 76.6768 179.856 76.8753 179.463 76.9716C179.07 77.068 178.62 77.0571 178.112 76.9392L176.588 76.5853ZM177.236 76.2485L178.18 76.4678C178.806 76.613 179.305 76.5689 179.68 76.3356C180.055 76.0979 180.314 75.673 180.456 75.0609C180.599 74.4445 180.554 73.9491 180.321 73.5746C180.088 73.2002 179.658 72.9403 179.033 72.7952L178.089 72.5759L177.236 76.2485ZM182.28 77.9072L183.241 73.7722L181.619 73.3957L181.725 72.9399L185.502 73.8169L185.396 74.2728L183.781 73.8977L182.821 78.0327L182.28 77.9072Z" fill="#C3C3C3"/>
<path d="M189.497 75.9138C189.497 75.9138 190.552 78.3648 191.104 78.4929C191.656 78.621 193.683 76.8859 193.683 76.8859" stroke="#C3C3C3" stroke-width="0.71625" stroke-linecap="round" stroke-linejoin="round"/>
</g>
</g>
<g clip-path="url(#clip3_809_7593)">
<rect x="32.1362" y="62.5327" width="175.72" height="47.2725" rx="4.775" transform="rotate(13.0737 32.1362 62.5327)" fill="#1B1B1B"/>
<path d="M38.7828 77.987L39.5443 74.7079L39.9304 74.7975L39.1689 78.0766L38.7828 77.987ZM41.7807 78.6832L41.4578 76.1473L41.8578 76.2402L42.1013 78.4635L41.9804 78.4354L43.202 76.5524L43.5276 76.628L43.7804 78.8534L43.6641 78.8264L44.8671 76.9391L45.2485 77.0276L43.8365 79.1606L43.4737 79.0763L43.2052 76.8129L43.3912 76.8561L42.1481 78.7685L41.7807 78.6832ZM45.2 79.4772L45.7422 77.1423L46.119 77.2298L45.5767 79.5647L45.2 79.4772ZM45.8188 76.6012L45.9171 76.178L46.3822 76.286L46.284 76.7093L45.8188 76.6012ZM46.3083 79.7346L47.1033 76.3113L47.48 76.3988L46.685 79.8221L46.3083 79.7346ZM47.4166 79.9919L48.2116 76.5686L48.5883 76.6561L47.7933 80.0794L47.4166 79.9919ZM49.7284 80.5288L50.1399 78.7567C50.1615 78.6637 50.1803 78.5684 50.1965 78.4708C50.2157 78.3739 50.2311 78.2795 50.2427 78.1874L50.6055 78.2716L50.5202 78.8499L50.454 78.8394C50.5174 78.7071 50.5983 78.605 50.6967 78.533C50.7951 78.4611 50.9021 78.4157 51.0176 78.3968C51.1338 78.3747 51.2493 78.377 51.364 78.4037C51.4105 78.4145 51.4505 78.4254 51.4839 78.4364C51.5204 78.4482 51.5527 78.4638 51.5808 78.4834L51.4984 78.8172C51.4555 78.7909 51.4142 78.7716 51.3746 78.7591C51.3389 78.7443 51.2962 78.7311 51.2466 78.7196C51.1101 78.6879 50.9832 78.6927 50.8657 78.7341C50.7514 78.7761 50.656 78.8422 50.5795 78.9323C50.5061 79.0231 50.4561 79.1259 50.4295 79.2406L50.1098 80.6174L49.7284 80.5288ZM52.4276 81.1997C52.0617 81.1148 51.7978 80.9424 51.6359 80.6826C51.4748 80.4196 51.4381 80.099 51.526 79.7207C51.5828 79.4758 51.6787 79.2742 51.8135 79.1159C51.949 78.9546 52.112 78.8437 52.3025 78.7834C52.4937 78.7199 52.6978 78.7134 52.9149 78.7638C53.1288 78.8135 53.2982 78.9002 53.4231 79.024C53.5479 79.1478 53.6297 79.3024 53.6683 79.4878C53.7077 79.6702 53.7011 79.8745 53.6485 80.1009L53.6161 80.2404L51.8068 79.8203L51.8619 79.583L53.4247 79.946L53.3316 79.9881C53.3892 79.74 53.3784 79.5332 53.2991 79.3678C53.2199 79.2023 53.0702 79.094 52.8501 79.0429C52.6175 78.9889 52.417 79.0289 52.2486 79.163C52.0809 79.294 51.965 79.4975 51.901 79.7735L51.8912 79.8154C51.8236 80.1068 51.8434 80.3451 51.9507 80.5302C52.0619 80.7129 52.2477 80.8344 52.5082 80.8949C52.6477 80.9273 52.7827 80.9374 52.9129 80.9252C53.0471 80.9106 53.1811 80.8682 53.315 80.798L53.3837 81.0933C53.2583 81.1688 53.1101 81.2161 52.939 81.2352C52.7717 81.2519 52.6013 81.2401 52.4276 81.1997ZM54.9018 81.7743C54.6724 81.721 54.4839 81.625 54.3364 81.4861C54.192 81.348 54.0945 81.1767 54.044 80.9721C53.9965 80.7683 54.002 80.5408 54.0603 80.2897C54.1193 80.0354 54.2159 79.8307 54.35 79.6755C54.4848 79.5173 54.6467 79.4111 54.8357 79.357C55.0279 79.3035 55.2371 79.3031 55.4635 79.3557C55.6123 79.3902 55.7504 79.4501 55.8777 79.5352C56.0081 79.621 56.1086 79.7228 56.1793 79.8405L55.9818 80.079C55.9097 79.9675 55.8228 79.877 55.7213 79.8077C55.6228 79.7391 55.5209 79.6925 55.4154 79.6681C55.1736 79.6119 54.9683 79.6443 54.7997 79.7653C54.6311 79.8863 54.5129 80.0925 54.4453 80.384C54.3783 80.6723 54.3931 80.9111 54.4897 81.1002C54.5863 81.2893 54.7556 81.4119 54.9974 81.4681C55.0998 81.4918 55.2099 81.4962 55.3278 81.4811C55.4488 81.4667 55.5681 81.4241 55.6858 81.3534L55.7592 81.6499C55.64 81.7268 55.503 81.775 55.3481 81.7946C55.1932 81.8142 55.0444 81.8074 54.9018 81.7743ZM57.2151 82.3115C56.8492 82.2266 56.5853 82.0542 56.4234 81.7943C56.2623 81.5314 56.2256 81.2108 56.3134 80.8325C56.3703 80.5875 56.4662 80.3859 56.601 80.2277C56.7365 80.0663 56.8995 79.9555 57.09 79.8952C57.2812 79.8317 57.4853 79.8252 57.7024 79.8756C57.9163 79.9253 58.0857 80.012 58.2106 80.1358C58.3354 80.2595 58.4172 80.4142 58.4558 80.5996C58.4952 80.7819 58.4886 80.9863 58.436 81.2127L58.4036 81.3522L56.5943 80.932L56.6494 80.6948L58.2122 81.0577L58.1191 81.0998C58.1767 80.8518 58.1659 80.645 58.0866 80.4796C58.0074 80.3141 57.8577 80.2058 57.6375 80.1547C57.405 80.1007 57.2045 80.1407 57.0361 80.2748C56.8684 80.4058 56.7525 80.6093 56.6885 80.8853L56.6787 80.9271C56.611 81.2186 56.6309 81.4569 56.7382 81.6419C56.8494 81.8246 57.0352 81.9462 57.2957 82.0067C57.4352 82.0391 57.5702 82.0492 57.7004 82.037C57.8346 82.0224 57.9686 81.98 58.1025 81.9097L58.1712 82.2051C58.0458 82.2806 57.8976 82.3279 57.7265 82.3469C57.5592 82.3637 57.3888 82.3518 57.2151 82.3115ZM58.7176 82.6163L59.2598 80.2814L59.6366 80.3689L59.0944 82.7038L58.7176 82.6163ZM59.3365 79.7404L59.4348 79.3171L59.8999 79.4251L59.8016 79.8484L59.3365 79.7404ZM60.5143 83.0336L60.0565 80.4664L60.4658 80.5615L60.8256 82.8117L60.7 82.7826L62.024 80.9233L62.4147 81.014L60.8724 83.1167L60.5143 83.0336ZM63.2926 83.7229C62.9267 83.6379 62.6628 83.4655 62.5009 83.2057C62.3397 82.9428 62.3031 82.6221 62.3909 82.2438C62.4478 81.9989 62.5437 81.7973 62.6785 81.639C62.814 81.4777 62.977 81.3668 63.1674 81.3065C63.3587 81.2431 63.5628 81.2365 63.7798 81.2869C63.9938 81.3366 64.1632 81.4234 64.2881 81.5471C64.4129 81.6709 64.4947 81.8255 64.5333 82.0109C64.5727 82.1933 64.5661 82.3976 64.5135 82.624L64.4811 82.7635L62.6718 82.3434L62.7268 82.1062L64.2897 82.4691L64.1965 82.5112C64.2541 82.2631 64.2433 82.0564 64.1641 81.8909C64.0849 81.7254 63.9352 81.6171 63.715 81.566C63.4825 81.512 63.282 81.5521 63.1136 81.6862C62.9459 81.8172 62.83 82.0206 62.7659 82.2966L62.7562 82.3385C62.6885 82.6299 62.7084 82.8682 62.8157 83.0533C62.9269 83.236 63.1127 83.3576 63.3732 83.418C63.5127 83.4504 63.6476 83.4605 63.7779 83.4483C63.912 83.4337 64.0461 83.3913 64.18 83.3211L64.2487 83.6165C64.1233 83.6919 63.9751 83.7392 63.804 83.7583C63.6367 83.775 63.4662 83.7632 63.2926 83.7229Z" fill="#C3C3C3"/>
<path d="M36.8282 99.7448C35.8831 99.5253 35.2359 99.0024 34.8865 98.1762C34.5464 97.3442 34.5267 96.2808 34.8274 94.9859C35.1333 93.6687 35.6187 92.7265 36.2838 92.1594C36.958 91.5865 37.7677 91.4098 38.7128 91.6293C39.6654 91.8505 40.3143 92.3659 40.6597 93.1755C41.0067 93.9777 41.0282 95.0337 40.724 96.3435C40.4216 97.6458 39.9344 98.5955 39.2624 99.1924C38.5922 99.7818 37.7808 99.966 36.8282 99.7448ZM37.1548 98.3382C37.5865 98.4385 37.9557 98.3007 38.2626 97.9249C38.5787 97.5434 38.8447 96.8875 39.0607 95.9572C39.2768 95.027 39.3244 94.3321 39.2036 93.8727C39.0903 93.415 38.8178 93.1361 38.3862 93.0358C37.9546 92.9356 37.5833 93.0651 37.2724 93.4243C36.969 93.7852 36.7101 94.427 36.4958 95.3498C36.2781 96.2875 36.227 96.9972 36.3426 97.479C36.4599 97.9533 36.7306 98.2397 37.1548 98.3382ZM40.7482 100.526L41.163 98.7396L42.9714 99.1595L42.5566 100.946L40.7482 100.526ZM46.2539 101.934C45.7032 101.806 45.1893 101.604 44.7121 101.329C44.2423 101.055 43.8831 100.744 43.6345 100.396L44.4822 99.228C44.76 99.5514 45.0703 99.8195 45.4131 100.032C45.7575 100.238 46.1269 100.386 46.5214 100.478C46.9828 100.585 47.3487 100.58 47.6191 100.462C47.8896 100.345 48.0637 100.119 48.1415 99.7837C48.2141 99.4711 48.1569 99.2108 47.9699 99.0026C47.7921 98.7888 47.4874 98.6318 47.0557 98.5315L45.7385 98.2256L46.0574 96.8526L47.2183 97.1222C47.5904 97.2086 47.908 97.1921 48.171 97.0728C48.4357 96.9461 48.6035 96.7301 48.6744 96.425C48.7435 96.1273 48.692 95.8762 48.5199 95.6715C48.3479 95.4668 48.0646 95.3187 47.6702 95.2271C46.9185 95.0525 46.1909 95.1463 45.4872 95.5084L45.2245 94.1062C45.6268 93.8937 46.0843 93.7647 46.5968 93.719C47.1186 93.6676 47.6436 93.7032 48.172 93.8259C49.0204 94.023 49.6387 94.3665 50.0268 94.8567C50.4241 95.3411 50.545 95.9182 50.3895 96.588C50.2823 97.0494 50.0597 97.4173 49.7214 97.6917C49.3849 97.9587 48.9767 98.0953 48.4968 98.1015L48.5305 97.9563C49.0456 98.1701 49.4114 98.4864 49.6278 98.9053C49.8443 99.3242 49.8912 99.7978 49.7685 100.326C49.6025 101.041 49.2042 101.54 48.5733 101.825C47.9499 102.112 47.1767 102.148 46.2539 101.934ZM50.5758 102.808L55.9803 96.7098L55.8506 97.268L51.8097 96.3295L52.1467 94.8784L57.8063 96.1927L57.5056 97.4876L52.4847 103.251L50.5758 102.808ZM59.8082 105.081C58.8631 104.862 58.2158 104.339 57.8665 103.513C57.5264 102.681 57.5067 101.617 57.8074 100.322C58.1133 99.0052 58.5987 98.063 59.2638 97.4959C59.938 96.923 60.7477 96.7463 61.6928 96.9658C62.6454 97.187 63.2943 97.7024 63.6397 98.512C63.9867 99.3142 64.0082 100.37 63.704 101.68C63.4016 102.982 62.9144 103.932 62.2424 104.529C61.5722 105.118 60.7608 105.302 59.8082 105.081ZM60.1348 103.675C60.5665 103.775 60.9357 103.637 61.2426 103.261C61.5587 102.88 61.8247 102.224 62.0407 101.294C62.2567 100.363 62.3044 99.6687 62.1836 99.2092C62.0703 98.7515 61.7978 98.4726 61.3662 98.3723C60.9345 98.2721 60.5633 98.4016 60.2524 98.7608C59.949 99.1217 59.6901 99.7635 59.4758 100.686C59.2581 101.624 59.207 102.334 59.3226 102.816C59.4399 103.29 59.7106 103.576 60.1348 103.675ZM66.9543 106.611L67.2887 105.171L63.9175 104.388L64.1975 103.183L69.0498 98.8037L70.4563 99.1303L69.2665 104.254L70.3381 104.503L70.0348 105.809L68.9632 105.56L68.6288 107L66.9543 106.611ZM67.592 103.865L68.3049 100.795L68.584 100.86L65.3777 103.775L65.4711 103.373L67.592 103.865ZM73.195 108.19C72.2573 107.972 71.5672 107.6 71.1247 107.074C70.6897 106.549 70.5542 105.934 70.7184 105.227C70.848 104.668 71.1226 104.246 71.5422 103.959C71.9618 103.672 72.4435 103.557 72.9875 103.612L72.9201 103.903C72.468 103.688 72.1337 103.371 71.9172 102.952C71.71 102.527 71.6642 102.066 71.78 101.567C71.9355 100.897 72.3067 100.431 72.8934 100.167C73.4876 99.9048 74.2164 99.8741 75.0796 100.075C75.9503 100.277 76.5909 100.626 77.0014 101.121C77.4119 101.616 77.5393 102.199 77.3838 102.868C77.2663 103.375 77.0247 103.773 76.6589 104.065C76.3006 104.358 75.8821 104.488 75.4034 104.456L75.4656 104.188C75.9618 104.381 76.3276 104.698 76.5629 105.137C76.8057 105.577 76.8631 106.073 76.7353 106.624C76.5711 107.331 76.1744 107.823 75.5453 108.1C74.9236 108.38 74.1401 108.409 73.195 108.19ZM73.5035 106.862C73.9798 106.972 74.354 106.965 74.6262 106.84C74.9058 106.717 75.0862 106.48 75.1675 106.13C75.2487 105.781 75.1901 105.492 74.9917 105.266C74.8025 105.034 74.4697 104.862 73.9935 104.752C73.5246 104.643 73.1504 104.65 72.8708 104.773C72.5929 104.889 72.4133 105.122 72.3321 105.472C72.2509 105.822 72.3086 106.114 72.5052 106.347C72.7019 106.581 73.0347 106.753 73.5035 106.862ZM74.3019 103.423C74.6964 103.515 75.0185 103.496 75.2683 103.365C75.5199 103.228 75.682 103.003 75.7546 102.69C75.8272 102.378 75.78 102.108 75.6131 101.881C75.4462 101.654 75.1656 101.495 74.7711 101.403C74.3842 101.313 74.0657 101.333 73.8159 101.463C73.566 101.594 73.4048 101.815 73.3322 102.128C73.2597 102.44 73.3059 102.714 73.4711 102.948C73.638 103.175 73.915 103.334 74.3019 103.423ZM77.3495 109.025L82.7539 102.927L82.6243 103.485L78.5833 102.547L78.9203 101.096L84.5799 102.41L84.2792 103.705L79.2583 109.469L77.3495 109.025Z" fill="#C3C3C3"/>
<g clip-path="url(#clip4_809_7593)">
<rect x="153.822" y="114.811" width="35.8125" height="14.325" rx="2.3875" transform="rotate(13.0737 153.822 114.811)" fill="#262626"/>
<path d="M158.292 125.831C157.923 125.745 157.605 125.621 157.336 125.458C157.067 125.295 156.845 125.099 156.669 124.87L156.964 124.486C157.09 124.634 157.22 124.765 157.354 124.878C157.493 124.989 157.647 125.084 157.816 125.164C157.986 125.24 158.181 125.304 158.403 125.355C158.789 125.445 159.092 125.44 159.312 125.34C159.532 125.24 159.67 125.071 159.725 124.832C159.773 124.628 159.744 124.457 159.639 124.318C159.534 124.179 159.326 124.039 159.016 123.899L158.364 123.603C157.963 123.418 157.681 123.204 157.518 122.961C157.359 122.718 157.319 122.429 157.396 122.095C157.46 121.822 157.585 121.599 157.771 121.427C157.962 121.256 158.198 121.144 158.48 121.091C158.763 121.038 159.073 121.05 159.412 121.129C159.737 121.204 160.023 121.323 160.269 121.486C160.516 121.644 160.713 121.838 160.861 122.069L160.575 122.442C160.414 122.212 160.229 122.032 160.021 121.902C159.819 121.768 159.577 121.668 159.295 121.603C158.939 121.52 158.639 121.533 158.394 121.64C158.155 121.745 158.004 121.93 157.943 122.195C157.893 122.407 157.92 122.59 158.022 122.741C158.125 122.889 158.319 123.028 158.604 123.158L159.263 123.455C159.684 123.649 159.978 123.861 160.144 124.092C160.31 124.323 160.355 124.603 160.278 124.933C160.22 125.185 160.099 125.392 159.914 125.555C159.734 125.719 159.506 125.827 159.229 125.877C158.952 125.927 158.64 125.911 158.292 125.831ZM161.23 124.029C161.343 123.542 161.522 123.145 161.768 122.836C162.019 122.523 162.323 122.308 162.68 122.19C163.041 122.072 163.443 122.065 163.886 122.168C164.315 122.268 164.667 122.45 164.939 122.714C165.212 122.979 165.392 123.307 165.479 123.698C165.572 124.085 165.563 124.52 165.451 125.002C165.338 125.488 165.154 125.887 164.899 126.198C164.643 126.509 164.335 126.726 163.972 126.848C163.615 126.966 163.222 126.976 162.792 126.876C162.35 126.773 161.994 126.59 161.726 126.326C161.459 126.058 161.281 125.729 161.194 125.338C161.106 124.947 161.118 124.51 161.23 124.029ZM161.796 124.16C161.659 124.75 161.682 125.243 161.865 125.638C162.049 126.028 162.395 126.282 162.903 126.4C163.389 126.513 163.805 126.436 164.151 126.169C164.502 125.898 164.746 125.467 164.883 124.877C165.021 124.282 164.993 123.791 164.8 123.403C164.607 123.01 164.266 122.757 163.775 122.643C163.267 122.525 162.845 122.601 162.508 122.87C162.172 123.135 161.935 123.565 161.796 124.16ZM165.895 127.535L166.962 122.944L167.502 123.069L166.545 127.191L168.863 127.73L168.754 128.198L165.895 127.535Z" fill="#C3C3C3"/>
<path d="M176.916 126.425C176.916 126.425 177.972 128.876 178.523 129.004C179.075 129.132 181.102 127.397 181.102 127.397" stroke="#C3C3C3" stroke-width="0.71625" stroke-linecap="round" stroke-linejoin="round"/>
</g>
</g>
<rect x="18.2024" y="122.534" width="175.72" height="29.605" rx="4.775" transform="rotate(13.0737 18.2024 122.534)" fill="#23C69A"/>
<path d="M87.5291 156.885C86.9833 156.758 86.5398 156.54 86.1986 156.231C85.8635 155.918 85.6384 155.536 85.5233 155.086C85.4094 154.631 85.4164 154.128 85.5443 153.577C85.6722 153.026 85.887 152.574 86.1887 152.221C86.4904 151.867 86.8601 151.626 87.2977 151.498C87.7415 151.366 88.2363 151.363 88.782 151.49C89.1492 151.575 89.467 151.704 89.7355 151.876C90.009 152.049 90.2288 152.262 90.3949 152.515L89.9061 153.202C89.7167 152.959 89.522 152.773 89.3222 152.643C89.1284 152.509 88.8926 152.41 88.6148 152.345C88.0839 152.222 87.6397 152.289 87.282 152.545C86.9304 152.798 86.6861 153.22 86.549 153.81C86.4119 154.401 86.4448 154.89 86.6477 155.277C86.8556 155.665 87.225 155.92 87.7559 156.044C88.0337 156.108 88.2885 156.126 88.5203 156.096C88.7582 156.062 89.0162 155.976 89.2943 155.836L89.4306 156.668C89.1711 156.817 88.8799 156.911 88.5569 156.951C88.2388 156.992 87.8962 156.97 87.5291 156.885ZM91.5434 157.817C91.1564 157.728 90.84 157.57 90.594 157.346C90.3481 157.122 90.1797 156.845 90.089 156.515C90.0031 156.186 90.0069 155.821 90.1002 155.419C90.1935 155.018 90.3505 154.691 90.5711 154.439C90.7979 154.183 91.0711 154.008 91.3907 153.915C91.7104 153.822 92.0637 153.821 92.4507 153.91C92.8377 154 93.1541 154.157 93.4001 154.382C93.651 154.607 93.8193 154.884 93.9051 155.213C93.9971 155.537 93.9964 155.901 93.9031 156.303C93.8097 156.704 93.6497 157.033 93.423 157.289C93.2012 157.546 92.928 157.721 92.6034 157.813C92.2837 157.906 91.9304 157.907 91.5434 157.817ZM91.7093 157.103C92.002 157.171 92.2588 157.123 92.4797 156.96C92.7017 156.792 92.8611 156.5 92.9579 156.083C93.0547 155.666 93.0399 155.336 92.9135 155.092C92.7871 154.849 92.5775 154.693 92.2848 154.625C91.9921 154.557 91.7353 154.604 91.5144 154.767C91.2935 154.931 91.1347 155.22 91.0379 155.637C90.9411 156.054 90.9554 156.387 91.0806 156.635C91.207 156.879 91.4166 157.035 91.7093 157.103ZM94.268 158.372L94.923 155.551C94.9587 155.397 94.9901 155.24 95.017 155.079C95.044 154.918 95.0654 154.758 95.0812 154.6L95.9817 154.809L95.8833 155.57L95.794 155.55C95.9742 155.314 96.1969 155.154 96.4624 155.069C96.729 154.98 97.0161 154.971 97.3237 155.042C97.7652 155.145 98.0688 155.346 98.2345 155.646C98.4001 155.946 98.4219 156.358 98.2998 156.884L97.7658 159.184L96.8355 158.968L97.3592 156.713C97.4294 156.41 97.42 156.181 97.3309 156.024C97.2479 155.864 97.0898 155.756 96.8566 155.702C96.5689 155.635 96.3199 155.672 96.1098 155.811C95.8996 155.951 95.76 156.169 95.6908 156.467L95.1983 158.588L94.268 158.372ZM100.342 159.861C99.8958 159.757 99.5855 159.562 99.4114 159.276C99.2373 158.99 99.2045 158.613 99.3128 158.147L99.7154 156.413L98.9936 156.245L99.156 155.546L99.8779 155.714L100.101 154.754L101.086 154.731L100.808 155.93L101.813 156.163L101.65 156.862L100.646 156.629L100.257 158.304C100.197 158.562 100.204 158.754 100.28 158.881C100.355 159.009 100.479 159.092 100.653 159.133C100.747 159.155 100.828 159.166 100.896 159.166C100.969 159.167 101.04 159.163 101.111 159.153L100.94 159.89C100.847 159.905 100.747 159.908 100.639 159.898C100.536 159.895 100.437 159.883 100.342 159.861ZM101.572 160.068L102.445 156.31L103.375 156.526L102.502 160.284L101.572 160.068ZM102.557 155.591L102.768 154.683L103.802 154.923L103.591 155.831L102.557 155.591ZM103.512 160.518L104.167 157.698C104.203 157.544 104.234 157.387 104.261 157.226C104.288 157.065 104.31 156.905 104.326 156.746L105.226 156.956L105.128 157.717L105.038 157.696C105.218 157.461 105.441 157.301 105.707 157.216C105.973 157.126 106.26 157.117 106.568 157.189C107.01 157.291 107.313 157.493 107.479 157.792C107.644 158.092 107.666 158.505 107.544 159.031L107.01 161.331L106.08 161.115L106.603 158.86C106.674 158.557 106.664 158.327 106.575 158.171C106.492 158.01 106.334 157.903 106.101 157.849C105.813 157.782 105.564 157.818 105.354 157.958C105.144 158.097 105.004 158.316 104.935 158.614L104.443 160.734L103.512 160.518ZM109.334 161.949C108.872 161.842 108.557 161.635 108.387 161.329C108.218 161.023 108.194 160.609 108.315 160.089L108.847 157.796L109.777 158.012L109.247 160.297C109.182 160.575 109.191 160.794 109.274 160.955C109.358 161.11 109.517 161.215 109.75 161.269C110.013 161.33 110.247 161.29 110.452 161.15C110.663 161.01 110.802 160.794 110.87 160.501L111.362 158.381L112.292 158.597L111.42 162.355L110.512 162.144L110.69 161.377L110.794 161.402C110.623 161.644 110.408 161.814 110.15 161.911C109.899 162.004 109.626 162.017 109.334 161.949ZM114.228 163.085C113.598 162.939 113.145 162.651 112.868 162.221C112.592 161.79 112.524 161.273 112.664 160.667C112.755 160.275 112.912 159.951 113.133 159.694C113.355 159.437 113.622 159.258 113.932 159.158C114.248 159.059 114.59 159.052 114.957 159.137C115.319 159.221 115.604 159.368 115.811 159.578C116.019 159.789 116.152 160.047 116.212 160.354C116.276 160.662 116.265 161.001 116.179 161.374L116.122 161.619L113.383 160.983L113.497 160.492L115.573 160.974L115.423 161.049C115.503 160.702 115.491 160.419 115.384 160.201C115.283 159.984 115.094 159.843 114.816 159.779C114.508 159.707 114.245 159.761 114.025 159.94C113.811 160.12 113.658 160.407 113.567 160.798L113.545 160.895C113.45 161.302 113.479 161.63 113.63 161.88C113.787 162.125 114.049 162.291 114.416 162.376C114.63 162.426 114.835 162.444 115.031 162.433C115.233 162.417 115.434 162.364 115.632 162.274L115.762 162.963C115.55 163.066 115.311 163.128 115.045 163.149C114.778 163.171 114.506 163.15 114.228 163.085Z" fill="white"/>
</g>
<rect x="38.5697" y="3.2642" width="190" height="157.53" rx="9.5" transform="rotate(13.0737 38.5697 3.2642)" stroke="#C3C3C3" stroke-opacity="0.3"/>
</g>
<defs>
<filter id="filter0_d_809_7593" x="-1.66455" y="-1.33594" width="229.91" height="205.626" filterUnits="userSpaceOnUse" color-interpolation-filters="sRGB">
<feFlood flood-opacity="0" result="BackgroundImageFix"/>
<feColorMatrix in="SourceAlpha" type="matrix" values="0 0 0 0 0 0 0 0 0 0 0 0 0 0 0 0 0 0 127 0" result="hardAlpha"/>
<feOffset/>
<feGaussianBlur stdDeviation="2"/>
<feComposite in2="hardAlpha" operator="out"/>
<feColorMatrix type="matrix" values="0 0 0 0 0 0 0 0 0 0 0 0 0 0 0 0 0 0 0.25 0"/>
<feBlend mode="normal" in2="BackgroundImageFix" result="effect1_dropShadow_809_7593"/>
<feBlend mode="normal" in="SourceGraphic" in2="effect1_dropShadow_809_7593" result="shape"/>
</filter>
<clipPath id="clip0_809_7593">
<rect x="38.1958" y="2.66406" width="191" height="158.53" rx="10" transform="rotate(13.0737 38.1958 2.66406)" fill="white"/>
</clipPath>
<clipPath id="clip1_809_7593">
<rect x="43.9097" y="11.8345" width="175.72" height="47.2725" rx="4.775" transform="rotate(13.0737 43.9097 11.8345)" fill="white"/>
</clipPath>
<clipPath id="clip2_809_7593">
<rect x="165.596" y="64.1128" width="35.8125" height="14.325" rx="2.3875" transform="rotate(13.0737 165.596 64.1128)" fill="white"/>
</clipPath>
<clipPath id="clip3_809_7593">
<rect x="32.1362" y="62.5327" width="175.72" height="47.2725" rx="4.775" transform="rotate(13.0737 32.1362 62.5327)" fill="white"/>
</clipPath>
<clipPath id="clip4_809_7593">
<rect x="153.822" y="114.811" width="35.8125" height="14.325" rx="2.3875" transform="rotate(13.0737 153.822 114.811)" fill="white"/>
</clipPath>
</defs>
</svg>
