<svg width="218" height="192" viewBox="0 0 218 192" fill="none" xmlns="http://www.w3.org/2000/svg">
<path d="M174.124 76.6289C174.124 81.1506 177.79 84.8164 182.311 84.8164C186.833 84.8164 190.499 81.1506 190.499 76.6289C190.499 72.1072 186.833 68.4414 182.311 68.4414C177.79 68.4414 174.124 72.1072 174.124 76.6289Z" stroke="#23C69A" stroke-width="4"/>
<path d="M189.953 43.8789C190.311 42.1153 190.499 40.2899 190.499 38.4206C190.499 23.3478 178.28 11.1289 163.207 11.1289C148.135 11.1289 135.916 23.3478 135.916 38.4206C135.916 40.2899 136.103 42.1153 136.461 43.8789" stroke="#23C69A" stroke-width="4"/>
<path d="M124.999 43.8423H174.124C189.562 43.8423 197.281 43.8423 202.078 48.6408C206.874 53.4392 206.874 61.162 206.874 76.6079V87.5301C206.874 102.976 206.874 110.699 202.078 115.497C197.281 120.296 189.562 120.296 174.124 120.296H141.374C120.789 120.296 110.497 120.296 104.102 113.898C97.7073 107.5 97.7073 97.2028 97.7073 76.6079V65.6864C97.7073 45.0916 97.7073 34.7943 104.102 28.3963C109.25 23.2462 116.923 22.2418 130.457 22.0459H141.374" stroke="#23C69A" stroke-width="4" stroke-linecap="round"/>
<g filter="url(#filter0_d_3010_2677)">
<g clip-path="url(#clip0_3010_2677)">
<rect x="25.748" y="54.5791" width="197.702" height="72" rx="10" transform="rotate(19.506 25.748 54.5791)" fill="#262626"/>
<path d="M54.1099 90.5784C53.516 90.368 53.0529 90.0678 52.7206 89.6777C52.3884 89.2877 52.1884 88.83 52.1208 88.3047C52.0605 87.7758 52.1385 87.2062 52.3548 86.5958C52.571 85.9853 52.868 85.4963 53.2458 85.1288C53.6291 84.7632 54.0725 84.5335 54.5762 84.4396C55.0799 84.3456 55.6287 84.4039 56.2226 84.6143C56.6351 84.7604 56.9821 84.9514 57.2637 85.1873C57.5453 85.4232 57.7662 85.6996 57.9263 86.0162L57.3868 86.5957C57.2027 86.2767 57.0017 86.0229 56.7838 85.8343C56.5714 85.6477 56.3002 85.4959 55.9703 85.379C55.3433 85.157 54.7967 85.18 54.3304 85.448C53.864 85.7161 53.5052 86.2048 53.2539 86.9143C53.0026 87.6237 52.9728 88.2321 53.1644 88.7394C53.358 89.2413 53.7683 89.6032 54.3952 89.8253C54.7252 89.9422 55.0315 89.995 55.314 89.9836C55.602 89.9743 55.9189 89.9008 56.2647 89.7634L56.3192 90.5533C55.9954 90.6985 55.6488 90.7769 55.2796 90.7885C54.9122 90.7945 54.5224 90.7245 54.1099 90.5784ZM58.5596 92.1546C58.1471 92.0085 57.8199 91.7967 57.5778 91.519C57.3377 91.2359 57.1916 90.9056 57.1396 90.5282C57.0896 90.1453 57.1434 89.7311 57.3012 89.2857C57.459 88.8402 57.6769 88.4872 57.9549 88.2267C58.2348 87.9607 58.5562 87.796 58.9191 87.7327C59.2839 87.6638 59.6725 87.7025 60.0849 87.8486C60.4974 87.9947 60.8237 88.2093 61.0638 88.4924C61.3114 88.772 61.4602 89.1033 61.5103 89.4862C61.5677 89.8655 61.5176 90.2779 61.3598 90.7234C61.202 91.1688 60.9804 91.5236 60.695 91.7877C60.417 92.0482 60.0929 92.2119 59.7226 92.2788C59.3597 92.3421 58.972 92.3007 58.5596 92.1546ZM58.7904 91.5029C59.1534 91.6315 59.4869 91.6073 59.791 91.4303C60.0951 91.2533 60.3348 90.9173 60.5101 90.4224C60.6855 89.9274 60.7097 89.5183 60.5829 89.1948C60.458 88.8659 60.2141 88.6371 59.8512 88.5085C59.4937 88.3819 59.1629 88.4071 58.8588 88.5841C58.5567 88.7556 58.318 89.0888 58.1426 89.5837C57.9673 90.0787 57.9393 90.4897 58.0587 90.8167C58.1836 91.1456 58.4275 91.3744 58.7904 91.5029ZM61.5973 93.1471L62.7164 89.9877C62.7729 89.8282 62.8222 89.6631 62.8641 89.4923C62.9135 89.3179 62.9601 89.1425 63.004 88.9662L63.8124 89.2526L63.5769 90.1533L63.4779 90.1182C63.7135 89.855 63.9915 89.6905 64.312 89.6245C64.6344 89.553 64.9689 89.5787 65.3153 89.7014C65.8048 89.8748 66.1255 90.14 66.2775 90.4972C66.435 90.8562 66.4135 91.319 66.2128 91.8854L65.3011 94.4592L64.468 94.164L65.3621 91.6398C65.4926 91.2713 65.5119 90.9811 65.4199 90.769C65.3354 90.5534 65.1446 90.3929 64.8477 90.2877C64.4957 90.1631 64.1763 90.1737 63.8894 90.3197C63.6044 90.4601 63.3967 90.7146 63.2662 91.083L62.4304 93.4423L61.5973 93.1471ZM66.4871 94.8793L67.6063 91.7199C67.6628 91.5604 67.712 91.3952 67.754 91.2244C67.8033 91.05 67.85 90.8747 67.8939 90.6984L68.7023 90.9847L68.4668 91.8854L68.3678 91.8504C68.6034 91.5872 68.8814 91.4226 69.2019 91.3567C69.5243 91.2852 69.8587 91.3108 70.2052 91.4336C70.6946 91.6069 71.0154 91.8722 71.1674 92.2293C71.3249 92.5884 71.3033 93.0512 71.1027 93.6176L70.191 96.1913L69.3578 95.8962L70.252 93.372C70.3825 93.0035 70.4018 92.7132 70.3098 92.5012C70.2252 92.2855 70.0345 92.1251 69.7375 92.0199C69.3856 91.8952 69.0661 91.9059 68.7792 92.0518C68.4943 92.1923 68.2865 92.4467 68.156 92.8152L67.3203 95.1744L66.4871 94.8793ZM73.2727 97.3666C72.6018 97.1289 72.141 96.7521 71.8905 96.2363C71.64 95.7205 71.6335 95.1271 71.8712 94.4562C72.0251 94.0217 72.242 93.6715 72.5219 93.4055C72.8073 93.1414 73.1297 92.974 73.489 92.9032C73.8558 92.8289 74.2371 92.8618 74.6331 93.0021C75.0235 93.1404 75.3215 93.3388 75.5271 93.5973C75.7326 93.8558 75.8505 94.1606 75.8809 94.5118C75.9132 94.8575 75.8572 95.2338 75.7131 95.6407L75.6196 95.9047L72.4849 94.7943L72.6544 94.3158L75.2198 95.2246L75.0416 95.2822C75.1877 94.8697 75.2072 94.5176 75.1001 94.2259C75.0005 93.9307 74.7774 93.7217 74.4309 93.5989C74.046 93.4626 73.7013 93.4921 73.3968 93.6876C73.0944 93.8775 72.8603 94.2062 72.6947 94.6736L72.6655 94.7561C72.4921 95.2456 72.4799 95.6559 72.6287 95.9872C72.783 96.3204 73.0801 96.5649 73.5201 96.7207C73.762 96.8064 73.9992 96.8533 74.2315 96.8614C74.4713 96.8658 74.7157 96.8224 74.9647 96.7311L75.0353 97.3967C74.7824 97.499 74.502 97.5482 74.1939 97.5443C73.8877 97.5349 73.5807 97.4757 73.2727 97.3666ZM77.6769 98.9267C77.2589 98.7786 76.9234 98.5638 76.6703 98.2823C76.4247 97.9972 76.2741 97.6623 76.2186 97.2774C76.1705 96.889 76.2263 96.4693 76.3861 96.0184C76.5439 95.5729 76.7645 95.2209 77.048 94.9623C77.3314 94.7038 77.6564 94.5465 78.0228 94.4907C78.3911 94.4293 78.7843 94.4726 79.2022 94.6207C79.4717 94.7161 79.7164 94.8554 79.9362 95.0385C80.158 95.2161 80.3222 95.4166 80.4288 95.64L79.9491 96.1293C79.8477 95.9263 79.7134 95.7549 79.5463 95.6152C79.381 95.4701 79.2077 95.3653 79.0262 95.301C78.6303 95.1608 78.2747 95.1772 77.9597 95.3503C77.6446 95.5234 77.4023 95.8492 77.2328 96.3276C77.0614 96.8116 77.0426 97.2227 77.1765 97.5611C77.3104 97.8994 77.5754 98.1387 77.9713 98.279C78.1473 98.3413 78.3432 98.3736 78.5591 98.3758C78.7769 98.3725 78.9928 98.3221 79.2068 98.2246L79.2716 98.9067C79.0427 99.0113 78.7824 99.0645 78.4908 99.0665C78.2067 99.0648 77.9354 99.0182 77.6769 98.9267ZM81.5952 100.315C81.1443 100.155 80.8462 99.9132 80.7009 99.5894C80.5576 99.2601 80.5726 98.8507 80.746 98.3613L81.497 96.2413L80.6886 95.9549L80.9165 95.3115L81.7249 95.5978L82.1136 94.5007L83.0256 94.5731L82.5581 95.893L83.713 96.3021L83.485 96.9455L82.3302 96.5364L81.6055 98.5822C81.4964 98.8901 81.4734 99.1296 81.5367 99.3006C81.5999 99.4715 81.736 99.594 81.945 99.668C82.0495 99.705 82.1431 99.7289 82.226 99.7397C82.3163 99.7469 82.3993 99.7485 82.475 99.7444L82.2354 100.421C82.1412 100.425 82.0362 100.415 81.9204 100.393C81.8026 100.376 81.6942 100.35 81.5952 100.315ZM84.4136 103.337L84.4552 102.59C84.7332 102.627 84.971 102.637 85.1688 102.62C85.3721 102.606 85.5538 102.556 85.7141 102.47C85.8725 102.39 86.027 102.268 86.1776 102.105L86.5563 101.691L86.42 102.024L86.1125 97.1521L87.0034 97.4677L87.1784 101.429L86.9557 101.35L89.5854 98.3823L90.4433 98.6862L86.9598 102.466C86.7414 102.698 86.5303 102.883 86.3266 103.021C86.1229 103.16 85.9208 103.258 85.7204 103.317C85.52 103.376 85.3119 103.405 85.0961 103.402C84.8802 103.4 84.6527 103.378 84.4136 103.337ZM91.3063 103.755C90.8938 103.609 90.5666 103.397 90.3245 103.119C90.0844 102.836 89.9383 102.506 89.8863 102.128C89.8363 101.745 89.8901 101.331 90.0479 100.886C90.2057 100.44 90.4236 100.087 90.7016 99.8268C90.9815 99.5608 91.3029 99.3961 91.6657 99.3328C92.0306 99.264 92.4192 99.3026 92.8316 99.4487C93.2441 99.5948 93.5704 99.8094 93.8105 100.093C94.0581 100.372 94.2069 100.703 94.2569 101.086C94.3144 101.466 94.2643 101.878 94.1065 102.323C93.9487 102.769 93.7271 103.124 93.4417 103.388C93.1637 103.648 92.8396 103.812 92.4693 103.879C92.1064 103.942 91.7187 103.901 91.3063 103.755ZM91.5371 103.103C91.9001 103.232 92.2336 103.207 92.5377 103.03C92.8418 102.853 93.0815 102.517 93.2568 102.022C93.4322 101.528 93.4564 101.118 93.3296 100.795C93.2047 100.466 92.9608 100.237 92.5979 100.109C92.2404 99.982 91.9096 100.007 91.6055 100.184C91.3034 100.356 91.0647 100.689 90.8893 101.184C90.714 101.679 90.686 102.09 90.8054 102.417C90.9303 102.746 91.1742 102.974 91.5371 103.103ZM95.7943 105.345C95.2938 105.167 94.9648 104.899 94.8073 104.54C94.6572 104.177 94.6825 103.713 94.8832 103.146L95.792 100.581L96.6251 100.876L95.7222 103.425C95.5995 103.771 95.5804 104.053 95.6649 104.268C95.7494 104.484 95.9375 104.643 96.2289 104.746C96.5589 104.863 96.8646 104.848 97.146 104.7C97.4274 104.552 97.6324 104.297 97.7609 103.934L98.5967 101.574L99.4298 101.87L97.9571 106.027L97.1487 105.741L97.4642 104.85L97.5715 104.888C97.3469 105.155 97.0779 105.329 96.7646 105.41C96.4532 105.485 96.1297 105.463 95.7943 105.345ZM99.1609 106.454L100.268 103.327C100.329 103.157 100.384 102.984 100.433 102.81C100.49 102.632 100.54 102.455 100.584 102.278L101.393 102.565L101.103 103.669L100.971 103.623C101.118 103.384 101.287 103.202 101.48 103.079C101.672 102.955 101.877 102.885 102.093 102.869C102.314 102.854 102.53 102.884 102.739 102.958C102.827 102.989 102.899 103.021 102.956 103.054C103.014 103.08 103.071 103.113 103.125 103.151L102.854 103.89C102.774 103.819 102.7 103.768 102.63 103.737C102.568 103.702 102.487 103.668 102.388 103.633C102.146 103.547 101.921 103.529 101.711 103.578C101.504 103.622 101.324 103.72 101.172 103.87C101.019 104.02 100.906 104.2 100.832 104.409L100.002 106.752L99.1609 106.454ZM105.616 108.74L105.513 104.025L106.38 104.331L106.381 108.231L106.167 108.156L108.656 105.138L109.3 105.366L109.326 109.275L109.12 109.202L111.577 106.172L112.41 106.468L109.353 110.064L108.594 109.795L108.542 105.803L108.929 105.94L106.392 109.015L105.616 108.74ZM113.189 111.507C112.821 111.376 112.529 111.177 112.315 110.909C112.1 110.641 111.973 110.318 111.934 109.939C111.901 109.562 111.963 109.15 112.121 108.705C112.28 108.254 112.491 107.895 112.753 107.629C113.02 107.364 113.321 107.196 113.656 107.123C113.993 107.044 114.346 107.07 114.715 107.2C115.078 107.329 115.362 107.532 115.567 107.809C115.772 108.086 115.863 108.396 115.84 108.741L115.749 108.709L116.165 107.798L116.973 108.084C116.897 108.249 116.82 108.413 116.743 108.578C116.673 108.739 116.61 108.899 116.554 109.059L115.435 112.218L114.602 111.923L114.929 110.999L115.02 111.031C114.822 111.308 114.554 111.489 114.215 111.573C113.883 111.653 113.541 111.631 113.189 111.507ZM113.626 110.928C113.984 111.055 114.315 111.029 114.619 110.852C114.928 110.677 115.171 110.342 115.346 109.847C115.521 109.352 115.543 108.942 115.411 108.617C115.286 108.288 115.045 108.06 114.687 107.933C114.324 107.805 113.988 107.828 113.678 108.003C113.376 108.175 113.137 108.508 112.962 109.003C112.787 109.498 112.762 109.91 112.886 110.239C113.011 110.568 113.258 110.797 113.626 110.928ZM116.65 112.649L118.801 106.578L119.634 106.873L117.484 112.944L116.65 112.649ZM118.705 113.377L120.855 107.305L121.688 107.6L119.538 113.672L118.705 113.377ZM122.655 114.859C121.984 114.622 121.523 114.245 121.272 113.729C121.022 113.213 121.015 112.62 121.253 111.949C121.407 111.515 121.624 111.164 121.904 110.898C122.189 110.634 122.512 110.467 122.871 110.396C123.238 110.322 123.619 110.355 124.015 110.495C124.405 110.633 124.703 110.832 124.909 111.09C125.114 111.349 125.232 111.654 125.263 112.005C125.295 112.35 125.239 112.727 125.095 113.134L125.001 113.398L121.867 112.287L122.036 111.809L124.602 112.718L124.423 112.775C124.57 112.363 124.589 112.011 124.482 111.719C124.382 111.424 124.159 111.215 123.813 111.092C123.428 110.955 123.083 110.985 122.779 111.18C122.476 111.37 122.242 111.699 122.077 112.167L122.047 112.249C121.874 112.738 121.862 113.149 122.011 113.48C122.165 113.813 122.462 114.058 122.902 114.214C123.144 114.299 123.381 114.346 123.613 114.354C123.853 114.359 124.098 114.315 124.347 114.224L124.417 114.89C124.164 114.992 123.884 115.041 123.576 115.037C123.27 115.028 122.963 114.969 122.655 114.859ZM126.844 116.344C126.394 116.184 126.095 115.942 125.95 115.618C125.807 115.289 125.822 114.88 125.995 114.39L126.746 112.27L125.938 111.984L126.166 111.34L126.974 111.627L127.363 110.53L128.275 110.602L127.807 111.922L128.962 112.331L128.734 112.974L127.579 112.565L126.855 114.611C126.746 114.919 126.723 115.159 126.786 115.33C126.849 115.5 126.985 115.623 127.194 115.697C127.299 115.734 127.392 115.758 127.475 115.769C127.566 115.776 127.649 115.777 127.724 115.773L127.485 116.45C127.39 116.454 127.285 116.444 127.17 116.422C127.052 116.405 126.943 116.379 126.844 116.344ZM132.04 118.184C131.589 118.025 131.291 117.783 131.146 117.459C131.003 117.13 131.018 116.72 131.191 116.231L131.942 114.111L131.134 113.824L131.362 113.181L132.17 113.467L132.559 112.37L133.471 112.443L133.003 113.763L134.158 114.172L133.93 114.815L132.775 114.406L132.051 116.452C131.942 116.76 131.919 116.999 131.982 117.17C132.045 117.341 132.181 117.464 132.39 117.538C132.495 117.575 132.588 117.599 132.671 117.609C132.761 117.617 132.844 117.618 132.92 117.614L132.681 118.29C132.586 118.294 132.481 118.285 132.366 118.262C132.248 118.245 132.139 118.219 132.04 118.184ZM135.162 119.29C134.749 119.144 134.422 118.932 134.18 118.654C133.94 118.371 133.794 118.041 133.742 117.664C133.692 117.281 133.746 116.867 133.904 116.421C134.061 115.976 134.279 115.623 134.557 115.362C134.837 115.096 135.158 114.931 135.521 114.868C135.886 114.799 136.275 114.838 136.687 114.984C137.1 115.13 137.426 115.345 137.666 115.628C137.914 115.907 138.062 116.239 138.113 116.622C138.17 117.001 138.12 117.413 137.962 117.859C137.804 118.304 137.583 118.659 137.297 118.923C137.019 119.184 136.695 119.347 136.325 119.414C135.962 119.478 135.574 119.436 135.162 119.29ZM135.393 118.638C135.756 118.767 136.089 118.743 136.393 118.566C136.697 118.389 136.937 118.053 137.112 117.558C137.288 117.063 137.312 116.654 137.185 116.33C137.06 116.001 136.816 115.772 136.453 115.644C136.096 115.517 135.765 115.542 135.461 115.719C135.159 115.891 134.92 116.224 134.745 116.719C134.57 117.214 134.542 117.625 134.661 117.952C134.786 118.281 135.03 118.51 135.393 118.638ZM139.768 122.843L141.518 117.902C141.574 117.743 141.624 117.578 141.666 117.407C141.715 117.232 141.762 117.057 141.806 116.881L142.614 117.167L142.363 118.137L142.273 118.104C142.472 117.822 142.735 117.637 143.064 117.549C143.397 117.463 143.748 117.485 144.117 117.616C144.485 117.746 144.776 117.948 144.988 118.222C145.203 118.49 145.328 118.809 145.364 119.181C145.405 119.554 145.345 119.967 145.185 120.418C145.028 120.863 144.814 121.221 144.545 121.491C144.282 121.762 143.983 121.935 143.647 122.008C143.312 122.081 142.96 122.052 142.591 121.922C142.229 121.793 141.943 121.593 141.736 121.322C141.537 121.047 141.447 120.74 141.468 120.401L141.559 120.433L140.601 123.139L139.768 122.843ZM142.616 121.197C142.979 121.326 143.313 121.301 143.617 121.124C143.926 120.949 144.169 120.614 144.344 120.12C144.519 119.625 144.541 119.214 144.409 118.889C144.284 118.56 144.04 118.331 143.677 118.203C143.314 118.074 142.978 118.097 142.668 118.272C142.366 118.444 142.127 118.777 141.952 119.272C141.776 119.767 141.751 120.179 141.876 120.508C142.006 120.839 142.253 121.069 142.616 121.197ZM145.409 122.836L146.517 119.71C146.577 119.54 146.632 119.367 146.681 119.193C146.738 119.015 146.788 118.838 146.832 118.661L147.641 118.948L147.352 120.052L147.22 120.005C147.366 119.766 147.536 119.585 147.728 119.461C147.92 119.338 148.125 119.268 148.341 119.251C148.563 119.237 148.778 119.267 148.987 119.341C149.075 119.372 149.147 119.404 149.204 119.436C149.262 119.463 149.319 119.496 149.374 119.534L149.102 120.273C149.022 120.202 148.948 120.15 148.878 120.12C148.816 120.085 148.736 120.05 148.637 120.015C148.395 119.93 148.169 119.912 147.959 119.961C147.752 120.005 147.572 120.102 147.42 120.253C147.268 120.403 147.154 120.583 147.08 120.792L146.25 123.134L145.409 122.836ZM150.234 124.629C149.822 124.483 149.495 124.271 149.252 123.994C149.012 123.71 148.866 123.38 148.814 123.003C148.764 122.62 148.818 122.206 148.976 121.76C149.134 121.315 149.352 120.962 149.63 120.701C149.909 120.435 150.231 120.271 150.594 120.207C150.959 120.138 151.347 120.177 151.76 120.323C152.172 120.469 152.498 120.684 152.738 120.967C152.986 121.247 153.135 121.578 153.185 121.961C153.242 122.34 153.192 122.753 153.034 123.198C152.877 123.643 152.655 123.998 152.37 124.262C152.092 124.523 151.768 124.686 151.397 124.753C151.034 124.817 150.647 124.775 150.234 124.629ZM150.465 123.978C150.828 124.106 151.162 124.082 151.466 123.905C151.77 123.728 152.009 123.392 152.185 122.897C152.36 122.402 152.384 121.993 152.258 121.669C152.133 121.34 151.889 121.112 151.526 120.983C151.168 120.856 150.838 120.882 150.533 121.059C150.231 121.23 149.993 121.563 149.817 122.058C149.642 122.553 149.614 122.964 149.733 123.291C149.858 123.62 150.102 123.849 150.465 123.978ZM155.069 126.342C154.651 126.194 154.315 125.979 154.062 125.697C153.816 125.412 153.666 125.077 153.61 124.692C153.562 124.304 153.618 123.884 153.778 123.433C153.936 122.988 154.156 122.636 154.44 122.377C154.723 122.119 155.048 121.962 155.415 121.906C155.783 121.844 156.176 121.888 156.594 122.036C156.863 122.131 157.108 122.27 157.328 122.454C157.55 122.631 157.714 122.832 157.821 123.055L157.341 123.544C157.239 123.341 157.105 123.17 156.938 123.03C156.773 122.885 156.599 122.78 156.418 122.716C156.022 122.576 155.667 122.592 155.351 122.765C155.036 122.938 154.794 123.264 154.625 123.743C154.453 124.227 154.434 124.638 154.568 124.976C154.702 125.314 154.967 125.554 155.363 125.694C155.539 125.756 155.735 125.789 155.951 125.791C156.169 125.787 156.385 125.737 156.599 125.64L156.663 126.322C156.434 126.426 156.174 126.48 155.883 126.482C155.598 126.48 155.327 126.433 155.069 126.342ZM159.204 127.806C158.533 127.569 158.072 127.192 157.821 126.676C157.571 126.16 157.564 125.567 157.802 124.896C157.956 124.462 158.173 124.111 158.453 123.845C158.738 123.581 159.061 123.414 159.42 123.343C159.787 123.269 160.168 123.302 160.564 123.442C160.954 123.58 161.252 123.779 161.458 124.037C161.663 124.296 161.781 124.601 161.812 124.952C161.844 125.297 161.788 125.674 161.644 126.081L161.55 126.345L158.416 125.234L158.585 124.756L161.151 125.665L160.973 125.722C161.119 125.31 161.138 124.958 161.031 124.666C160.931 124.371 160.708 124.162 160.362 124.039C159.977 123.903 159.632 123.932 159.328 124.127C159.025 124.317 158.791 124.646 158.626 125.114L158.596 125.196C158.423 125.686 158.411 126.096 158.56 126.427C158.714 126.76 159.011 127.005 159.451 127.161C159.693 127.246 159.93 127.293 160.162 127.301C160.402 127.306 160.647 127.262 160.896 127.171L160.966 127.837C160.713 127.939 160.433 127.988 160.125 127.984C159.819 127.975 159.512 127.916 159.204 127.806ZM163.707 129.402C163.036 129.164 162.575 128.787 162.325 128.271C162.074 127.756 162.068 127.162 162.305 126.491C162.459 126.057 162.676 125.707 162.956 125.441C163.241 125.177 163.564 125.009 163.923 124.938C164.29 124.864 164.671 124.897 165.067 125.037C165.458 125.176 165.756 125.374 165.961 125.632C166.167 125.891 166.285 126.196 166.315 126.547C166.347 126.893 166.291 127.269 166.147 127.676L166.054 127.94L162.919 126.829L163.088 126.351L165.654 127.26L165.476 127.317C165.622 126.905 165.641 126.553 165.534 126.261C165.435 125.966 165.211 125.757 164.865 125.634C164.48 125.498 164.135 125.527 163.831 125.723C163.528 125.913 163.294 126.241 163.129 126.709L163.1 126.791C162.926 127.281 162.914 127.691 163.063 128.022C163.217 128.355 163.514 128.6 163.954 128.756C164.196 128.842 164.433 128.888 164.666 128.896C164.905 128.901 165.15 128.858 165.399 128.766L165.469 129.432C165.216 129.534 164.936 129.583 164.628 129.579C164.322 129.57 164.015 129.511 163.707 129.402ZM167.88 130.88C167.517 130.751 167.225 130.552 167.005 130.282C166.791 130.014 166.664 129.691 166.625 129.312C166.591 128.935 166.654 128.524 166.811 128.078C166.971 127.627 167.182 127.269 167.443 127.002C167.71 126.738 168.011 126.569 168.347 126.496C168.689 126.419 169.042 126.445 169.405 126.574C169.763 126.701 170.044 126.902 170.249 127.179C170.462 127.453 170.558 127.759 170.537 128.098L170.438 128.063L171.443 125.225L172.276 125.52L170.125 131.592L169.3 131.3L169.633 130.359L169.732 130.394C169.528 130.675 169.259 130.858 168.925 130.944C168.591 131.03 168.243 131.009 167.88 130.88ZM168.317 130.301C168.675 130.428 169.008 130.404 169.318 130.229C169.627 130.054 169.87 129.719 170.045 129.224C170.22 128.729 170.242 128.319 170.11 127.993C169.979 127.662 169.735 127.434 169.378 127.307C169.015 127.178 168.679 127.202 168.369 127.377C168.067 127.548 167.828 127.881 167.653 128.376C167.477 128.871 167.452 129.283 167.577 129.612C167.707 129.943 167.954 130.173 168.317 130.301Z" fill="#C3C3C3"/>
<g clip-path="url(#clip1_3010_2677)">
<rect x="27.7803" y="91.7295" width="169.061" height="22.2762" rx="2.38674" transform="rotate(19.506 27.7803 91.7295)" fill="#23C69A"/>
<path d="M76.198 124.421C75.604 124.211 75.141 123.91 74.8087 123.52C74.4765 123.13 74.2765 122.673 74.2088 122.147C74.1486 121.618 74.2266 121.049 74.4429 120.438C74.6591 119.828 74.9561 119.339 75.3339 118.971C75.7171 118.606 76.1606 118.376 76.6643 118.282C77.168 118.188 77.7168 118.246 78.3107 118.457C78.7231 118.603 79.0702 118.794 79.3518 119.03C79.6334 119.266 79.8543 119.542 80.0144 119.859L79.4749 120.438C79.2908 120.119 79.0898 119.866 78.8719 119.677C78.6595 119.49 78.3883 119.339 78.0584 119.222C77.4314 119 76.8848 119.023 76.4185 119.291C75.9521 119.559 75.5933 120.047 75.342 120.757C75.0907 121.466 75.0609 122.075 75.2525 122.582C75.4461 123.084 75.8564 123.446 76.4833 123.668C76.8133 123.785 77.1195 123.838 77.4021 123.826C77.6901 123.817 78.007 123.743 78.3528 123.606L78.4072 124.396C78.0835 124.541 77.7369 124.62 77.3676 124.631C77.0003 124.637 76.6104 124.567 76.198 124.421ZM80.6477 125.997C80.2352 125.851 79.9079 125.639 79.6659 125.362C79.4257 125.079 79.2797 124.748 79.2277 124.371C79.1776 123.988 79.2315 123.574 79.3893 123.128C79.5471 122.683 79.765 122.33 80.043 122.069C80.3229 121.803 80.6443 121.639 81.0071 121.575C81.3719 121.506 81.7606 121.545 82.173 121.691C82.5855 121.837 82.9118 122.052 83.1519 122.335C83.3995 122.615 83.5483 122.946 83.5983 123.329C83.6558 123.708 83.6057 124.121 83.4479 124.566C83.2901 125.011 83.0685 125.366 82.7831 125.63C82.5051 125.891 82.1809 126.055 81.8106 126.121C81.4478 126.185 81.0601 126.143 80.6477 125.997ZM80.8785 125.346C81.2415 125.474 81.575 125.45 81.8791 125.273C82.1832 125.096 82.4229 124.76 82.5982 124.265C82.7735 123.77 82.7978 123.361 82.671 123.037C82.5461 122.708 82.3022 122.48 81.9393 122.351C81.5818 122.225 81.251 122.25 80.9469 122.427C80.6448 122.598 80.4061 122.931 80.2307 123.426C80.0554 123.921 80.0274 124.332 80.1468 124.659C80.2716 124.988 80.5156 125.217 80.8785 125.346ZM83.6853 126.99L84.8045 123.83C84.861 123.671 84.9102 123.506 84.9522 123.335C85.0016 123.16 85.0482 122.985 85.0921 122.809L85.9005 123.095L85.665 123.996L85.566 123.961C85.8016 123.698 86.0796 123.533 86.4001 123.467C86.7225 123.396 87.0569 123.421 87.4034 123.544C87.8929 123.717 88.2136 123.983 88.3656 124.34C88.5231 124.699 88.5016 125.162 88.3009 125.728L87.3892 128.302L86.556 128.007L87.4502 125.482C87.5807 125.114 87.6 124.824 87.508 124.612C87.4235 124.396 87.2327 124.236 86.9357 124.13C86.5838 124.006 86.2643 124.016 85.9774 124.162C85.6925 124.303 85.4848 124.557 85.3542 124.926L84.5185 127.285L83.6853 126.99ZM88.5752 128.722L89.6944 125.562C89.7509 125.403 89.8001 125.238 89.842 125.067C89.8914 124.893 89.9381 124.717 89.982 124.541L90.7904 124.827L90.5549 125.728L90.4559 125.693C90.6915 125.43 90.9695 125.265 91.2899 125.199C91.6124 125.128 91.9468 125.153 92.2933 125.276C92.7827 125.45 93.1034 125.715 93.2555 126.072C93.413 126.431 93.3914 126.894 93.1907 127.46L92.279 130.034L91.4459 129.739L92.3401 127.215C92.4706 126.846 92.4898 126.556 92.3979 126.344C92.3133 126.128 92.1226 125.968 91.8256 125.863C91.4736 125.738 91.1542 125.748 90.8673 125.894C90.5823 126.035 90.3746 126.289 90.2441 126.658L89.4084 129.017L88.5752 128.722ZM95.3608 131.209C94.6899 130.972 94.2291 130.595 93.9786 130.079C93.728 129.563 93.7216 128.97 93.9593 128.299C94.1132 127.864 94.3301 127.514 94.61 127.248C94.8954 126.984 95.2178 126.817 95.5771 126.746C95.9438 126.671 96.3252 126.704 96.7212 126.845C97.1116 126.983 97.4096 127.181 97.6151 127.44C97.8207 127.698 97.9386 128.003 97.9689 128.354C98.0012 128.7 97.9453 129.076 97.8011 129.483L97.7076 129.747L94.573 128.637L94.7425 128.158L97.3079 129.067L97.1297 129.125C97.2758 128.712 97.2953 128.36 97.1882 128.069C97.0885 127.773 96.8655 127.564 96.519 127.442C96.1341 127.305 95.7894 127.335 95.4849 127.53C95.1824 127.72 94.9484 128.049 94.7828 128.516L94.7536 128.599C94.5802 129.088 94.5679 129.499 94.7167 129.83C94.8711 130.163 95.1682 130.407 95.6081 130.563C95.8501 130.649 96.0873 130.696 96.3196 130.704C96.5594 130.708 96.8038 130.665 97.0528 130.574L97.1234 131.239C96.8705 131.342 96.59 131.391 96.2819 131.387C95.9758 131.378 95.6688 131.318 95.3608 131.209ZM99.765 132.769C99.347 132.621 99.0115 132.406 98.7584 132.125C98.5128 131.84 98.3622 131.505 98.3067 131.12C98.2586 130.732 98.3144 130.312 98.4741 129.861C98.6319 129.416 98.8526 129.064 99.136 128.805C99.4195 128.546 99.7445 128.389 100.111 128.333C100.479 128.272 100.872 128.315 101.29 128.463C101.56 128.559 101.804 128.698 102.024 128.881C102.246 129.059 102.41 129.259 102.517 129.483L102.037 129.972C101.936 129.769 101.801 129.598 101.634 129.458C101.469 129.313 101.296 129.208 101.114 129.144C100.718 129.003 100.363 129.02 100.048 129.193C99.7326 129.366 99.4904 129.692 99.3209 130.17C99.1494 130.654 99.1307 131.065 99.2646 131.404C99.3985 131.742 99.6635 131.981 100.059 132.122C100.235 132.184 100.431 132.216 100.647 132.218C100.865 132.215 101.081 132.165 101.295 132.067L101.36 132.749C101.131 132.854 100.87 132.907 100.579 132.909C100.295 132.907 100.023 132.861 99.765 132.769ZM103.683 134.157C103.232 133.998 102.934 133.756 102.789 133.432C102.646 133.103 102.661 132.693 102.834 132.204L103.585 130.084L102.777 129.798L103.005 129.154L103.813 129.44L104.202 128.343L105.114 128.416L104.646 129.736L105.801 130.145L105.573 130.788L104.418 130.379L103.694 132.425C103.584 132.733 103.562 132.972 103.625 133.143C103.688 133.314 103.824 133.437 104.033 133.511C104.138 133.548 104.231 133.572 104.314 133.582C104.404 133.59 104.487 133.591 104.563 133.587L104.323 134.263C104.229 134.267 104.124 134.258 104.008 134.235C103.891 134.218 103.782 134.192 103.683 134.157ZM108.963 135.944L108.986 129.407L109.877 129.722L109.788 135.345L109.483 135.237L113.053 130.847L113.704 131.078L113.608 136.698L113.327 136.599L116.856 132.194L117.697 132.493L113.583 137.581L112.849 137.32L112.91 131.957L113.083 132.019L109.689 136.201L108.963 135.944ZM117.579 139.08C117.21 138.949 116.919 138.75 116.704 138.482C116.49 138.214 116.363 137.891 116.324 137.512C116.29 137.135 116.352 136.723 116.51 136.278C116.67 135.827 116.881 135.468 117.142 135.202C117.409 134.938 117.71 134.769 118.046 134.696C118.383 134.617 118.736 134.643 119.104 134.774C119.467 134.902 119.751 135.105 119.956 135.382C120.162 135.659 120.253 135.97 120.23 136.314L120.139 136.282L120.555 135.371L121.363 135.657C121.286 135.822 121.209 135.987 121.132 136.151C121.063 136.312 121 136.473 120.943 136.632L119.824 139.791L118.991 139.496L119.318 138.572L119.409 138.605C119.212 138.881 118.944 139.062 118.605 139.146C118.273 139.226 117.931 139.204 117.579 139.08ZM118.016 138.501C118.373 138.628 118.704 138.602 119.008 138.425C119.318 138.25 119.56 137.915 119.736 137.42C119.911 136.926 119.933 136.515 119.8 136.19C119.675 135.861 119.434 135.633 119.077 135.507C118.714 135.378 118.377 135.401 118.068 135.576C117.766 135.748 117.527 136.081 117.352 136.576C117.176 137.071 117.151 137.483 117.276 137.812C117.401 138.141 117.648 138.371 118.016 138.501ZM121.04 140.222L123.191 134.151L124.024 134.446L121.873 140.517L121.04 140.222ZM123.094 140.95L125.245 134.878L126.078 135.174L123.927 141.245L123.094 140.95ZM127.044 142.433C126.373 142.195 125.912 141.818 125.662 141.302C125.411 140.787 125.405 140.193 125.643 139.522C125.797 139.088 126.013 138.738 126.293 138.472C126.579 138.207 126.901 138.04 127.26 137.969C127.627 137.895 128.009 137.928 128.404 138.068C128.795 138.206 129.093 138.405 129.298 138.663C129.504 138.922 129.622 139.227 129.652 139.578C129.685 139.923 129.629 140.3 129.484 140.707L129.391 140.971L126.256 139.86L126.426 139.382L128.991 140.291L128.813 140.348C128.959 139.936 128.979 139.584 128.872 139.292C128.772 138.997 128.549 138.788 128.202 138.665C127.817 138.529 127.473 138.558 127.168 138.754C126.866 138.944 126.632 139.272 126.466 139.74L126.437 139.822C126.264 140.312 126.251 140.722 126.4 141.053C126.554 141.386 126.852 141.631 127.291 141.787C127.533 141.872 127.771 141.919 128.003 141.927C128.243 141.932 128.487 141.888 128.736 141.797L128.807 142.463C128.554 142.565 128.273 142.614 127.965 142.61C127.659 142.601 127.352 142.542 127.044 142.433ZM131.234 143.917C130.783 143.757 130.485 143.515 130.34 143.192C130.196 142.862 130.211 142.453 130.385 141.963L131.136 139.843L130.327 139.557L130.555 138.914L131.364 139.2L131.752 138.103L132.664 138.175L132.197 139.495L133.352 139.904L133.124 140.548L131.969 140.139L131.244 142.184C131.135 142.492 131.112 142.732 131.175 142.903C131.239 143.074 131.375 143.196 131.584 143.27C131.688 143.307 131.782 143.331 131.865 143.342C131.955 143.349 132.038 143.351 132.114 143.346L131.874 144.023C131.78 144.027 131.675 144.017 131.559 143.995C131.441 143.978 131.333 143.952 131.234 143.917Z" fill="white"/>
</g>
</g>
<rect x="25.8691" y="54.833" width="197.304" height="71.6022" rx="9.8011" transform="rotate(19.506 25.8691 54.833)" stroke="#C3C3C3" stroke-opacity="0.3" stroke-width="0.39779"/>
</g>
<defs>
<filter id="filter0_d_3010_2677" x="-2.27111" y="52.1924" width="218.352" height="141.837" filterUnits="userSpaceOnUse" color-interpolation-filters="sRGB">
<feFlood flood-opacity="0" result="BackgroundImageFix"/>
<feColorMatrix in="SourceAlpha" type="matrix" values="0 0 0 0 0 0 0 0 0 0 0 0 0 0 0 0 0 0 127 0" result="hardAlpha"/>
<feOffset dy="1.59116"/>
<feGaussianBlur stdDeviation="1.98895"/>
<feComposite in2="hardAlpha" operator="out"/>
<feColorMatrix type="matrix" values="0 0 0 0 0 0 0 0 0 0 0 0 0 0 0 0 0 0 0.15 0"/>
<feBlend mode="normal" in2="BackgroundImageFix" result="effect1_dropShadow_3010_2677"/>
<feBlend mode="normal" in="SourceGraphic" in2="effect1_dropShadow_3010_2677" result="shape"/>
</filter>
<clipPath id="clip0_3010_2677">
<rect x="25.748" y="54.5791" width="197.702" height="72" rx="10" transform="rotate(19.506 25.748 54.5791)" fill="white"/>
</clipPath>
<clipPath id="clip1_3010_2677">
<rect x="27.7803" y="91.7295" width="169.061" height="22.2762" rx="2.38674" transform="rotate(19.506 27.7803 91.7295)" fill="white"/>
</clipPath>
</defs>
</svg>
