<svg width="98" height="98" viewBox="0 0 98 98" fill="none" xmlns="http://www.w3.org/2000/svg">
<rect x="20.189" width="80" height="80" rx="15" transform="rotate(14.6173 20.189 0)" fill="#1B1B1B"/>
<rect x="20.5466" y="0.609997" width="79" height="79" rx="14.5" transform="rotate(14.6173 20.5466 0.609997)" stroke="#C3C3C3" stroke-opacity="0.3"/>
<path d="M42.6358 34.7909C43.7659 30.4575 44.331 28.2908 46.0283 27.2957C47.7256 26.3006 49.8923 26.8657 54.2257 27.9958C58.5591 29.126 60.7258 29.6911 61.721 31.3884C62.716 33.0857 62.151 35.2524 61.0208 39.5858C59.8906 43.9191 59.3256 46.0858 57.6283 47.081C55.9309 48.0761 53.7642 47.511 49.4308 46.3809C45.0975 45.2507 42.9308 44.6856 41.9356 42.9883C40.9405 41.291 41.5056 39.1243 42.6358 34.7909Z" stroke="#C3C3C3" stroke-width="0.920006"/>
<path d="M56.7612 35.1161L51.4392 33.7281C49.6427 33.2596 47.9556 34.207 47.4743 36.0528" stroke="#C3C3C3" stroke-linecap="round" stroke-linejoin="round"/>
<path d="M46.8959 39.2605L52.2179 40.6485C54.0144 41.1171 55.7015 40.1696 56.1829 38.3239" stroke="#C3C3C3" stroke-linecap="round" stroke-linejoin="round"/>
<path d="M56.1089 33.6543C56.1089 33.6543 57.0861 34.8606 57.003 35.1793C56.9198 35.498 55.478 36.0734 55.478 36.0734" stroke="#C3C3C3" stroke-linecap="round" stroke-linejoin="round"/>
<path d="M48.179 38.3035C48.179 38.3035 46.7372 38.8788 46.654 39.1976C46.5709 39.5163 47.5481 40.7226 47.5481 40.7226" stroke="#C3C3C3" stroke-linecap="round" stroke-linejoin="round"/>
<path d="M34.5382 62.7418C33.9899 62.5988 33.5149 62.3992 33.1132 62.1429C32.7116 61.8865 32.3832 61.5873 32.1279 61.2451L32.6243 60.6098C32.8063 60.8364 32.9983 61.0381 33.2003 61.2148C33.4039 61.385 33.6304 61.5336 33.8797 61.6607C34.1372 61.7829 34.424 61.8853 34.7401 61.9677C35.3013 62.1141 35.7403 62.1218 36.0569 61.9908C36.3817 61.855 36.5878 61.6194 36.6753 61.284C36.751 60.9937 36.7155 60.7467 36.5688 60.5431C36.4221 60.3395 36.1283 60.132 35.6874 59.9205L34.7075 59.4376C34.1155 59.1454 33.7024 58.8138 33.4685 58.4427C33.2427 58.0669 33.1954 57.6274 33.3267 57.1243C33.4326 56.7179 33.6316 56.3908 33.9236 56.1432C34.2237 55.8907 34.5859 55.7303 35.0102 55.6618C35.441 55.595 35.9144 55.6289 36.4305 55.7635C36.9079 55.888 37.3313 56.0742 37.7007 56.3221C38.07 56.57 38.3573 56.8689 38.5623 57.2186L38.0735 57.8249C37.8522 57.4847 37.5889 57.2128 37.2838 57.0092C36.9868 56.8008 36.6286 56.6419 36.2093 56.5326C35.6997 56.3997 35.2679 56.4042 34.9139 56.5461C34.56 56.6881 34.3342 56.9461 34.2366 57.3203C34.1593 57.617 34.1914 57.8769 34.333 58.0998C34.4764 58.3163 34.7524 58.5261 35.161 58.7291L36.1434 59.2024C36.7677 59.503 37.1953 59.8315 37.4262 60.188C37.6635 60.5461 37.7182 60.9703 37.5903 61.4606C37.4894 61.8477 37.297 62.1626 37.0132 62.4055C36.731 62.642 36.3786 62.7912 35.956 62.8532C35.5333 62.9153 35.0607 62.8781 34.5382 62.7418ZM39.5355 63.9521L38.9857 58.6105L39.9049 58.8502L40.2881 63.4043L40.0365 63.3387L42.6337 59.5619L43.3497 59.7486L43.7619 64.3103L43.52 64.2472L46.0881 60.4628L46.9687 60.6925L43.8705 65.0827L43.0383 64.8657L42.5954 60.2237L43.0212 60.3347L40.3773 64.1717L39.5355 63.9521ZM48.3986 66.3567C47.9728 66.2456 47.6247 66.0481 47.3543 65.764C47.084 65.4799 46.9081 65.124 46.8267 64.6963C46.7454 64.2685 46.7728 63.7934 46.9091 63.2709C47.0454 62.7484 47.2526 62.3236 47.5308 61.9966C47.8107 61.6631 48.138 61.4384 48.5127 61.3225C48.8874 61.2067 49.2876 61.2043 49.7134 61.3153C50.1456 61.428 50.4911 61.6353 50.75 61.937C51.017 62.234 51.1534 62.5831 51.159 62.9841L51.0429 62.9539L51.4421 61.8592L52.2936 62.0812C52.2238 62.2697 52.1539 62.4582 52.0841 62.6467C52.0207 62.8368 51.9647 63.0255 51.9159 63.2125L50.9468 66.9282L50.0663 66.6986L50.3565 65.5858L50.4629 65.6136C50.2638 65.9544 49.9744 66.1924 49.5946 66.3276C49.223 66.458 48.8243 66.4677 48.3986 66.3567ZM48.7835 65.713C49.2221 65.8274 49.6141 65.7642 49.9593 65.5236C50.3046 65.2829 50.5554 64.8626 50.7119 64.2627C50.8683 63.6628 50.8539 63.1767 50.6685 62.8045C50.483 62.4324 50.171 62.1891 49.7324 62.0747C49.2937 61.9603 48.8994 62.0193 48.5493 62.2519C48.2058 62.4861 47.9558 62.9031 47.7993 63.5031C47.6428 64.103 47.6565 64.5923 47.8402 64.9709C48.0239 65.3495 48.3384 65.5969 48.7835 65.713ZM51.877 69.4031L53.3912 63.5973C53.44 63.4102 53.4832 63.2182 53.5207 63.0214C53.5583 62.8245 53.5894 62.6259 53.6141 62.4256L54.4656 62.6477L54.2793 63.7979L54.1729 63.7702C54.3672 63.4213 54.6502 63.1816 55.0218 63.0511C55.3951 62.9142 55.8011 62.903 56.2398 63.0174C56.672 63.1301 57.0233 63.3285 57.2937 63.6126C57.564 63.8967 57.7367 64.2518 57.8116 64.6778C57.8946 65.0991 57.868 65.571 57.7318 66.0935C57.5955 66.616 57.3874 67.044 57.1075 67.3775C56.8341 67.7127 56.51 67.9382 56.1353 68.0541C55.7606 68.1699 55.3572 68.1715 54.925 68.0588C54.4927 67.946 54.1463 67.742 53.8858 67.4467C53.6333 67.1466 53.5002 66.7984 53.4865 66.4021L53.5929 66.4299L52.7576 69.6328L51.877 69.4031ZM54.9034 67.3091C55.3486 67.4252 55.7437 67.3629 56.089 67.1222C56.4342 66.8815 56.6851 66.4612 56.8415 65.8613C56.998 65.2614 56.9835 64.7753 56.7981 64.4032C56.6127 64.031 56.2974 63.7869 55.8523 63.6708C55.4072 63.5547 55.0129 63.6138 54.6693 63.848C54.3322 64.0839 54.0854 64.5018 53.929 65.1017C53.7725 65.7016 53.7829 66.1901 53.9602 66.567C54.1439 66.9456 54.4583 67.193 54.9034 67.3091Z" fill="#C3C3C3"/>
</svg>
