<svg width="37" height="38" viewBox="0 0 37 38" fill="none" xmlns="http://www.w3.org/2000/svg">
<rect x="0.790527" y="0.212402" width="36" height="37" rx="18" fill="url(#paint0_linear_830_955)" fill-opacity="0.3"/>
<rect x="1.04053" y="0.462402" width="35.5" height="36.5" rx="17.75" stroke="#C3C3C3" stroke-opacity="0.7" stroke-width="0.5"/>
<path d="M21.6238 20.1289C21.6238 20.7157 22.0995 21.1914 22.6863 21.1914C23.2731 21.1914 23.7488 20.7157 23.7488 20.1289C23.7488 19.5421 23.2731 19.0664 22.6863 19.0664C22.0995 19.0664 21.6238 19.5421 21.6238 20.1289Z" stroke="#C3C3C3" stroke-width="0.8"/>
<path d="M23.678 15.8789C23.7245 15.65 23.7489 15.4132 23.7489 15.1706C23.7489 13.2146 22.1632 11.6289 20.2072 11.6289C18.2512 11.6289 16.6655 13.2146 16.6655 15.1706C16.6655 15.4132 16.6899 15.65 16.7364 15.8789" stroke="#C3C3C3" stroke-width="0.8"/>
<path d="M15.2489 15.8744H21.6239C23.6274 15.8744 24.6291 15.8744 25.2515 16.4971C25.8739 17.1198 25.8739 18.122 25.8739 20.1265V21.5438C25.8739 23.5483 25.8739 24.5505 25.2515 25.1732C24.6291 25.7959 23.6274 25.7959 21.6239 25.7959H17.3739C14.7026 25.7959 13.367 25.7959 12.5371 24.9657C11.7073 24.1354 11.7073 22.7991 11.7073 20.1265V18.7092C11.7073 16.0366 11.7073 14.7003 12.5371 13.87C13.2052 13.2017 14.2009 13.0713 15.9573 13.0459H17.3739" stroke="#C3C3C3" stroke-width="0.8" stroke-linecap="round"/>
<defs>
<linearGradient id="paint0_linear_830_955" x1="0.790527" y1="18.7124" x2="36.7905" y2="18.7124" gradientUnits="userSpaceOnUse">
<stop stop-color="#C3C3C3"/>
<stop offset="1" stop-color="#1B1B1B"/>
</linearGradient>
</defs>
</svg>
